%TF.GenerationSoftware,KiCad,Pcbnew,8.0.8*%
%TF.CreationDate,2025-02-11T09:57:58-05:00*%
%TF.ProjectId,BLERoomSensore,424c4552-6f6f-46d5-9365-6e736f72652e,rev?*%
%TF.SameCoordinates,Original*%
%TF.FileFunction,Copper,L1,Top*%
%TF.FilePolarity,Positive*%
%FSLAX46Y46*%
G04 Gerber Fmt 4.6, Leading zero omitted, Abs format (unit mm)*
G04 Created by KiCad (PCBNEW 8.0.8) date 2025-02-11 09:57:58*
%MOMM*%
%LPD*%
G01*
G04 APERTURE LIST*
G04 Aperture macros list*
%AMRoundRect*
0 Rectangle with rounded corners*
0 $1 Rounding radius*
0 $2 $3 $4 $5 $6 $7 $8 $9 X,Y pos of 4 corners*
0 Add a 4 corners polygon primitive as box body*
4,1,4,$2,$3,$4,$5,$6,$7,$8,$9,$2,$3,0*
0 Add four circle primitives for the rounded corners*
1,1,$1+$1,$2,$3*
1,1,$1+$1,$4,$5*
1,1,$1+$1,$6,$7*
1,1,$1+$1,$8,$9*
0 Add four rect primitives between the rounded corners*
20,1,$1+$1,$2,$3,$4,$5,0*
20,1,$1+$1,$4,$5,$6,$7,0*
20,1,$1+$1,$6,$7,$8,$9,0*
20,1,$1+$1,$8,$9,$2,$3,0*%
G04 Aperture macros list end*
%TA.AperFunction,SMDPad,CuDef*%
%ADD10R,1.600200X1.422400*%
%TD*%
%TA.AperFunction,SMDPad,CuDef*%
%ADD11R,0.508000X0.508000*%
%TD*%
%TA.AperFunction,SMDPad,CuDef*%
%ADD12RoundRect,0.160000X0.160000X-0.197500X0.160000X0.197500X-0.160000X0.197500X-0.160000X-0.197500X0*%
%TD*%
%TA.AperFunction,SMDPad,CuDef*%
%ADD13C,1.000000*%
%TD*%
%TA.AperFunction,SMDPad,CuDef*%
%ADD14RoundRect,0.160000X-0.160000X0.197500X-0.160000X-0.197500X0.160000X-0.197500X0.160000X0.197500X0*%
%TD*%
%TA.AperFunction,SMDPad,CuDef*%
%ADD15R,0.350000X0.500000*%
%TD*%
%TA.AperFunction,SMDPad,CuDef*%
%ADD16RoundRect,0.160000X-0.197500X-0.160000X0.197500X-0.160000X0.197500X0.160000X-0.197500X0.160000X0*%
%TD*%
%TA.AperFunction,SMDPad,CuDef*%
%ADD17R,0.740000X2.790000*%
%TD*%
%TA.AperFunction,SMDPad,CuDef*%
%ADD18RoundRect,0.052500X0.172500X0.122500X-0.172500X0.122500X-0.172500X-0.122500X0.172500X-0.122500X0*%
%TD*%
%TA.AperFunction,SMDPad,CuDef*%
%ADD19RoundRect,0.052500X0.122500X0.172500X-0.122500X0.172500X-0.122500X-0.172500X0.122500X-0.172500X0*%
%TD*%
%TA.AperFunction,HeatsinkPad*%
%ADD20R,2.200000X3.100000*%
%TD*%
%TA.AperFunction,SMDPad,CuDef*%
%ADD21RoundRect,0.087500X-0.412500X-0.087500X0.412500X-0.087500X0.412500X0.087500X-0.412500X0.087500X0*%
%TD*%
%TA.AperFunction,ComponentPad*%
%ADD22R,0.850000X0.850000*%
%TD*%
%TA.AperFunction,ComponentPad*%
%ADD23O,0.850000X0.850000*%
%TD*%
%TA.AperFunction,ViaPad*%
%ADD24C,0.500000*%
%TD*%
%TA.AperFunction,ViaPad*%
%ADD25C,0.800000*%
%TD*%
%TA.AperFunction,ViaPad*%
%ADD26C,0.600000*%
%TD*%
%TA.AperFunction,Conductor*%
%ADD27C,0.177800*%
%TD*%
%TA.AperFunction,Conductor*%
%ADD28C,0.127000*%
%TD*%
%TA.AperFunction,Conductor*%
%ADD29C,0.508000*%
%TD*%
%TA.AperFunction,Conductor*%
%ADD30C,0.250000*%
%TD*%
%TA.AperFunction,Conductor*%
%ADD31C,0.203200*%
%TD*%
%TA.AperFunction,Conductor*%
%ADD32C,0.254000*%
%TD*%
%TA.AperFunction,Conductor*%
%ADD33C,0.381000*%
%TD*%
G04 APERTURE END LIST*
D10*
%TO.P,XTAL1,1,1*%
%TO.N,Net-(U5-OSCI)*%
X126400000Y-70107800D03*
%TO.P,XTAL1,2,2*%
%TO.N,Net-(U5-OSCO)*%
X126400000Y-72292200D03*
%TD*%
D11*
%TO.P,U3,1,GND*%
%TO.N,GND*%
X150686001Y-77700000D03*
%TO.P,U3,3,GND*%
X149586001Y-77700000D03*
%TO.P,U3,5,GND*%
X148486001Y-77700000D03*
%TO.P,U3,7,P0.26*%
%TO.N,BME_CS*%
X147386000Y-77700000D03*
%TO.P,U3,9,P0.28*%
%TO.N,SDA*%
X146286000Y-77700000D03*
%TO.P,U3,11,P0.30*%
%TO.N,SCL*%
X145186000Y-77700000D03*
%TO.P,U3,13,P0.00*%
%TO.N,LIS_INT*%
X144085999Y-77700000D03*
%TO.P,U3,15,P0.02*%
%TO.N,PCF_INT*%
X142985999Y-77700000D03*
%TO.P,U3,16,GND*%
%TO.N,GND*%
X141885999Y-77700000D03*
%TO.P,U3,17,VCC*%
%TO.N,VDD*%
X141886000Y-78799998D03*
%TO.P,U3,19,P0.03*%
%TO.N,unconnected-(U3-P0.03-Pad19)*%
X141886000Y-79899998D03*
%TO.P,U3,21,P0.05*%
%TO.N,unconnected-(U3-P0.05-Pad21)*%
X141886000Y-80999999D03*
%TO.P,U3,23,P0.07*%
%TO.N,unconnected-(U3-P0.07-Pad23)*%
X141886000Y-82099999D03*
%TO.P,U3,25,P0.09*%
%TO.N,unconnected-(U3-P0.09-Pad25)*%
X141886000Y-83199999D03*
%TO.P,U3,27,P0.11*%
%TO.N,unconnected-(U3-P0.11-Pad27)*%
X141886000Y-84300000D03*
%TO.P,U3,29,GND*%
%TO.N,GND*%
X141886000Y-85400000D03*
%TO.P,U3,30,GND*%
X141885999Y-86499998D03*
%TO.P,U3,31,P0.13*%
%TO.N,Net-(EXP1-Pin_2)*%
X142985999Y-86499998D03*
%TO.P,U3,33,P0.15*%
%TO.N,Net-(EXP1-Pin_3)*%
X144085999Y-86499998D03*
%TO.P,U3,35,P0.17*%
%TO.N,Net-(EXP1-Pin_4)*%
X145186000Y-86499998D03*
%TO.P,U3,37,P0.19*%
%TO.N,unconnected-(U3-P0.19-Pad37)*%
X146286000Y-86499998D03*
%TO.P,U3,39,P0.21*%
%TO.N,RESET*%
X147386000Y-86499998D03*
%TO.P,U3,41,P0.23*%
%TO.N,unconnected-(U3-P0.23-Pad41)*%
X148486001Y-86499998D03*
%TO.P,U3,43,SWCLK*%
%TO.N,CLK*%
X149586001Y-86499998D03*
%TO.P,U3,45,GND*%
%TO.N,GND*%
X150686001Y-86499998D03*
%TO.P,U3,2,GND*%
X150136001Y-78600000D03*
%TO.P,U3,4,GND*%
X149036001Y-78600000D03*
%TO.P,U3,6,P0.25*%
%TO.N,unconnected-(U3-P0.25-Pad6)*%
X147936001Y-78600000D03*
%TO.P,U3,8,P0.27*%
%TO.N,unconnected-(U3-P0.27-Pad8)*%
X146836000Y-78600000D03*
%TO.P,U3,10,P0.29*%
%TO.N,unconnected-(U3-P0.29-Pad10)*%
X145736000Y-78600000D03*
%TO.P,U3,12,P0.31*%
%TO.N,unconnected-(U3-P0.31-Pad12)*%
X144636000Y-78600000D03*
%TO.P,U3,14,P0.01*%
%TO.N,unconnected-(U3-P0.01-Pad14)*%
X143535999Y-78600000D03*
%TO.P,U3,32,P0.14*%
%TO.N,unconnected-(U3-P0.14-Pad32)*%
X143535999Y-85599998D03*
%TO.P,U3,34,P0.16*%
%TO.N,unconnected-(U3-P0.16-Pad34)*%
X144636000Y-85599998D03*
%TO.P,U3,36,P0.18*%
%TO.N,unconnected-(U3-P0.18-Pad36)*%
X145736000Y-85599998D03*
%TO.P,U3,38,P0.20*%
%TO.N,unconnected-(U3-P0.20-Pad38)*%
X146836000Y-85599998D03*
%TO.P,U3,40,P0.22*%
%TO.N,unconnected-(U3-P0.22-Pad40)*%
X147936001Y-85599998D03*
%TO.P,U3,42,P0.24*%
%TO.N,unconnected-(U3-P0.24-Pad42)*%
X149036001Y-85599998D03*
%TO.P,U3,44,SWDIO*%
%TO.N,DIO*%
X150136001Y-85599998D03*
%TO.P,U3,18,GND*%
%TO.N,GND*%
X142786000Y-79349998D03*
%TO.P,U3,20,P0.04*%
%TO.N,unconnected-(U3-P0.04-Pad20)*%
X142786000Y-80449998D03*
%TO.P,U3,22,P0.06*%
%TO.N,unconnected-(U3-P0.06-Pad22)*%
X142786000Y-81549999D03*
%TO.P,U3,24,P0.08*%
%TO.N,unconnected-(U3-P0.08-Pad24)*%
X142786000Y-82649999D03*
%TO.P,U3,26,P0.10*%
%TO.N,unconnected-(U3-P0.10-Pad26)*%
X142786000Y-83749999D03*
%TO.P,U3,28,P0.12*%
%TO.N,unconnected-(U3-P0.12-Pad28)*%
X142786000Y-84850000D03*
%TO.P,U3,47,GND*%
%TO.N,GND*%
X150686001Y-80449999D03*
%TO.P,U3,46,GND*%
X150686001Y-83749999D03*
%TD*%
D12*
%TO.P,R5,1*%
%TO.N,GND*%
X135100000Y-76097500D03*
%TO.P,R5,2*%
%TO.N,SCL*%
X135100000Y-74902500D03*
%TD*%
%TO.P,R3,1*%
%TO.N,PCF_INT*%
X135700000Y-71397500D03*
%TO.P,R3,2*%
%TO.N,VDD*%
X135700000Y-70202500D03*
%TD*%
D13*
%TO.P,TP_LIS1,1,1*%
%TO.N,LIS_INT*%
X140900000Y-75500000D03*
%TD*%
D14*
%TO.P,R4,1*%
%TO.N,GND*%
X140800000Y-69002500D03*
%TO.P,R4,2*%
%TO.N,SDA*%
X140800000Y-70197500D03*
%TD*%
D15*
%TO.P,U2,1,GND*%
%TO.N,GND*%
X145755000Y-73288000D03*
%TO.P,U2,2,CSB*%
%TO.N,BME_CS*%
X145105000Y-73288000D03*
%TO.P,U2,3,SDI*%
%TO.N,SDA*%
X144455000Y-73288000D03*
%TO.P,U2,4,SCK*%
%TO.N,SCL*%
X143805000Y-73288000D03*
%TO.P,U2,5,SDO*%
%TO.N,GND*%
X143805000Y-71238000D03*
%TO.P,U2,6,VDDIO*%
%TO.N,VDD*%
X144455000Y-71238000D03*
%TO.P,U2,7,GND*%
%TO.N,GND*%
X145105000Y-71238000D03*
%TO.P,U2,8,VDD*%
%TO.N,VDD*%
X145755000Y-71238000D03*
%TD*%
D16*
%TO.P,R1,1*%
%TO.N,VDD*%
X136460900Y-79375000D03*
%TO.P,R1,2*%
%TO.N,Net-(J1-Pad01)*%
X137655900Y-79375000D03*
%TD*%
D17*
%TO.P,J1,01,01*%
%TO.N,Net-(J1-Pad01)*%
X137998200Y-82245200D03*
%TO.P,J1,02,02*%
%TO.N,DIO*%
X137998200Y-86315200D03*
%TO.P,J1,03,03*%
%TO.N,GND*%
X136728200Y-82245200D03*
%TO.P,J1,04,04*%
%TO.N,CLK*%
X136728200Y-86315200D03*
%TO.P,J1,05,05*%
%TO.N,GND*%
X135458200Y-82245200D03*
%TO.P,J1,06,06*%
%TO.N,unconnected-(J1-Pad06)*%
X135458200Y-86315200D03*
%TO.P,J1,07,07*%
%TO.N,unconnected-(J1-Pad07)*%
X134188200Y-82245200D03*
%TO.P,J1,08,08*%
%TO.N,unconnected-(J1-Pad08)*%
X134188200Y-86315200D03*
%TO.P,J1,09,09*%
%TO.N,unconnected-(J1-Pad09)*%
X132918200Y-82245200D03*
%TO.P,J1,10,10*%
%TO.N,RESET*%
X132918200Y-86315200D03*
%TD*%
D18*
%TO.P,U4,1,SCL/SPC*%
%TO.N,SCL*%
X140165000Y-72950000D03*
%TO.P,U4,2,CS*%
%TO.N,VDD*%
X140165000Y-72450000D03*
%TO.P,U4,3,SDO/SAO*%
%TO.N,unconnected-(U4-SDO{slash}SAO-Pad3)*%
X140165000Y-71950000D03*
%TO.P,U4,4,SDA/SDI/SDO*%
%TO.N,SDA*%
X140165000Y-71450000D03*
D19*
%TO.P,U4,5,RES*%
%TO.N,GND*%
X139665000Y-71435000D03*
%TO.P,U4,6,GND*%
X139150000Y-71435000D03*
D18*
%TO.P,U4,7,GND__1*%
X138635000Y-71450000D03*
%TO.P,U4,8,GND__2*%
X138635000Y-71950000D03*
%TO.P,U4,9,VDD*%
%TO.N,VDD*%
X138635000Y-72450000D03*
%TO.P,U4,10,VDD_IO*%
X138635000Y-72950000D03*
D19*
%TO.P,U4,11,INT2*%
%TO.N,unconnected-(U4-INT2-Pad11)*%
X139150000Y-72965000D03*
%TO.P,U4,12,INT1*%
%TO.N,LIS_INT*%
X139650000Y-72965000D03*
%TD*%
D20*
%TO.P,U5,9,VSS*%
%TO.N,GND*%
X131350000Y-71125000D03*
D21*
%TO.P,U5,8,VDD*%
%TO.N,VDD*%
X133225000Y-69925000D03*
%TO.P,U5,7,~{INT1}/CLKOUT*%
%TO.N,PCF_INT*%
X133225000Y-70725000D03*
%TO.P,U5,6,SCL*%
%TO.N,SCL*%
X133225000Y-71525000D03*
%TO.P,U5,5,SDA*%
%TO.N,SDA*%
X133225000Y-72325000D03*
%TO.P,U5,4,VSS*%
%TO.N,GND*%
X129475000Y-72325000D03*
%TO.P,U5,3,VBAT*%
%TO.N,VDD*%
X129475000Y-71525000D03*
%TO.P,U5,2,OSCO*%
%TO.N,Net-(U5-OSCO)*%
X129475000Y-70725000D03*
%TO.P,U5,1,OSCI*%
%TO.N,Net-(U5-OSCI)*%
X129475000Y-69925000D03*
%TD*%
D14*
%TO.P,R2,1*%
%TO.N,VDD*%
X142200000Y-70802500D03*
%TO.P,R2,2*%
%TO.N,BME_CS*%
X142200000Y-71997500D03*
%TD*%
D22*
%TO.P,EXP1,1,Pin_1*%
%TO.N,GND*%
X142600000Y-88600000D03*
D23*
%TO.P,EXP1,2,Pin_2*%
%TO.N,Net-(EXP1-Pin_2)*%
X143600000Y-88600000D03*
%TO.P,EXP1,3,Pin_3*%
%TO.N,Net-(EXP1-Pin_3)*%
X144600000Y-88600000D03*
%TO.P,EXP1,4,Pin_4*%
%TO.N,Net-(EXP1-Pin_4)*%
X145600000Y-88600000D03*
%TD*%
D24*
%TO.N,GND*%
X148100000Y-88500000D03*
X148800000Y-83400000D03*
X148900000Y-80900000D03*
X134300000Y-76700000D03*
X135100000Y-79600000D03*
X147000000Y-80600000D03*
X135800000Y-74400000D03*
X139100000Y-69000000D03*
D25*
X130810000Y-83566000D03*
D24*
X133600000Y-68400000D03*
X140100000Y-77200000D03*
X136100000Y-69400000D03*
X136100000Y-77000000D03*
X139800000Y-85700000D03*
X149700000Y-88800000D03*
X138300000Y-77000000D03*
X143100000Y-69800000D03*
X148920200Y-69748400D03*
X125600000Y-68100000D03*
X145500000Y-83000000D03*
D25*
X131013200Y-85064600D03*
D24*
X149100000Y-73100000D03*
X122800000Y-69800000D03*
D25*
%TO.N,VDD*%
X122529600Y-77165200D03*
X127100000Y-81500000D03*
X130500000Y-81300000D03*
X136770586Y-71888823D03*
X122580400Y-78841600D03*
X122529600Y-75133200D03*
X133290040Y-77399949D03*
X123037600Y-81686400D03*
X133400000Y-76200000D03*
D26*
%TO.N,DIO*%
X139674600Y-87376000D03*
X149500000Y-84600000D03*
%TO.N,CLK*%
X149100000Y-89339800D03*
X137300000Y-89012000D03*
D24*
%TO.N,SDA*%
X141400000Y-71000000D03*
X133300000Y-73800000D03*
X145276693Y-75628039D03*
%TO.N,SCL*%
X136491552Y-76107356D03*
X142400000Y-76000000D03*
%TD*%
D27*
%TO.N,PCF_INT*%
X135300000Y-70797500D02*
X135300000Y-71400000D01*
X135300000Y-71400000D02*
X135300000Y-73000000D01*
D28*
X135700000Y-71397500D02*
X135302500Y-71397500D01*
X135302500Y-71397500D02*
X135300000Y-71400000D01*
D27*
%TO.N,Net-(EXP1-Pin_2)*%
X142985999Y-86499998D02*
X142985999Y-86985999D01*
X143600000Y-87600000D02*
X143600000Y-88600000D01*
X142985999Y-86985999D02*
X143600000Y-87600000D01*
%TO.N,Net-(EXP1-Pin_3)*%
X144085999Y-86499998D02*
X144085999Y-86985999D01*
X144085999Y-86985999D02*
X144600000Y-87500000D01*
X144600000Y-87500000D02*
X144600000Y-88600000D01*
%TO.N,Net-(EXP1-Pin_4)*%
X145186000Y-86886000D02*
X145600000Y-87300000D01*
X145186000Y-86499998D02*
X145186000Y-86886000D01*
X145600000Y-87300000D02*
X145600000Y-88600000D01*
D29*
%TO.N,VDD*%
X141886000Y-78799998D02*
X139988598Y-78799998D01*
X139988598Y-78799998D02*
X139288600Y-78100000D01*
X139288600Y-78100000D02*
X136500000Y-78100000D01*
D27*
%TO.N,PCF_INT*%
X140800000Y-77000000D02*
X142285999Y-77000000D01*
X140600000Y-76800000D02*
X140800000Y-77000000D01*
X142285999Y-77000000D02*
X142985999Y-77700000D01*
X135300000Y-73000000D02*
X137700000Y-75400000D01*
X137700000Y-75400000D02*
X139200000Y-75400000D01*
X135100000Y-70597500D02*
X135300000Y-70797500D01*
X139200000Y-75400000D02*
X140600000Y-76800000D01*
%TO.N,DIO*%
X150136001Y-85436001D02*
X149500000Y-84800000D01*
X149500000Y-84800000D02*
X149500000Y-84600000D01*
%TO.N,CLK*%
X149100000Y-89339800D02*
X149100000Y-86985999D01*
X149100000Y-86985999D02*
X149586001Y-86499998D01*
%TO.N,RESET*%
X132918200Y-86315200D02*
X132918200Y-87710200D01*
X132918200Y-87710200D02*
X134758900Y-89550900D01*
X134758900Y-89550900D02*
X146849100Y-89550900D01*
X146849100Y-89550900D02*
X147386000Y-89014000D01*
X147386000Y-89014000D02*
X147386000Y-86499998D01*
%TO.N,BME_CS*%
X147386000Y-77700000D02*
X147386000Y-76745132D01*
%TO.N,SDA*%
X146286000Y-77700000D02*
X146286000Y-76637346D01*
%TO.N,SCL*%
X145186000Y-77700000D02*
X145186000Y-76586000D01*
%TO.N,LIS_INT*%
X144085999Y-77700000D02*
X144085999Y-77085999D01*
X144085999Y-77085999D02*
X143500000Y-76500000D01*
X143500000Y-76500000D02*
X141100000Y-76500000D01*
X141100000Y-76500000D02*
X140050000Y-75450000D01*
X140050000Y-75450000D02*
X139650000Y-75050000D01*
D28*
X140100000Y-75500000D02*
X140050000Y-75450000D01*
X140900000Y-75500000D02*
X140100000Y-75500000D01*
D27*
%TO.N,CLK*%
X137300000Y-89012000D02*
X137299234Y-89012000D01*
X136728200Y-88440966D02*
X136728200Y-86315200D01*
X137299234Y-89012000D02*
X136728200Y-88440966D01*
%TO.N,SDA*%
X141200000Y-71000000D02*
X140800000Y-70600000D01*
X140800000Y-70600000D02*
X140800000Y-70197500D01*
X141400000Y-71000000D02*
X141200000Y-71000000D01*
D30*
%TO.N,BME_CS*%
X142200000Y-71997500D02*
X144497500Y-71997500D01*
X144653000Y-72153000D02*
X144653000Y-72186224D01*
X144497500Y-71997500D02*
X144653000Y-72153000D01*
X144653000Y-72186224D02*
X145105000Y-72638224D01*
D31*
X145105000Y-74464132D02*
X147386000Y-76745132D01*
X145105000Y-73233000D02*
X145105000Y-74464132D01*
D30*
X145105000Y-72638224D02*
X145105000Y-73288000D01*
D32*
%TO.N,GND*%
X145105000Y-71745000D02*
X145755000Y-72395000D01*
D27*
X143805000Y-70505000D02*
X143100000Y-69800000D01*
D32*
X145755000Y-72395000D02*
X145755000Y-74055000D01*
X145755000Y-74055000D02*
X147100000Y-75400000D01*
D27*
X143805000Y-71238000D02*
X143805000Y-70505000D01*
D32*
X145105000Y-71293000D02*
X145105000Y-71745000D01*
D27*
%TO.N,VDD*%
X138635000Y-72450000D02*
X138635000Y-72950000D01*
D30*
X136460900Y-78139100D02*
X136500000Y-78100000D01*
D27*
X144455000Y-70445000D02*
X144953100Y-69946900D01*
X133875000Y-69925000D02*
X134397500Y-69402500D01*
D30*
X128000000Y-72100000D02*
X128000000Y-74300000D01*
D31*
X140730081Y-72450000D02*
X140165000Y-72450000D01*
D27*
X138635000Y-72450000D02*
X137331763Y-72450000D01*
D31*
X142240400Y-70459600D02*
X141951600Y-70748400D01*
D30*
X136460900Y-79375000D02*
X136460900Y-78139100D01*
D33*
X137545500Y-67954500D02*
X136770586Y-68729414D01*
D27*
X136770586Y-70100000D02*
X135700000Y-70100000D01*
D33*
X142200000Y-70802500D02*
X142200000Y-68400000D01*
D27*
X144455000Y-71238000D02*
X144455000Y-70445000D01*
X137331763Y-72450000D02*
X136770586Y-71888823D01*
X135100000Y-69500000D02*
X135100000Y-69402500D01*
D31*
X141951600Y-70748400D02*
X141951600Y-71228481D01*
X145755000Y-70748800D02*
X144953100Y-69946900D01*
D33*
X141754500Y-67954500D02*
X137545500Y-67954500D01*
D31*
X142960700Y-67954500D02*
X141600000Y-67954500D01*
X145755000Y-71293000D02*
X145755000Y-70748800D01*
D27*
X133225000Y-69925000D02*
X133875000Y-69925000D01*
D31*
X141951600Y-71228481D02*
X140730081Y-72450000D01*
D30*
X128575000Y-71525000D02*
X128000000Y-72100000D01*
D33*
X142200000Y-68400000D02*
X141754500Y-67954500D01*
D30*
X129475000Y-71525000D02*
X128575000Y-71525000D01*
D33*
X136770586Y-68729414D02*
X136770586Y-71888823D01*
D29*
X133990091Y-78100000D02*
X133290040Y-77399949D01*
X136500000Y-78100000D02*
X133990091Y-78100000D01*
D31*
X144953100Y-69946900D02*
X142960700Y-67954500D01*
D27*
X134397500Y-69402500D02*
X135100000Y-69402500D01*
X135700000Y-70100000D02*
X135100000Y-69500000D01*
D29*
%TO.N,Net-(J1-Pad01)*%
X137970900Y-82217900D02*
X137998200Y-82245200D01*
X137970900Y-79375000D02*
X137970900Y-82217900D01*
D27*
%TO.N,DIO*%
X139674600Y-87376000D02*
X139059000Y-87376000D01*
X139059000Y-87376000D02*
X137998200Y-86315200D01*
%TO.N,PCF_INT*%
X134972500Y-70725000D02*
X135100000Y-70597500D01*
X133225000Y-70725000D02*
X134972500Y-70725000D01*
D31*
%TO.N,SDA*%
X145276693Y-75628039D02*
X144455000Y-74806346D01*
D27*
X140950000Y-71450000D02*
X141400000Y-71000000D01*
D31*
X144455000Y-74806346D02*
X144455000Y-73233000D01*
D27*
X140165000Y-71450000D02*
X140950000Y-71450000D01*
D30*
X133225000Y-73725000D02*
X133300000Y-73800000D01*
D31*
X145276693Y-75628039D02*
X146286000Y-76637346D01*
D30*
X133225000Y-72325000D02*
X133225000Y-73725000D01*
D27*
%TO.N,SCL*%
X140165000Y-72950000D02*
X142050000Y-72950000D01*
X143300000Y-75100000D02*
X143300000Y-74700000D01*
X142400000Y-76000000D02*
X143300000Y-75100000D01*
X134125000Y-71525000D02*
X134300000Y-71700000D01*
X142388000Y-73288000D02*
X143300000Y-73288000D01*
X136491552Y-75991552D02*
X136491552Y-76107356D01*
X134300000Y-71700000D02*
X134300000Y-73800000D01*
X142050000Y-72950000D02*
X142388000Y-73288000D01*
X133225000Y-71525000D02*
X134125000Y-71525000D01*
X143300000Y-73288000D02*
X143805000Y-73288000D01*
X143300000Y-74700000D02*
X145186000Y-76586000D01*
X134300000Y-73800000D02*
X136491552Y-75991552D01*
X143300000Y-73288000D02*
X143300000Y-74700000D01*
%TO.N,LIS_INT*%
X139650000Y-75050000D02*
X139650000Y-72965000D01*
D30*
%TO.N,Net-(U5-OSCI)*%
X129475000Y-69925000D02*
X127082800Y-69925000D01*
X127082800Y-69925000D02*
X126900000Y-70107800D01*
%TO.N,Net-(U5-OSCO)*%
X128075000Y-70725000D02*
X127700000Y-71100000D01*
X129475000Y-70725000D02*
X128075000Y-70725000D01*
X127700000Y-71257878D02*
X126665678Y-72292200D01*
X127700000Y-71100000D02*
X127700000Y-71257878D01*
X126665678Y-72292200D02*
X126400000Y-72292200D01*
%TD*%
%TA.AperFunction,Conductor*%
%TO.N,GND*%
G36*
X142522761Y-77958698D02*
G01*
X142533811Y-77985373D01*
X142543132Y-78032233D01*
X142556037Y-78051545D01*
X142587447Y-78098552D01*
X142605297Y-78110479D01*
X142653766Y-78142866D01*
X142653767Y-78142866D01*
X142653768Y-78142867D01*
X142712251Y-78154500D01*
X143030371Y-78154500D01*
X143082697Y-78176174D01*
X143104371Y-78228500D01*
X143094661Y-78260509D01*
X143095922Y-78261032D01*
X143093132Y-78267766D01*
X143081499Y-78326253D01*
X143081499Y-78771998D01*
X143059825Y-78824324D01*
X143056153Y-78825844D01*
X143036000Y-78845998D01*
X143036000Y-79099998D01*
X143290000Y-79099998D01*
X143310153Y-79079844D01*
X143311674Y-79076174D01*
X143364000Y-79054500D01*
X143809745Y-79054500D01*
X143809747Y-79054500D01*
X143868230Y-79042867D01*
X143934551Y-78998552D01*
X143978866Y-78932231D01*
X143990499Y-78873748D01*
X143990499Y-78326252D01*
X143978866Y-78267769D01*
X143978865Y-78267767D01*
X143978865Y-78267766D01*
X143976076Y-78261032D01*
X143978215Y-78260146D01*
X143969049Y-78214063D01*
X144000515Y-78166971D01*
X144041627Y-78154500D01*
X144130372Y-78154500D01*
X144182698Y-78176174D01*
X144204372Y-78228500D01*
X144194662Y-78260509D01*
X144195923Y-78261032D01*
X144193133Y-78267766D01*
X144181500Y-78326253D01*
X144181500Y-78873746D01*
X144193133Y-78932232D01*
X144206038Y-78951545D01*
X144237448Y-78998552D01*
X144281560Y-79028027D01*
X144303767Y-79042866D01*
X144303768Y-79042866D01*
X144303769Y-79042867D01*
X144362252Y-79054500D01*
X144362254Y-79054500D01*
X144909746Y-79054500D01*
X144909748Y-79054500D01*
X144968231Y-79042867D01*
X145034552Y-78998552D01*
X145078867Y-78932231D01*
X145090500Y-78873748D01*
X145090500Y-78326252D01*
X145078867Y-78267769D01*
X145078866Y-78267767D01*
X145078866Y-78267766D01*
X145076077Y-78261032D01*
X145078216Y-78260146D01*
X145069050Y-78214063D01*
X145100516Y-78166971D01*
X145141628Y-78154500D01*
X145230372Y-78154500D01*
X145282698Y-78176174D01*
X145304372Y-78228500D01*
X145294662Y-78260509D01*
X145295923Y-78261032D01*
X145293133Y-78267766D01*
X145281500Y-78326253D01*
X145281500Y-78873746D01*
X145293133Y-78932232D01*
X145306038Y-78951545D01*
X145337448Y-78998552D01*
X145381560Y-79028027D01*
X145403767Y-79042866D01*
X145403768Y-79042866D01*
X145403769Y-79042867D01*
X145462252Y-79054500D01*
X145462254Y-79054500D01*
X146009746Y-79054500D01*
X146009748Y-79054500D01*
X146068231Y-79042867D01*
X146134552Y-78998552D01*
X146178867Y-78932231D01*
X146190500Y-78873748D01*
X146190500Y-78326252D01*
X146178867Y-78267769D01*
X146178866Y-78267767D01*
X146178866Y-78267766D01*
X146176077Y-78261032D01*
X146178216Y-78260146D01*
X146169050Y-78214063D01*
X146200516Y-78166971D01*
X146241628Y-78154500D01*
X146330372Y-78154500D01*
X146382698Y-78176174D01*
X146404372Y-78228500D01*
X146394662Y-78260509D01*
X146395923Y-78261032D01*
X146393133Y-78267766D01*
X146381500Y-78326253D01*
X146381500Y-78873746D01*
X146393133Y-78932232D01*
X146406038Y-78951545D01*
X146437448Y-78998552D01*
X146481560Y-79028027D01*
X146503767Y-79042866D01*
X146503768Y-79042866D01*
X146503769Y-79042867D01*
X146562252Y-79054500D01*
X146562254Y-79054500D01*
X147109746Y-79054500D01*
X147109748Y-79054500D01*
X147168231Y-79042867D01*
X147234552Y-78998552D01*
X147278867Y-78932231D01*
X147290500Y-78873748D01*
X147290500Y-78326252D01*
X147278867Y-78267769D01*
X147278866Y-78267767D01*
X147278866Y-78267766D01*
X147276077Y-78261032D01*
X147278216Y-78260146D01*
X147269050Y-78214063D01*
X147300516Y-78166971D01*
X147341628Y-78154500D01*
X147430373Y-78154500D01*
X147482699Y-78176174D01*
X147504373Y-78228500D01*
X147494663Y-78260509D01*
X147495924Y-78261032D01*
X147493134Y-78267766D01*
X147481501Y-78326253D01*
X147481501Y-78873746D01*
X147493134Y-78932232D01*
X147506039Y-78951545D01*
X147537449Y-78998552D01*
X147581561Y-79028027D01*
X147603768Y-79042866D01*
X147603769Y-79042866D01*
X147603770Y-79042867D01*
X147662253Y-79054500D01*
X147662255Y-79054500D01*
X148209747Y-79054500D01*
X148209749Y-79054500D01*
X148268232Y-79042867D01*
X148334553Y-78998552D01*
X148378868Y-78932231D01*
X148388188Y-78885374D01*
X148419654Y-78838282D01*
X148475202Y-78827233D01*
X148522295Y-78858699D01*
X148533344Y-78885374D01*
X148546506Y-78951545D01*
X148601760Y-79034239D01*
X148601761Y-79034240D01*
X148684455Y-79089494D01*
X148757379Y-79104000D01*
X148786001Y-79104000D01*
X149286001Y-79104000D01*
X149314623Y-79104000D01*
X149387546Y-79089494D01*
X149470240Y-79034240D01*
X149470241Y-79034239D01*
X149524472Y-78953077D01*
X149571564Y-78921611D01*
X149627113Y-78932660D01*
X149647530Y-78953077D01*
X149701760Y-79034239D01*
X149701761Y-79034240D01*
X149784455Y-79089494D01*
X149857379Y-79104000D01*
X149886001Y-79104000D01*
X149886001Y-78850000D01*
X149623055Y-78850000D01*
X149586001Y-78865348D01*
X149548947Y-78850000D01*
X149286001Y-78850000D01*
X149286001Y-79104000D01*
X148786001Y-79104000D01*
X148786001Y-78674000D01*
X148807675Y-78621674D01*
X148860001Y-78600000D01*
X149036001Y-78600000D01*
X149036001Y-78424000D01*
X149057675Y-78371674D01*
X149110001Y-78350000D01*
X149548947Y-78350000D01*
X149586001Y-78334652D01*
X149623055Y-78350000D01*
X150062001Y-78350000D01*
X150114327Y-78371674D01*
X150136001Y-78424000D01*
X150136001Y-78600000D01*
X150312001Y-78600000D01*
X150364327Y-78621674D01*
X150386001Y-78674000D01*
X150386001Y-79104000D01*
X150414623Y-79104000D01*
X150487546Y-79089494D01*
X150570240Y-79034240D01*
X150570241Y-79034239D01*
X150612892Y-78970407D01*
X150659984Y-78938941D01*
X150715533Y-78949990D01*
X150746999Y-78997082D01*
X150748421Y-79011684D01*
X150745207Y-80449999D01*
X150744538Y-80749276D01*
X150737210Y-84028621D01*
X150734372Y-85298373D01*
X150712581Y-85350651D01*
X150660207Y-85372208D01*
X150607929Y-85350417D01*
X150587794Y-85312645D01*
X150578868Y-85267767D01*
X150534553Y-85201446D01*
X150489997Y-85171674D01*
X150468233Y-85157131D01*
X150468234Y-85157131D01*
X150438990Y-85151314D01*
X150409749Y-85145498D01*
X150409747Y-85145498D01*
X150285423Y-85145498D01*
X150233097Y-85123824D01*
X149979661Y-84870388D01*
X149957987Y-84818062D01*
X149964673Y-84787325D01*
X149985165Y-84742457D01*
X150005647Y-84600000D01*
X149985165Y-84457543D01*
X149925377Y-84326627D01*
X149831128Y-84217857D01*
X149723286Y-84148551D01*
X149710054Y-84140047D01*
X149710050Y-84140046D01*
X149571964Y-84099500D01*
X149571961Y-84099500D01*
X149428039Y-84099500D01*
X149428036Y-84099500D01*
X149289949Y-84140046D01*
X149289945Y-84140047D01*
X149168875Y-84217855D01*
X149168868Y-84217860D01*
X149074623Y-84326626D01*
X149014834Y-84457545D01*
X148994353Y-84600000D01*
X149014834Y-84742454D01*
X149014834Y-84742455D01*
X149014835Y-84742457D01*
X149060280Y-84841967D01*
X149074623Y-84873373D01*
X149168868Y-84982139D01*
X149168869Y-84982140D01*
X149168872Y-84982143D01*
X149211044Y-85009245D01*
X149243346Y-85055768D01*
X149233290Y-85111505D01*
X149186767Y-85143807D01*
X149171037Y-85145498D01*
X148762253Y-85145498D01*
X148733011Y-85151314D01*
X148703768Y-85157131D01*
X148637450Y-85201445D01*
X148637448Y-85201447D01*
X148593134Y-85267765D01*
X148581501Y-85326251D01*
X148581501Y-85873744D01*
X148593134Y-85932231D01*
X148595924Y-85938966D01*
X148593784Y-85939851D01*
X148602951Y-85985935D01*
X148571485Y-86033027D01*
X148530373Y-86045498D01*
X148441629Y-86045498D01*
X148389303Y-86023824D01*
X148367629Y-85971498D01*
X148377338Y-85939488D01*
X148376078Y-85938966D01*
X148378867Y-85932231D01*
X148378867Y-85932230D01*
X148378868Y-85932229D01*
X148390501Y-85873746D01*
X148390501Y-85326250D01*
X148378868Y-85267767D01*
X148334553Y-85201446D01*
X148289997Y-85171674D01*
X148268233Y-85157131D01*
X148268234Y-85157131D01*
X148238990Y-85151314D01*
X148209749Y-85145498D01*
X147662253Y-85145498D01*
X147633011Y-85151314D01*
X147603768Y-85157131D01*
X147537450Y-85201445D01*
X147537448Y-85201447D01*
X147493134Y-85267765D01*
X147481501Y-85326251D01*
X147481501Y-85873744D01*
X147493134Y-85932231D01*
X147495924Y-85938966D01*
X147493784Y-85939851D01*
X147502951Y-85985935D01*
X147471485Y-86033027D01*
X147430373Y-86045498D01*
X147341628Y-86045498D01*
X147289302Y-86023824D01*
X147267628Y-85971498D01*
X147277337Y-85939488D01*
X147276077Y-85938966D01*
X147278866Y-85932231D01*
X147278866Y-85932230D01*
X147278867Y-85932229D01*
X147290500Y-85873746D01*
X147290500Y-85326250D01*
X147278867Y-85267767D01*
X147234552Y-85201446D01*
X147189996Y-85171674D01*
X147168232Y-85157131D01*
X147168233Y-85157131D01*
X147138989Y-85151314D01*
X147109748Y-85145498D01*
X146562252Y-85145498D01*
X146533010Y-85151314D01*
X146503767Y-85157131D01*
X146437449Y-85201445D01*
X146437447Y-85201447D01*
X146393133Y-85267765D01*
X146381500Y-85326251D01*
X146381500Y-85873744D01*
X146393133Y-85932231D01*
X146395923Y-85938966D01*
X146393783Y-85939851D01*
X146402950Y-85985935D01*
X146371484Y-86033027D01*
X146330372Y-86045498D01*
X146241628Y-86045498D01*
X146189302Y-86023824D01*
X146167628Y-85971498D01*
X146177337Y-85939488D01*
X146176077Y-85938966D01*
X146178866Y-85932231D01*
X146178866Y-85932230D01*
X146178867Y-85932229D01*
X146190500Y-85873746D01*
X146190500Y-85326250D01*
X146178867Y-85267767D01*
X146134552Y-85201446D01*
X146089996Y-85171674D01*
X146068232Y-85157131D01*
X146068233Y-85157131D01*
X146038989Y-85151314D01*
X146009748Y-85145498D01*
X145462252Y-85145498D01*
X145433010Y-85151314D01*
X145403767Y-85157131D01*
X145337449Y-85201445D01*
X145337447Y-85201447D01*
X145293133Y-85267765D01*
X145281500Y-85326251D01*
X145281500Y-85873744D01*
X145293133Y-85932231D01*
X145295923Y-85938966D01*
X145293783Y-85939851D01*
X145302950Y-85985935D01*
X145271484Y-86033027D01*
X145230372Y-86045498D01*
X145141628Y-86045498D01*
X145089302Y-86023824D01*
X145067628Y-85971498D01*
X145077337Y-85939488D01*
X145076077Y-85938966D01*
X145078866Y-85932231D01*
X145078866Y-85932230D01*
X145078867Y-85932229D01*
X145090500Y-85873746D01*
X145090500Y-85326250D01*
X145078867Y-85267767D01*
X145034552Y-85201446D01*
X144989996Y-85171674D01*
X144968232Y-85157131D01*
X144968233Y-85157131D01*
X144938989Y-85151314D01*
X144909748Y-85145498D01*
X144362252Y-85145498D01*
X144333010Y-85151314D01*
X144303767Y-85157131D01*
X144237449Y-85201445D01*
X144237447Y-85201447D01*
X144193133Y-85267765D01*
X144181500Y-85326251D01*
X144181500Y-85873744D01*
X144193133Y-85932231D01*
X144195923Y-85938966D01*
X144193783Y-85939851D01*
X144202950Y-85985935D01*
X144171484Y-86033027D01*
X144130372Y-86045498D01*
X144041627Y-86045498D01*
X143989301Y-86023824D01*
X143967627Y-85971498D01*
X143977336Y-85939488D01*
X143976076Y-85938966D01*
X143978865Y-85932231D01*
X143978865Y-85932230D01*
X143978866Y-85932229D01*
X143990499Y-85873746D01*
X143990499Y-85326250D01*
X143978866Y-85267767D01*
X143934551Y-85201446D01*
X143889995Y-85171674D01*
X143868231Y-85157131D01*
X143868232Y-85157131D01*
X143838988Y-85151314D01*
X143809747Y-85145498D01*
X143314500Y-85145498D01*
X143262174Y-85123824D01*
X143240500Y-85071498D01*
X143240500Y-84576253D01*
X143240002Y-84573748D01*
X143228867Y-84517769D01*
X143184552Y-84451448D01*
X143162343Y-84436608D01*
X143118232Y-84407133D01*
X143118233Y-84407133D01*
X143088989Y-84401316D01*
X143059748Y-84395500D01*
X142512252Y-84395500D01*
X142488858Y-84400153D01*
X142453766Y-84407133D01*
X142447032Y-84409923D01*
X142446146Y-84407783D01*
X142400063Y-84416950D01*
X142352971Y-84385484D01*
X142340500Y-84344372D01*
X142340500Y-84255626D01*
X142362174Y-84203300D01*
X142414500Y-84181626D01*
X142446509Y-84191338D01*
X142447032Y-84190076D01*
X142453766Y-84192865D01*
X142453768Y-84192865D01*
X142453769Y-84192866D01*
X142512252Y-84204499D01*
X142512254Y-84204499D01*
X143059746Y-84204499D01*
X143059748Y-84204499D01*
X143118231Y-84192866D01*
X143184552Y-84148551D01*
X143228867Y-84082230D01*
X143239531Y-84028621D01*
X150182001Y-84028621D01*
X150196506Y-84101544D01*
X150251760Y-84184238D01*
X150251761Y-84184239D01*
X150334455Y-84239493D01*
X150407379Y-84253999D01*
X150436001Y-84253999D01*
X150436001Y-83999999D01*
X150182001Y-83999999D01*
X150182001Y-84028621D01*
X143239531Y-84028621D01*
X143240500Y-84023747D01*
X143240500Y-83476251D01*
X143239530Y-83471376D01*
X150182001Y-83471376D01*
X150182001Y-83499999D01*
X150436001Y-83499999D01*
X150436001Y-83245999D01*
X150407379Y-83245999D01*
X150334455Y-83260504D01*
X150251761Y-83315758D01*
X150251760Y-83315759D01*
X150196506Y-83398453D01*
X150182001Y-83471376D01*
X143239530Y-83471376D01*
X143228867Y-83417768D01*
X143184552Y-83351447D01*
X143162343Y-83336607D01*
X143118232Y-83307132D01*
X143118233Y-83307132D01*
X143088989Y-83301315D01*
X143059748Y-83295499D01*
X142512252Y-83295499D01*
X142488858Y-83300152D01*
X142453766Y-83307132D01*
X142447032Y-83309922D01*
X142446146Y-83307782D01*
X142400063Y-83316949D01*
X142352971Y-83285483D01*
X142340500Y-83244371D01*
X142340500Y-83155626D01*
X142362174Y-83103300D01*
X142414500Y-83081626D01*
X142446509Y-83091338D01*
X142447032Y-83090076D01*
X142453766Y-83092865D01*
X142453768Y-83092865D01*
X142453769Y-83092866D01*
X142512252Y-83104499D01*
X142512254Y-83104499D01*
X143059746Y-83104499D01*
X143059748Y-83104499D01*
X143118231Y-83092866D01*
X143184552Y-83048551D01*
X143228867Y-82982230D01*
X143240500Y-82923747D01*
X143240500Y-82376251D01*
X143228867Y-82317768D01*
X143184552Y-82251447D01*
X143162343Y-82236607D01*
X143118232Y-82207132D01*
X143118233Y-82207132D01*
X143088989Y-82201315D01*
X143059748Y-82195499D01*
X142512252Y-82195499D01*
X142488858Y-82200152D01*
X142453766Y-82207132D01*
X142447032Y-82209922D01*
X142446146Y-82207782D01*
X142400063Y-82216949D01*
X142352971Y-82185483D01*
X142340500Y-82144371D01*
X142340500Y-82055626D01*
X142362174Y-82003300D01*
X142414500Y-81981626D01*
X142446509Y-81991338D01*
X142447032Y-81990076D01*
X142453766Y-81992865D01*
X142453768Y-81992865D01*
X142453769Y-81992866D01*
X142512252Y-82004499D01*
X142512254Y-82004499D01*
X143059746Y-82004499D01*
X143059748Y-82004499D01*
X143118231Y-81992866D01*
X143184552Y-81948551D01*
X143228867Y-81882230D01*
X143240500Y-81823747D01*
X143240500Y-81276251D01*
X143228867Y-81217768D01*
X143184552Y-81151447D01*
X143162343Y-81136607D01*
X143118232Y-81107132D01*
X143118233Y-81107132D01*
X143087886Y-81101096D01*
X143059748Y-81095499D01*
X142512252Y-81095499D01*
X142488858Y-81100152D01*
X142453766Y-81107132D01*
X142447032Y-81109922D01*
X142446146Y-81107782D01*
X142400063Y-81116949D01*
X142352971Y-81085483D01*
X142340500Y-81044371D01*
X142340500Y-80955625D01*
X142362174Y-80903299D01*
X142414500Y-80881625D01*
X142446509Y-80891337D01*
X142447032Y-80890075D01*
X142453766Y-80892864D01*
X142453768Y-80892864D01*
X142453769Y-80892865D01*
X142512252Y-80904498D01*
X142512254Y-80904498D01*
X143059746Y-80904498D01*
X143059748Y-80904498D01*
X143118231Y-80892865D01*
X143184552Y-80848550D01*
X143228867Y-80782229D01*
X143239530Y-80728621D01*
X150182001Y-80728621D01*
X150196506Y-80801544D01*
X150251760Y-80884238D01*
X150251761Y-80884239D01*
X150334455Y-80939493D01*
X150407379Y-80953999D01*
X150436001Y-80953999D01*
X150436001Y-80699999D01*
X150182001Y-80699999D01*
X150182001Y-80728621D01*
X143239530Y-80728621D01*
X143240500Y-80723746D01*
X143240500Y-80176250D01*
X143239531Y-80171376D01*
X150182001Y-80171376D01*
X150182001Y-80199999D01*
X150436001Y-80199999D01*
X150436001Y-79945999D01*
X150407379Y-79945999D01*
X150334455Y-79960504D01*
X150251761Y-80015758D01*
X150251760Y-80015759D01*
X150196506Y-80098453D01*
X150182001Y-80171376D01*
X143239531Y-80171376D01*
X143228867Y-80117767D01*
X143184552Y-80051446D01*
X143131144Y-80015759D01*
X143118232Y-80007131D01*
X143118233Y-80007131D01*
X143071373Y-79997810D01*
X143024282Y-79966343D01*
X143013233Y-79910794D01*
X143044700Y-79863703D01*
X143071375Y-79852654D01*
X143137544Y-79839492D01*
X143220239Y-79784238D01*
X143220240Y-79784237D01*
X143275494Y-79701543D01*
X143290000Y-79628620D01*
X143290000Y-79599998D01*
X142389957Y-79599998D01*
X142337631Y-79578324D01*
X142328429Y-79567111D01*
X142313854Y-79545299D01*
X142284552Y-79501446D01*
X142262343Y-79486606D01*
X142218232Y-79457131D01*
X142218233Y-79457131D01*
X142188989Y-79451314D01*
X142159748Y-79445498D01*
X141612252Y-79445498D01*
X141583010Y-79451314D01*
X141553767Y-79457131D01*
X141487449Y-79501445D01*
X141487447Y-79501447D01*
X141443133Y-79567765D01*
X141443133Y-79567767D01*
X141431500Y-79626250D01*
X141431500Y-80173746D01*
X141436722Y-80199999D01*
X141443133Y-80232230D01*
X141472608Y-80276341D01*
X141487448Y-80298550D01*
X141531560Y-80328025D01*
X141553767Y-80342864D01*
X141553768Y-80342864D01*
X141553769Y-80342865D01*
X141612252Y-80354498D01*
X141612254Y-80354498D01*
X142159746Y-80354498D01*
X142159748Y-80354498D01*
X142218231Y-80342865D01*
X142218232Y-80342864D01*
X142218233Y-80342864D01*
X142224968Y-80340075D01*
X142225854Y-80342216D01*
X142271925Y-80333045D01*
X142319022Y-80364503D01*
X142331500Y-80405625D01*
X142331500Y-80494371D01*
X142309826Y-80546697D01*
X142257500Y-80568371D01*
X142225490Y-80558661D01*
X142224968Y-80559922D01*
X142218233Y-80557132D01*
X142188989Y-80551315D01*
X142159748Y-80545499D01*
X141612252Y-80545499D01*
X141583010Y-80551315D01*
X141553767Y-80557132D01*
X141487449Y-80601446D01*
X141487447Y-80601448D01*
X141443133Y-80667766D01*
X141443133Y-80667768D01*
X141431500Y-80726251D01*
X141431500Y-81273747D01*
X141439255Y-81312735D01*
X141443133Y-81332231D01*
X141472608Y-81376342D01*
X141487448Y-81398551D01*
X141531560Y-81428026D01*
X141553767Y-81442865D01*
X141553768Y-81442865D01*
X141553769Y-81442866D01*
X141612252Y-81454499D01*
X141612254Y-81454499D01*
X142159746Y-81454499D01*
X142159748Y-81454499D01*
X142218231Y-81442866D01*
X142218232Y-81442865D01*
X142218233Y-81442865D01*
X142224968Y-81440076D01*
X142225854Y-81442217D01*
X142271925Y-81433046D01*
X142319022Y-81464504D01*
X142331500Y-81505626D01*
X142331500Y-81594371D01*
X142309826Y-81646697D01*
X142257500Y-81668371D01*
X142225490Y-81658661D01*
X142224968Y-81659922D01*
X142218233Y-81657132D01*
X142188989Y-81651315D01*
X142159748Y-81645499D01*
X141612252Y-81645499D01*
X141583010Y-81651315D01*
X141553767Y-81657132D01*
X141487449Y-81701446D01*
X141487447Y-81701448D01*
X141443133Y-81767766D01*
X141443133Y-81767768D01*
X141431500Y-81826251D01*
X141431500Y-82373747D01*
X141439255Y-82412735D01*
X141443133Y-82432231D01*
X141467579Y-82468816D01*
X141487448Y-82498551D01*
X141531560Y-82528026D01*
X141553767Y-82542865D01*
X141553768Y-82542865D01*
X141553769Y-82542866D01*
X141612252Y-82554499D01*
X141612254Y-82554499D01*
X142159746Y-82554499D01*
X142159748Y-82554499D01*
X142218231Y-82542866D01*
X142218232Y-82542865D01*
X142218233Y-82542865D01*
X142224968Y-82540076D01*
X142225854Y-82542217D01*
X142271925Y-82533046D01*
X142319022Y-82564504D01*
X142331500Y-82605626D01*
X142331500Y-82694371D01*
X142309826Y-82746697D01*
X142257500Y-82768371D01*
X142225490Y-82758661D01*
X142224968Y-82759922D01*
X142218233Y-82757132D01*
X142188989Y-82751315D01*
X142159748Y-82745499D01*
X141612252Y-82745499D01*
X141583010Y-82751315D01*
X141553767Y-82757132D01*
X141487449Y-82801446D01*
X141487447Y-82801448D01*
X141443133Y-82867766D01*
X141443133Y-82867768D01*
X141431500Y-82926251D01*
X141431500Y-83473747D01*
X141436722Y-83499999D01*
X141443133Y-83532231D01*
X141472608Y-83576342D01*
X141487448Y-83598551D01*
X141531560Y-83628026D01*
X141553767Y-83642865D01*
X141553768Y-83642865D01*
X141553769Y-83642866D01*
X141612252Y-83654499D01*
X141612254Y-83654499D01*
X142159746Y-83654499D01*
X142159748Y-83654499D01*
X142218231Y-83642866D01*
X142218232Y-83642865D01*
X142218233Y-83642865D01*
X142224968Y-83640076D01*
X142225854Y-83642217D01*
X142271925Y-83633046D01*
X142319022Y-83664504D01*
X142331500Y-83705626D01*
X142331500Y-83794372D01*
X142309826Y-83846698D01*
X142257500Y-83868372D01*
X142225490Y-83858662D01*
X142224968Y-83859923D01*
X142218233Y-83857133D01*
X142188989Y-83851316D01*
X142159748Y-83845500D01*
X141612252Y-83845500D01*
X141583010Y-83851316D01*
X141553767Y-83857133D01*
X141487449Y-83901447D01*
X141487447Y-83901449D01*
X141443133Y-83967767D01*
X141443133Y-83967769D01*
X141431500Y-84026252D01*
X141431500Y-84573748D01*
X141436722Y-84600000D01*
X141443133Y-84632232D01*
X141472608Y-84676343D01*
X141487448Y-84698552D01*
X141519098Y-84719700D01*
X141553767Y-84742866D01*
X141553769Y-84742867D01*
X141600625Y-84752187D01*
X141647717Y-84783653D01*
X141658766Y-84839202D01*
X141627300Y-84886294D01*
X141600625Y-84897343D01*
X141534454Y-84910505D01*
X141451760Y-84965759D01*
X141451759Y-84965760D01*
X141396505Y-85048454D01*
X141382000Y-85121377D01*
X141382000Y-85150000D01*
X142282043Y-85150000D01*
X142334369Y-85171674D01*
X142343571Y-85182887D01*
X142355972Y-85201446D01*
X142387448Y-85248552D01*
X142416202Y-85267765D01*
X142453767Y-85292866D01*
X142453768Y-85292866D01*
X142453769Y-85292867D01*
X142512252Y-85304500D01*
X142512254Y-85304500D01*
X143007499Y-85304500D01*
X143059825Y-85326174D01*
X143081499Y-85378500D01*
X143081499Y-85873744D01*
X143093132Y-85932231D01*
X143095922Y-85938966D01*
X143093782Y-85939851D01*
X143102949Y-85985935D01*
X143071483Y-86033027D01*
X143030371Y-86045498D01*
X142712251Y-86045498D01*
X142683009Y-86051314D01*
X142653766Y-86057131D01*
X142587448Y-86101445D01*
X142587446Y-86101447D01*
X142543132Y-86167765D01*
X142533811Y-86214624D01*
X142502344Y-86261715D01*
X142446795Y-86272764D01*
X142399704Y-86241297D01*
X142388655Y-86214622D01*
X142375493Y-86148453D01*
X142320239Y-86065758D01*
X142320238Y-86065757D01*
X142239078Y-86011528D01*
X142207612Y-85964436D01*
X142218661Y-85908887D01*
X142239078Y-85888470D01*
X142320239Y-85834240D01*
X142320240Y-85834239D01*
X142375494Y-85751545D01*
X142390000Y-85678622D01*
X142390000Y-85650000D01*
X142136000Y-85650000D01*
X142136000Y-85912949D01*
X142151346Y-85949998D01*
X142135999Y-85987051D01*
X142135999Y-87003998D01*
X142164621Y-87003998D01*
X142237544Y-86989492D01*
X142320238Y-86934238D01*
X142320239Y-86934237D01*
X142375493Y-86851542D01*
X142388655Y-86785373D01*
X142420120Y-86738281D01*
X142475669Y-86727231D01*
X142522761Y-86758696D01*
X142533811Y-86785371D01*
X142543132Y-86832231D01*
X142556037Y-86851543D01*
X142587447Y-86898550D01*
X142640857Y-86934238D01*
X142659829Y-86946915D01*
X142658354Y-86949122D01*
X142690964Y-86981727D01*
X142696599Y-87010051D01*
X142696599Y-87024101D01*
X142716319Y-87097699D01*
X142716321Y-87097704D01*
X142754419Y-87163691D01*
X142754420Y-87163692D01*
X142754422Y-87163695D01*
X143288926Y-87698199D01*
X143310600Y-87750524D01*
X143310600Y-87926714D01*
X143288926Y-87979040D01*
X143236600Y-88000714D01*
X143195488Y-87988243D01*
X143122545Y-87939505D01*
X143049622Y-87925000D01*
X142850000Y-87925000D01*
X142850000Y-88526000D01*
X142844973Y-88538135D01*
X142811940Y-88458386D01*
X142741614Y-88388060D01*
X142649728Y-88350000D01*
X142550272Y-88350000D01*
X142458386Y-88388060D01*
X142388060Y-88458386D01*
X142350000Y-88550272D01*
X142350000Y-88649728D01*
X142388060Y-88741614D01*
X142458386Y-88811940D01*
X142538135Y-88844973D01*
X142526000Y-88850000D01*
X141925000Y-88850000D01*
X141925000Y-89049622D01*
X141939505Y-89122546D01*
X141955436Y-89146389D01*
X141966485Y-89201938D01*
X141935018Y-89249029D01*
X141893907Y-89261500D01*
X137851426Y-89261500D01*
X137799100Y-89239826D01*
X137777426Y-89187500D01*
X137784111Y-89156764D01*
X137785165Y-89154457D01*
X137805647Y-89012000D01*
X137785165Y-88869543D01*
X137725377Y-88738627D01*
X137631128Y-88629857D01*
X137550944Y-88578326D01*
X137510054Y-88552047D01*
X137510050Y-88552046D01*
X137371964Y-88511500D01*
X137371961Y-88511500D01*
X137238659Y-88511500D01*
X137186333Y-88489826D01*
X137039274Y-88342767D01*
X137017600Y-88290441D01*
X137017600Y-88150377D01*
X141925000Y-88150377D01*
X141925000Y-88350000D01*
X142350000Y-88350000D01*
X142350000Y-87925000D01*
X142150378Y-87925000D01*
X142077454Y-87939505D01*
X141994760Y-87994759D01*
X141994759Y-87994760D01*
X141939505Y-88077454D01*
X141925000Y-88150377D01*
X137017600Y-88150377D01*
X137017600Y-87984700D01*
X137039274Y-87932374D01*
X137091600Y-87910700D01*
X137117946Y-87910700D01*
X137117948Y-87910700D01*
X137176431Y-87899067D01*
X137242752Y-87854752D01*
X137287067Y-87788431D01*
X137290622Y-87770557D01*
X137322087Y-87723466D01*
X137377636Y-87712416D01*
X137424728Y-87743881D01*
X137435778Y-87770558D01*
X137439333Y-87788432D01*
X137467917Y-87831209D01*
X137483648Y-87854752D01*
X137514508Y-87875372D01*
X137549967Y-87899066D01*
X137549968Y-87899066D01*
X137549969Y-87899067D01*
X137608452Y-87910700D01*
X137608454Y-87910700D01*
X138387946Y-87910700D01*
X138387948Y-87910700D01*
X138446431Y-87899067D01*
X138512752Y-87854752D01*
X138557067Y-87788431D01*
X138568700Y-87729948D01*
X138568700Y-87473625D01*
X138590374Y-87421299D01*
X138642700Y-87399625D01*
X138695025Y-87421298D01*
X138881304Y-87607578D01*
X138947296Y-87645678D01*
X139020897Y-87665399D01*
X139020898Y-87665400D01*
X139020900Y-87665400D01*
X139020901Y-87665400D01*
X139097100Y-87665400D01*
X139229314Y-87665400D01*
X139281640Y-87687074D01*
X139285239Y-87690940D01*
X139343467Y-87758139D01*
X139343471Y-87758142D01*
X139343472Y-87758143D01*
X139464547Y-87835953D01*
X139567458Y-87866170D01*
X139602635Y-87876499D01*
X139602637Y-87876500D01*
X139602639Y-87876500D01*
X139746563Y-87876500D01*
X139746564Y-87876499D01*
X139884653Y-87835953D01*
X140005728Y-87758143D01*
X140099977Y-87649373D01*
X140159765Y-87518457D01*
X140180247Y-87376000D01*
X140159765Y-87233543D01*
X140099977Y-87102627D01*
X140063959Y-87061060D01*
X140005731Y-86993860D01*
X140005729Y-86993859D01*
X140005728Y-86993857D01*
X139926383Y-86942865D01*
X139884654Y-86916047D01*
X139884650Y-86916046D01*
X139746564Y-86875500D01*
X139746561Y-86875500D01*
X139602639Y-86875500D01*
X139602636Y-86875500D01*
X139464549Y-86916046D01*
X139464545Y-86916047D01*
X139343471Y-86993857D01*
X139343467Y-86993860D01*
X139285239Y-87061060D01*
X139234593Y-87086411D01*
X139229314Y-87086600D01*
X139209526Y-87086600D01*
X139157200Y-87064926D01*
X138870894Y-86778620D01*
X141381999Y-86778620D01*
X141396504Y-86851543D01*
X141451758Y-86934237D01*
X141451759Y-86934238D01*
X141534453Y-86989492D01*
X141607377Y-87003998D01*
X141635999Y-87003998D01*
X141635999Y-86749998D01*
X141381999Y-86749998D01*
X141381999Y-86778620D01*
X138870894Y-86778620D01*
X138590374Y-86498100D01*
X138568700Y-86445774D01*
X138568700Y-86221375D01*
X141381999Y-86221375D01*
X141381999Y-86249998D01*
X141635999Y-86249998D01*
X141635999Y-85987050D01*
X141620652Y-85949999D01*
X141636000Y-85912945D01*
X141636000Y-85650000D01*
X141382000Y-85650000D01*
X141382000Y-85678622D01*
X141396505Y-85751545D01*
X141451759Y-85834239D01*
X141451760Y-85834240D01*
X141532920Y-85888469D01*
X141564386Y-85935561D01*
X141553337Y-85991110D01*
X141532921Y-86011526D01*
X141451760Y-86065756D01*
X141451758Y-86065758D01*
X141396504Y-86148452D01*
X141381999Y-86221375D01*
X138568700Y-86221375D01*
X138568700Y-84900453D01*
X138568700Y-84900452D01*
X138557067Y-84841969D01*
X138512752Y-84775648D01*
X138485664Y-84757548D01*
X138446432Y-84731333D01*
X138446433Y-84731333D01*
X138417189Y-84725516D01*
X138387948Y-84719700D01*
X137608452Y-84719700D01*
X137579210Y-84725516D01*
X137549967Y-84731333D01*
X137483649Y-84775647D01*
X137483647Y-84775649D01*
X137439333Y-84841967D01*
X137435778Y-84859842D01*
X137404312Y-84906934D01*
X137348763Y-84917983D01*
X137301671Y-84886517D01*
X137290622Y-84859842D01*
X137287067Y-84841969D01*
X137242752Y-84775648D01*
X137215664Y-84757548D01*
X137176432Y-84731333D01*
X137176433Y-84731333D01*
X137147189Y-84725516D01*
X137117948Y-84719700D01*
X136338452Y-84719700D01*
X136309210Y-84725516D01*
X136279967Y-84731333D01*
X136213649Y-84775647D01*
X136213647Y-84775649D01*
X136169333Y-84841967D01*
X136165778Y-84859842D01*
X136134312Y-84906934D01*
X136078763Y-84917983D01*
X136031671Y-84886517D01*
X136020622Y-84859842D01*
X136017067Y-84841969D01*
X135972752Y-84775648D01*
X135945664Y-84757548D01*
X135906432Y-84731333D01*
X135906433Y-84731333D01*
X135877189Y-84725516D01*
X135847948Y-84719700D01*
X135068452Y-84719700D01*
X135039210Y-84725516D01*
X135009967Y-84731333D01*
X134943649Y-84775647D01*
X134943647Y-84775649D01*
X134899333Y-84841967D01*
X134895778Y-84859842D01*
X134864312Y-84906934D01*
X134808763Y-84917983D01*
X134761671Y-84886517D01*
X134750622Y-84859842D01*
X134747067Y-84841969D01*
X134702752Y-84775648D01*
X134675664Y-84757548D01*
X134636432Y-84731333D01*
X134636433Y-84731333D01*
X134607189Y-84725516D01*
X134577948Y-84719700D01*
X133798452Y-84719700D01*
X133769210Y-84725516D01*
X133739967Y-84731333D01*
X133673649Y-84775647D01*
X133673647Y-84775649D01*
X133629333Y-84841967D01*
X133625778Y-84859842D01*
X133594312Y-84906934D01*
X133538763Y-84917983D01*
X133491671Y-84886517D01*
X133480622Y-84859842D01*
X133477067Y-84841969D01*
X133432752Y-84775648D01*
X133405664Y-84757548D01*
X133366432Y-84731333D01*
X133366433Y-84731333D01*
X133337189Y-84725516D01*
X133307948Y-84719700D01*
X132528452Y-84719700D01*
X132499210Y-84725516D01*
X132469967Y-84731333D01*
X132403649Y-84775647D01*
X132403647Y-84775649D01*
X132359333Y-84841967D01*
X132359333Y-84841969D01*
X132347700Y-84900452D01*
X132347700Y-87729948D01*
X132351793Y-87750524D01*
X132359333Y-87788432D01*
X132387917Y-87831209D01*
X132403648Y-87854752D01*
X132434508Y-87875372D01*
X132469967Y-87899066D01*
X132469968Y-87899066D01*
X132469969Y-87899067D01*
X132528452Y-87910700D01*
X132678775Y-87910700D01*
X132731101Y-87932374D01*
X134311700Y-89512974D01*
X134333374Y-89565300D01*
X134311700Y-89617626D01*
X134259374Y-89639300D01*
X122194500Y-89639300D01*
X122142174Y-89617626D01*
X122120500Y-89565300D01*
X122120500Y-84319376D01*
X123973900Y-84319376D01*
X123973900Y-84539823D01*
X124008384Y-84757548D01*
X124008387Y-84757561D01*
X124076503Y-84967202D01*
X124076504Y-84967205D01*
X124076505Y-84967206D01*
X124169644Y-85150000D01*
X124176586Y-85163623D01*
X124176586Y-85163624D01*
X124204066Y-85201447D01*
X124306158Y-85341965D01*
X124462035Y-85497842D01*
X124640378Y-85627415D01*
X124836794Y-85727495D01*
X124836797Y-85727496D01*
X124836796Y-85727496D01*
X125046438Y-85795612D01*
X125046444Y-85795613D01*
X125046449Y-85795615D01*
X125155313Y-85812857D01*
X125264176Y-85830100D01*
X125264178Y-85830100D01*
X125484624Y-85830100D01*
X125571713Y-85816306D01*
X125702351Y-85795615D01*
X125702358Y-85795612D01*
X125702361Y-85795612D01*
X125797533Y-85764688D01*
X125912006Y-85727495D01*
X126108422Y-85627415D01*
X126286765Y-85497842D01*
X126442642Y-85341965D01*
X126572215Y-85163622D01*
X126672295Y-84967206D01*
X126734535Y-84775648D01*
X126740412Y-84757561D01*
X126740412Y-84757558D01*
X126740415Y-84757551D01*
X126774900Y-84539822D01*
X126774900Y-84319378D01*
X126762247Y-84239493D01*
X126754620Y-84191338D01*
X126740415Y-84101649D01*
X126740413Y-84101644D01*
X126740412Y-84101638D01*
X126672296Y-83891997D01*
X126672295Y-83891996D01*
X126672295Y-83891994D01*
X126572215Y-83695578D01*
X126442642Y-83517235D01*
X126286765Y-83361358D01*
X126127986Y-83245999D01*
X126108424Y-83231786D01*
X125912002Y-83131703D01*
X125912003Y-83131703D01*
X125702361Y-83063587D01*
X125702348Y-83063584D01*
X125484624Y-83029100D01*
X125484622Y-83029100D01*
X125264178Y-83029100D01*
X125264176Y-83029100D01*
X125046451Y-83063584D01*
X125046438Y-83063587D01*
X124836797Y-83131703D01*
X124640376Y-83231786D01*
X124640375Y-83231786D01*
X124475678Y-83351446D01*
X124462035Y-83361358D01*
X124306158Y-83517235D01*
X124306155Y-83517238D01*
X124306155Y-83517239D01*
X124176586Y-83695575D01*
X124176586Y-83695576D01*
X124076503Y-83891997D01*
X124008387Y-84101638D01*
X124008384Y-84101651D01*
X123973900Y-84319376D01*
X122120500Y-84319376D01*
X122120500Y-82666552D01*
X122142174Y-82614226D01*
X122194500Y-82592552D01*
X122204114Y-82593179D01*
X122217460Y-82594928D01*
X122248603Y-82599011D01*
X122248606Y-82599011D01*
X122248614Y-82599012D01*
X132272778Y-82473835D01*
X132325368Y-82494854D01*
X132347694Y-82546905D01*
X132347700Y-82547829D01*
X132347700Y-83659948D01*
X132354787Y-83695575D01*
X132359333Y-83718432D01*
X132380426Y-83749999D01*
X132403648Y-83784752D01*
X132447760Y-83814227D01*
X132469967Y-83829066D01*
X132469968Y-83829066D01*
X132469969Y-83829067D01*
X132528452Y-83840700D01*
X132528454Y-83840700D01*
X133307946Y-83840700D01*
X133307948Y-83840700D01*
X133366431Y-83829067D01*
X133432752Y-83784752D01*
X133477067Y-83718431D01*
X133480622Y-83700557D01*
X133512087Y-83653466D01*
X133567636Y-83642416D01*
X133614728Y-83673881D01*
X133625778Y-83700558D01*
X133629333Y-83718432D01*
X133650426Y-83749999D01*
X133673648Y-83784752D01*
X133717760Y-83814227D01*
X133739967Y-83829066D01*
X133739968Y-83829066D01*
X133739969Y-83829067D01*
X133798452Y-83840700D01*
X133798454Y-83840700D01*
X134577946Y-83840700D01*
X134577948Y-83840700D01*
X134636431Y-83829067D01*
X134702752Y-83784752D01*
X134731905Y-83741121D01*
X134778997Y-83709657D01*
X134834546Y-83720707D01*
X134854962Y-83741123D01*
X134907959Y-83820439D01*
X134907960Y-83820440D01*
X134990654Y-83875694D01*
X135063578Y-83890200D01*
X135208200Y-83890200D01*
X135708200Y-83890200D01*
X135852822Y-83890200D01*
X135925745Y-83875694D01*
X136008439Y-83820440D01*
X136008440Y-83820439D01*
X136031671Y-83785672D01*
X136078763Y-83754206D01*
X136134312Y-83765255D01*
X136154729Y-83785672D01*
X136177959Y-83820439D01*
X136177960Y-83820440D01*
X136260654Y-83875694D01*
X136333578Y-83890200D01*
X136478200Y-83890200D01*
X136478200Y-82495200D01*
X135708200Y-82495200D01*
X135708200Y-83890200D01*
X135208200Y-83890200D01*
X135208200Y-81995200D01*
X135708200Y-81995200D01*
X136478200Y-81995200D01*
X136478200Y-80600200D01*
X136333578Y-80600200D01*
X136260654Y-80614705D01*
X136177960Y-80669959D01*
X136177959Y-80669960D01*
X136154729Y-80704727D01*
X136107636Y-80736193D01*
X136052088Y-80725144D01*
X136031671Y-80704727D01*
X136008440Y-80669960D01*
X136008439Y-80669959D01*
X135925745Y-80614705D01*
X135852822Y-80600200D01*
X135708200Y-80600200D01*
X135708200Y-81995200D01*
X135208200Y-81995200D01*
X135208200Y-80600200D01*
X135063578Y-80600200D01*
X134990654Y-80614705D01*
X134907960Y-80669959D01*
X134907959Y-80669960D01*
X134854962Y-80749276D01*
X134807869Y-80780742D01*
X134752321Y-80769693D01*
X134731905Y-80749278D01*
X134731904Y-80749276D01*
X134702752Y-80705648D01*
X134680543Y-80690808D01*
X134636432Y-80661333D01*
X134636433Y-80661333D01*
X134607189Y-80655516D01*
X134577948Y-80649700D01*
X134577946Y-80649700D01*
X134147500Y-80649700D01*
X134095174Y-80628026D01*
X134073500Y-80575700D01*
X134073500Y-78628500D01*
X134095174Y-78576174D01*
X134147500Y-78554500D01*
X136061400Y-78554500D01*
X136113726Y-78576174D01*
X136135400Y-78628500D01*
X136135400Y-78830108D01*
X136113726Y-78882434D01*
X136093902Y-78896588D01*
X136051027Y-78917549D01*
X136051026Y-78917550D01*
X135965951Y-79002624D01*
X135913109Y-79110713D01*
X135902900Y-79180780D01*
X135902900Y-79569214D01*
X135913107Y-79639280D01*
X135913108Y-79639284D01*
X135913109Y-79639286D01*
X135965951Y-79747375D01*
X136051025Y-79832449D01*
X136159114Y-79885291D01*
X136229185Y-79895500D01*
X136692614Y-79895499D01*
X136762680Y-79885292D01*
X136762681Y-79885291D01*
X136762686Y-79885291D01*
X136870775Y-79832449D01*
X136955849Y-79747375D01*
X136991920Y-79673590D01*
X137034372Y-79636103D01*
X137090901Y-79639612D01*
X137124879Y-79673590D01*
X137160951Y-79747375D01*
X137246025Y-79832449D01*
X137354114Y-79885291D01*
X137424185Y-79895500D01*
X137442397Y-79895499D01*
X137494723Y-79917171D01*
X137516400Y-79969495D01*
X137516400Y-80644209D01*
X137494726Y-80696535D01*
X137483757Y-80705538D01*
X137483648Y-80705646D01*
X137454493Y-80749278D01*
X137407400Y-80780743D01*
X137351852Y-80769691D01*
X137331437Y-80749276D01*
X137278440Y-80669960D01*
X137278439Y-80669959D01*
X137195745Y-80614705D01*
X137122822Y-80600200D01*
X136978200Y-80600200D01*
X136978200Y-83890200D01*
X137122822Y-83890200D01*
X137195745Y-83875694D01*
X137278439Y-83820440D01*
X137278440Y-83820439D01*
X137331437Y-83741123D01*
X137378529Y-83709657D01*
X137434078Y-83720706D01*
X137454494Y-83741121D01*
X137460426Y-83749999D01*
X137483648Y-83784752D01*
X137527760Y-83814227D01*
X137549967Y-83829066D01*
X137549968Y-83829066D01*
X137549969Y-83829067D01*
X137608452Y-83840700D01*
X137608454Y-83840700D01*
X138387946Y-83840700D01*
X138387948Y-83840700D01*
X138446431Y-83829067D01*
X138512752Y-83784752D01*
X138557067Y-83718431D01*
X138568700Y-83659948D01*
X138568700Y-80830452D01*
X138557067Y-80771969D01*
X138555546Y-80769693D01*
X138526519Y-80726252D01*
X138512752Y-80705648D01*
X138458287Y-80669255D01*
X138426822Y-80622163D01*
X138425400Y-80607727D01*
X138425400Y-79315165D01*
X138409145Y-79254499D01*
X138394427Y-79199569D01*
X138334591Y-79095930D01*
X138249970Y-79011309D01*
X138179126Y-78970407D01*
X138146335Y-78951475D01*
X138146326Y-78951471D01*
X138101780Y-78939535D01*
X138068607Y-78920383D01*
X138065775Y-78917551D01*
X137957686Y-78864709D01*
X137916435Y-78858699D01*
X137887615Y-78854500D01*
X137887614Y-78854500D01*
X137424185Y-78854500D01*
X137354119Y-78864707D01*
X137354115Y-78864708D01*
X137246024Y-78917551D01*
X137160950Y-79002625D01*
X137160950Y-79002626D01*
X137124879Y-79076408D01*
X137082426Y-79113897D01*
X137025897Y-79110386D01*
X136991919Y-79076407D01*
X136955849Y-79002625D01*
X136870775Y-78917551D01*
X136870774Y-78917550D01*
X136870772Y-78917549D01*
X136827898Y-78896588D01*
X136790409Y-78854135D01*
X136786400Y-78830108D01*
X136786400Y-78628500D01*
X136808074Y-78576174D01*
X136860400Y-78554500D01*
X139069688Y-78554500D01*
X139122014Y-78576174D01*
X139622318Y-79076478D01*
X139622323Y-79076484D01*
X139624907Y-79079068D01*
X139709528Y-79163689D01*
X139739141Y-79180786D01*
X139813168Y-79223526D01*
X139928762Y-79254499D01*
X139928763Y-79254499D01*
X140052964Y-79254499D01*
X140052980Y-79254498D01*
X142159746Y-79254498D01*
X142159748Y-79254498D01*
X142218231Y-79242865D01*
X142284552Y-79198550D01*
X142328429Y-79132885D01*
X142375521Y-79101420D01*
X142389957Y-79099998D01*
X142536000Y-79099998D01*
X142536000Y-78845998D01*
X142507376Y-78845998D01*
X142428936Y-78861600D01*
X142373387Y-78850550D01*
X142341922Y-78803458D01*
X142340500Y-78789022D01*
X142340500Y-78526251D01*
X142340500Y-78526250D01*
X142328867Y-78467767D01*
X142284552Y-78401446D01*
X142262343Y-78386606D01*
X142218232Y-78357131D01*
X142171378Y-78347811D01*
X142124286Y-78316345D01*
X142113237Y-78260796D01*
X142144703Y-78213704D01*
X142171379Y-78202655D01*
X142237543Y-78189494D01*
X142320238Y-78134240D01*
X142320239Y-78134239D01*
X142375493Y-78051544D01*
X142388655Y-77985375D01*
X142420120Y-77938283D01*
X142475669Y-77927233D01*
X142522761Y-77958698D01*
G37*
%TD.AperFunction*%
%TA.AperFunction,Conductor*%
G36*
X148032699Y-86076172D02*
G01*
X148054373Y-86128498D01*
X148044663Y-86160507D01*
X148045924Y-86161030D01*
X148043134Y-86167764D01*
X148034409Y-86211629D01*
X148031501Y-86226250D01*
X148031501Y-86773746D01*
X148033814Y-86785372D01*
X148043134Y-86832230D01*
X148056039Y-86851543D01*
X148087449Y-86898550D01*
X148113635Y-86916047D01*
X148153768Y-86942864D01*
X148153769Y-86942864D01*
X148153770Y-86942865D01*
X148212253Y-86954498D01*
X148212255Y-86954498D01*
X148736600Y-86954498D01*
X148788926Y-86976172D01*
X148810600Y-87028498D01*
X148810600Y-88890433D01*
X148788926Y-88942759D01*
X148776608Y-88952685D01*
X148768877Y-88957653D01*
X148768868Y-88957660D01*
X148674623Y-89066426D01*
X148614834Y-89197345D01*
X148594353Y-89339800D01*
X148614834Y-89482254D01*
X148638721Y-89534559D01*
X148640742Y-89591160D01*
X148602149Y-89632613D01*
X148571408Y-89639300D01*
X147348625Y-89639300D01*
X147296299Y-89617626D01*
X147274625Y-89565300D01*
X147296299Y-89512974D01*
X147327019Y-89482254D01*
X147617577Y-89191696D01*
X147655678Y-89125705D01*
X147675400Y-89052100D01*
X147675400Y-88975901D01*
X147675400Y-87010051D01*
X147697074Y-86957725D01*
X147712504Y-86947415D01*
X147712170Y-86946915D01*
X147718232Y-86942864D01*
X147784552Y-86898550D01*
X147828867Y-86832229D01*
X147840500Y-86773746D01*
X147840500Y-86226250D01*
X147828867Y-86167767D01*
X147828866Y-86167765D01*
X147828866Y-86167764D01*
X147826077Y-86161030D01*
X147828216Y-86160144D01*
X147819050Y-86114061D01*
X147850516Y-86066969D01*
X147891628Y-86054498D01*
X147980373Y-86054498D01*
X148032699Y-86076172D01*
G37*
%TD.AperFunction*%
%TA.AperFunction,Conductor*%
G36*
X150720536Y-85867533D02*
G01*
X150733008Y-85908811D01*
X150731687Y-86499998D01*
X150724837Y-89565465D01*
X150703046Y-89617743D01*
X150650837Y-89639300D01*
X149628592Y-89639300D01*
X149576266Y-89617626D01*
X149554592Y-89565300D01*
X149561279Y-89534559D01*
X149585165Y-89482257D01*
X149605647Y-89339800D01*
X149585165Y-89197343D01*
X149525377Y-89066427D01*
X149447656Y-88976731D01*
X149431131Y-88957660D01*
X149431129Y-88957659D01*
X149431128Y-88957657D01*
X149426283Y-88954543D01*
X149423392Y-88952685D01*
X149391091Y-88906162D01*
X149389400Y-88890433D01*
X149389400Y-87136524D01*
X149411074Y-87084198D01*
X149519100Y-86976172D01*
X149571426Y-86954498D01*
X149859747Y-86954498D01*
X149859749Y-86954498D01*
X149918232Y-86942865D01*
X149984553Y-86898550D01*
X150028868Y-86832229D01*
X150038188Y-86785372D01*
X150069654Y-86738280D01*
X150125202Y-86727231D01*
X150172295Y-86758697D01*
X150183344Y-86785372D01*
X150196506Y-86851543D01*
X150251760Y-86934237D01*
X150251761Y-86934238D01*
X150334455Y-86989492D01*
X150407379Y-87003998D01*
X150436001Y-87003998D01*
X150436001Y-86103954D01*
X150457675Y-86051628D01*
X150468877Y-86042433D01*
X150534553Y-85998550D01*
X150578868Y-85932229D01*
X150586430Y-85894209D01*
X150617895Y-85847118D01*
X150673444Y-85836068D01*
X150720536Y-85867533D01*
G37*
%TD.AperFunction*%
%TA.AperFunction,Conductor*%
G36*
X150751715Y-67786174D02*
G01*
X150773389Y-67838500D01*
X150773389Y-67838665D01*
X150751517Y-77626165D01*
X150729726Y-77678443D01*
X150691967Y-77694033D01*
X150686001Y-77700000D01*
X150686001Y-77876000D01*
X150664327Y-77928326D01*
X150612001Y-77950000D01*
X150173055Y-77950000D01*
X150136001Y-77965348D01*
X150098947Y-77950000D01*
X149073055Y-77950000D01*
X149036001Y-77965348D01*
X148998947Y-77950000D01*
X148736001Y-77950000D01*
X148736001Y-78210000D01*
X148714327Y-78262326D01*
X148662001Y-78284000D01*
X148539436Y-78284000D01*
X148533344Y-78314626D01*
X148501877Y-78361717D01*
X148446328Y-78372766D01*
X148399237Y-78341299D01*
X148388188Y-78314625D01*
X148382481Y-78285935D01*
X148378868Y-78267769D01*
X148374366Y-78261032D01*
X148340267Y-78210000D01*
X148334553Y-78201448D01*
X148296728Y-78176174D01*
X148268888Y-78157571D01*
X148237423Y-78110479D01*
X148236001Y-78096043D01*
X148236001Y-77450000D01*
X148736001Y-77450000D01*
X148998947Y-77450000D01*
X149036001Y-77434652D01*
X149073055Y-77450000D01*
X149336001Y-77450000D01*
X149836001Y-77450000D01*
X150098947Y-77450000D01*
X150136001Y-77434652D01*
X150173055Y-77450000D01*
X150436001Y-77450000D01*
X150436001Y-77196000D01*
X150407379Y-77196000D01*
X150334455Y-77210505D01*
X150251761Y-77265759D01*
X150251760Y-77265760D01*
X150197530Y-77346922D01*
X150150438Y-77378388D01*
X150094889Y-77367339D01*
X150074472Y-77346922D01*
X150020241Y-77265760D01*
X150020240Y-77265759D01*
X149937546Y-77210505D01*
X149864623Y-77196000D01*
X149836001Y-77196000D01*
X149836001Y-77450000D01*
X149336001Y-77450000D01*
X149336001Y-77196000D01*
X149307379Y-77196000D01*
X149234455Y-77210505D01*
X149151761Y-77265759D01*
X149151760Y-77265760D01*
X149097530Y-77346922D01*
X149050438Y-77378388D01*
X148994889Y-77367339D01*
X148974472Y-77346922D01*
X148920241Y-77265760D01*
X148920240Y-77265759D01*
X148837546Y-77210505D01*
X148764623Y-77196000D01*
X148736001Y-77196000D01*
X148736001Y-77450000D01*
X148236001Y-77450000D01*
X148236001Y-77196000D01*
X148207379Y-77196000D01*
X148134455Y-77210505D01*
X148051761Y-77265759D01*
X148051760Y-77265760D01*
X147996506Y-77348455D01*
X147983343Y-77414628D01*
X147951877Y-77461720D01*
X147896328Y-77472769D01*
X147849236Y-77441303D01*
X147838188Y-77414629D01*
X147828867Y-77367769D01*
X147784552Y-77301448D01*
X147762568Y-77286759D01*
X147712171Y-77253083D01*
X147713644Y-77250877D01*
X147681032Y-77218262D01*
X147675400Y-77189946D01*
X147675400Y-76842045D01*
X147677921Y-76822893D01*
X147681088Y-76811074D01*
X147688100Y-76784904D01*
X147688100Y-76705360D01*
X147667513Y-76628525D01*
X147627740Y-76559638D01*
X146170428Y-75102326D01*
X146148754Y-75050000D01*
X146170428Y-74997674D01*
X146222754Y-74976000D01*
X147828000Y-74976000D01*
X147828000Y-68880000D01*
X144344086Y-68880000D01*
X144291760Y-68858326D01*
X143324260Y-67890826D01*
X143302586Y-67838500D01*
X143324260Y-67786174D01*
X143376586Y-67764500D01*
X150699389Y-67764500D01*
X150751715Y-67786174D01*
G37*
%TD.AperFunction*%
%TA.AperFunction,Conductor*%
G36*
X134988926Y-71036074D02*
G01*
X135010600Y-71088400D01*
X135010600Y-73038102D01*
X135030320Y-73111700D01*
X135030322Y-73111705D01*
X135068420Y-73177692D01*
X135068421Y-73177693D01*
X135068423Y-73177696D01*
X137522304Y-75631578D01*
X137567612Y-75657736D01*
X137588296Y-75669678D01*
X137588297Y-75669678D01*
X137588299Y-75669679D01*
X137619933Y-75678155D01*
X137661897Y-75689399D01*
X137661898Y-75689400D01*
X137661900Y-75689400D01*
X137661901Y-75689400D01*
X137738100Y-75689400D01*
X139049475Y-75689400D01*
X139101801Y-75711074D01*
X140368423Y-76977696D01*
X140622304Y-77231578D01*
X140677933Y-77263695D01*
X140688296Y-77269678D01*
X140761897Y-77289399D01*
X140761898Y-77289400D01*
X140761900Y-77289400D01*
X140761901Y-77289400D01*
X140838100Y-77289400D01*
X141318082Y-77289400D01*
X141370408Y-77311074D01*
X141392082Y-77363400D01*
X141390660Y-77377837D01*
X141381999Y-77421377D01*
X141381999Y-77450000D01*
X141811999Y-77450000D01*
X141864325Y-77471674D01*
X141885999Y-77524000D01*
X141885999Y-77876000D01*
X141864325Y-77928326D01*
X141811999Y-77950000D01*
X141381999Y-77950000D01*
X141381999Y-77978622D01*
X141396504Y-78051545D01*
X141451758Y-78134239D01*
X141451759Y-78134240D01*
X141534453Y-78189494D01*
X141581838Y-78198920D01*
X141628930Y-78230386D01*
X141639979Y-78285935D01*
X141608513Y-78333027D01*
X141567401Y-78345498D01*
X140207510Y-78345498D01*
X140155184Y-78323824D01*
X139656511Y-77825151D01*
X139656509Y-77825148D01*
X139567670Y-77736309D01*
X139464032Y-77676473D01*
X139457486Y-77674719D01*
X139439602Y-77669927D01*
X139348438Y-77645499D01*
X139348436Y-77645499D01*
X139228764Y-77645499D01*
X139224234Y-77645499D01*
X139224218Y-77645500D01*
X134209003Y-77645500D01*
X134156677Y-77623826D01*
X134095174Y-77562323D01*
X134073500Y-77509997D01*
X134073500Y-76347500D01*
X134533205Y-76347500D01*
X134545205Y-76423275D01*
X134604168Y-76538996D01*
X134696003Y-76630831D01*
X134811724Y-76689794D01*
X134811723Y-76689794D01*
X134850000Y-76695855D01*
X134850000Y-76695854D01*
X135350000Y-76695854D01*
X135388274Y-76689794D01*
X135503996Y-76630831D01*
X135595831Y-76538996D01*
X135654794Y-76423275D01*
X135666796Y-76347500D01*
X135350000Y-76347500D01*
X135350000Y-76695854D01*
X134850000Y-76695854D01*
X134850000Y-76347500D01*
X134533205Y-76347500D01*
X134073500Y-76347500D01*
X134073500Y-74161424D01*
X134095174Y-74109098D01*
X134147500Y-74087424D01*
X134199823Y-74109097D01*
X134498277Y-74407551D01*
X134585752Y-74495026D01*
X134607426Y-74547352D01*
X134599908Y-74579851D01*
X134589709Y-74600713D01*
X134579500Y-74670780D01*
X134579500Y-75134214D01*
X134589707Y-75204280D01*
X134589708Y-75204284D01*
X134642551Y-75312375D01*
X134727625Y-75397449D01*
X134745286Y-75406083D01*
X134782776Y-75448536D01*
X134779267Y-75505064D01*
X134746382Y-75538498D01*
X134696004Y-75564167D01*
X134604168Y-75656003D01*
X134545205Y-75771724D01*
X134533204Y-75847500D01*
X135666794Y-75847500D01*
X135654794Y-75771723D01*
X135654793Y-75771721D01*
X135651185Y-75764640D01*
X135646741Y-75708177D01*
X135683523Y-75665110D01*
X135739986Y-75660666D01*
X135769445Y-75678718D01*
X136030548Y-75939821D01*
X136052222Y-75992147D01*
X136051469Y-76002678D01*
X136036419Y-76107355D01*
X136054854Y-76235579D01*
X136054854Y-76235580D01*
X136054855Y-76235582D01*
X136108670Y-76353419D01*
X136193503Y-76451323D01*
X136302483Y-76521360D01*
X136426780Y-76557856D01*
X136556324Y-76557856D01*
X136680621Y-76521360D01*
X136789601Y-76451323D01*
X136874434Y-76353419D01*
X136928249Y-76235582D01*
X136946685Y-76107356D01*
X136928249Y-75979130D01*
X136874434Y-75861293D01*
X136789601Y-75763389D01*
X136701786Y-75706954D01*
X136680620Y-75693351D01*
X136588326Y-75666252D01*
X136556848Y-75647575D01*
X135642173Y-74732899D01*
X135620499Y-74680573D01*
X135620499Y-74670793D01*
X135620499Y-74670786D01*
X135610291Y-74600714D01*
X135557449Y-74492625D01*
X135472375Y-74407551D01*
X135364286Y-74354709D01*
X135294219Y-74344500D01*
X135294215Y-74344500D01*
X135284425Y-74344500D01*
X135232099Y-74322826D01*
X134611074Y-73701800D01*
X134589400Y-73649474D01*
X134589400Y-71661898D01*
X134573845Y-71603850D01*
X134573845Y-71603849D01*
X134569678Y-71588295D01*
X134569677Y-71588293D01*
X134569677Y-71588292D01*
X134550627Y-71555299D01*
X134531577Y-71522304D01*
X134302696Y-71293423D01*
X134302693Y-71293421D01*
X134302692Y-71293420D01*
X134236705Y-71255322D01*
X134236700Y-71255320D01*
X134163102Y-71235600D01*
X134163100Y-71235600D01*
X133873546Y-71235600D01*
X133821220Y-71213926D01*
X133803078Y-71195784D01*
X133796076Y-71192692D01*
X133756966Y-71151727D01*
X133758277Y-71095105D01*
X133796082Y-71057304D01*
X133803079Y-71054215D01*
X133821220Y-71036074D01*
X133873546Y-71014400D01*
X134934400Y-71014400D01*
X134936600Y-71014400D01*
X134988926Y-71036074D01*
G37*
%TD.AperFunction*%
%TA.AperFunction,Conductor*%
G36*
X137056216Y-67786174D02*
G01*
X137077890Y-67838500D01*
X137056216Y-67890826D01*
X136457708Y-68489333D01*
X136406232Y-68578493D01*
X136379586Y-68677938D01*
X136379586Y-69736600D01*
X136357912Y-69788926D01*
X136305586Y-69810600D01*
X136206075Y-69810600D01*
X136153750Y-69788926D01*
X136072375Y-69707551D01*
X135964286Y-69654709D01*
X135894219Y-69644500D01*
X135894215Y-69644500D01*
X135684425Y-69644500D01*
X135632099Y-69622826D01*
X135409177Y-69399904D01*
X135390024Y-69366731D01*
X135389400Y-69364402D01*
X135389400Y-69364400D01*
X135369678Y-69290796D01*
X135331577Y-69224804D01*
X135277696Y-69170923D01*
X135277693Y-69170921D01*
X135277692Y-69170920D01*
X135211705Y-69132822D01*
X135211700Y-69132820D01*
X135138102Y-69113100D01*
X135138100Y-69113100D01*
X134359400Y-69113100D01*
X134332105Y-69120413D01*
X134285800Y-69132820D01*
X134285791Y-69132824D01*
X134219804Y-69170921D01*
X133833278Y-69557447D01*
X133780952Y-69579121D01*
X133751063Y-69572816D01*
X133704579Y-69552292D01*
X133683297Y-69549823D01*
X133680505Y-69549500D01*
X133680504Y-69549500D01*
X132769496Y-69549500D01*
X132745424Y-69552292D01*
X132745419Y-69552293D01*
X132646920Y-69595785D01*
X132570786Y-69671919D01*
X132527292Y-69770421D01*
X132527292Y-69770423D01*
X132524500Y-69794495D01*
X132524500Y-70055503D01*
X132527292Y-70079575D01*
X132527293Y-70079580D01*
X132570785Y-70178079D01*
X132646921Y-70254215D01*
X132653920Y-70257306D01*
X132693032Y-70298269D01*
X132691723Y-70354891D01*
X132653920Y-70392694D01*
X132646921Y-70395784D01*
X132570786Y-70471919D01*
X132527292Y-70570421D01*
X132527292Y-70570423D01*
X132524500Y-70594495D01*
X132524500Y-70855503D01*
X132527292Y-70879575D01*
X132527293Y-70879580D01*
X132570785Y-70978079D01*
X132646921Y-71054215D01*
X132653920Y-71057306D01*
X132693032Y-71098269D01*
X132691723Y-71154891D01*
X132653920Y-71192694D01*
X132646921Y-71195784D01*
X132570786Y-71271919D01*
X132570785Y-71271920D01*
X132570785Y-71271921D01*
X132563257Y-71288969D01*
X132527292Y-71370421D01*
X132527292Y-71370423D01*
X132524500Y-71394495D01*
X132524500Y-71655503D01*
X132527292Y-71679575D01*
X132527293Y-71679580D01*
X132570785Y-71778079D01*
X132646921Y-71854215D01*
X132653920Y-71857306D01*
X132693032Y-71898269D01*
X132691723Y-71954891D01*
X132653920Y-71992694D01*
X132646921Y-71995784D01*
X132570786Y-72071919D01*
X132527292Y-72170421D01*
X132527292Y-72170423D01*
X132524500Y-72194495D01*
X132524500Y-72455503D01*
X132526630Y-72473867D01*
X132527293Y-72479580D01*
X132570785Y-72578079D01*
X132646921Y-72654215D01*
X132745420Y-72697707D01*
X132769495Y-72700500D01*
X132825500Y-72700499D01*
X132877825Y-72722172D01*
X132899500Y-72774498D01*
X132899500Y-73576415D01*
X132892813Y-73607156D01*
X132877221Y-73641298D01*
X132835769Y-73679891D01*
X132809214Y-73684554D01*
X129948370Y-73657709D01*
X129948328Y-73657709D01*
X129947852Y-73657705D01*
X129947722Y-73657704D01*
X128399032Y-73647901D01*
X128346844Y-73625896D01*
X128325500Y-73573902D01*
X128325500Y-72500000D01*
X128731314Y-72500000D01*
X128731471Y-72501198D01*
X128781773Y-72609069D01*
X128865930Y-72693226D01*
X128973803Y-72743529D01*
X128973802Y-72743529D01*
X129022955Y-72749999D01*
X129300000Y-72749999D01*
X129650000Y-72749999D01*
X129927044Y-72749999D01*
X129976201Y-72743528D01*
X130084068Y-72693227D01*
X130168226Y-72609069D01*
X130218528Y-72501198D01*
X130218686Y-72500000D01*
X129650000Y-72500000D01*
X129650000Y-72749999D01*
X129300000Y-72749999D01*
X129300000Y-72500000D01*
X128731314Y-72500000D01*
X128325500Y-72500000D01*
X128325500Y-72265478D01*
X128347174Y-72213152D01*
X128688152Y-71872174D01*
X128740478Y-71850500D01*
X128793552Y-71850500D01*
X128845878Y-71872174D01*
X128867552Y-71924500D01*
X128845878Y-71976826D01*
X128781773Y-72040930D01*
X128731471Y-72148801D01*
X128731314Y-72150000D01*
X130218686Y-72150000D01*
X130218528Y-72148801D01*
X130168226Y-72040930D01*
X130084066Y-71956770D01*
X130078767Y-71953060D01*
X130080755Y-71950220D01*
X130050505Y-71917198D01*
X130052984Y-71860615D01*
X130067717Y-71839576D01*
X130129215Y-71778079D01*
X130172707Y-71679580D01*
X130175500Y-71655505D01*
X130175499Y-71394496D01*
X130172707Y-71370420D01*
X130129215Y-71271921D01*
X130053079Y-71195785D01*
X130053078Y-71195784D01*
X130046076Y-71192692D01*
X130006966Y-71151727D01*
X130008277Y-71095105D01*
X130046082Y-71057304D01*
X130053079Y-71054215D01*
X130129215Y-70978079D01*
X130172707Y-70879580D01*
X130175500Y-70855505D01*
X130175499Y-70594496D01*
X130172707Y-70570420D01*
X130129215Y-70471921D01*
X130053079Y-70395785D01*
X130053078Y-70395784D01*
X130046076Y-70392692D01*
X130006966Y-70351727D01*
X130008277Y-70295105D01*
X130046082Y-70257304D01*
X130053079Y-70254215D01*
X130129215Y-70178079D01*
X130172707Y-70079580D01*
X130175500Y-70055505D01*
X130175499Y-69794496D01*
X130172707Y-69770420D01*
X130129215Y-69671921D01*
X130053079Y-69595785D01*
X129954580Y-69552293D01*
X129954579Y-69552292D01*
X129954577Y-69552292D01*
X129934140Y-69549921D01*
X129930505Y-69549500D01*
X129930504Y-69549500D01*
X129019496Y-69549500D01*
X128995424Y-69552292D01*
X128995419Y-69552293D01*
X128902787Y-69593195D01*
X128872897Y-69599500D01*
X127474600Y-69599500D01*
X127422274Y-69577826D01*
X127400600Y-69525500D01*
X127400600Y-69376853D01*
X127390937Y-69328275D01*
X127388967Y-69318369D01*
X127344652Y-69252048D01*
X127303884Y-69224807D01*
X127278332Y-69207733D01*
X127278333Y-69207733D01*
X127249089Y-69201916D01*
X127219848Y-69196100D01*
X125580152Y-69196100D01*
X125550910Y-69201916D01*
X125521667Y-69207733D01*
X125455349Y-69252047D01*
X125455347Y-69252049D01*
X125411033Y-69318367D01*
X125403277Y-69357357D01*
X125399400Y-69376852D01*
X125399400Y-70838748D01*
X125402733Y-70855503D01*
X125411033Y-70897232D01*
X125440508Y-70941343D01*
X125455348Y-70963552D01*
X125516213Y-71004221D01*
X125547678Y-71051313D01*
X125549100Y-71065749D01*
X125549100Y-71334250D01*
X125527426Y-71386576D01*
X125516213Y-71395778D01*
X125455349Y-71436447D01*
X125455347Y-71436449D01*
X125411033Y-71502767D01*
X125399400Y-71561253D01*
X125399400Y-73023146D01*
X125411033Y-73081632D01*
X125431125Y-73111700D01*
X125455348Y-73147952D01*
X125499460Y-73177427D01*
X125521667Y-73192266D01*
X125521668Y-73192266D01*
X125521669Y-73192267D01*
X125580152Y-73203900D01*
X125580154Y-73203900D01*
X127219846Y-73203900D01*
X127219848Y-73203900D01*
X127278331Y-73192267D01*
X127344652Y-73147952D01*
X127388967Y-73081631D01*
X127400600Y-73023148D01*
X127400600Y-72048256D01*
X127422273Y-71995931D01*
X127960465Y-71457740D01*
X128003318Y-71383517D01*
X128025500Y-71300731D01*
X128025500Y-71265479D01*
X128047174Y-71213153D01*
X128188153Y-71072174D01*
X128240479Y-71050500D01*
X128872897Y-71050500D01*
X128902796Y-71056809D01*
X128903928Y-71057309D01*
X128943035Y-71098277D01*
X128941720Y-71154899D01*
X128903928Y-71192691D01*
X128902796Y-71193191D01*
X128872897Y-71199500D01*
X128617853Y-71199500D01*
X128532147Y-71199500D01*
X128504551Y-71206894D01*
X128449359Y-71221682D01*
X128449357Y-71221683D01*
X128432224Y-71231576D01*
X128432223Y-71231577D01*
X128375137Y-71264535D01*
X128314533Y-71325140D01*
X127739532Y-71900141D01*
X127696682Y-71974359D01*
X127696681Y-71974362D01*
X127692790Y-71988880D01*
X127692791Y-71988881D01*
X127674500Y-72057147D01*
X127674500Y-73568845D01*
X127652826Y-73621171D01*
X127600500Y-73642845D01*
X127600032Y-73642844D01*
X122437979Y-73610173D01*
X122246577Y-73608962D01*
X122246576Y-73608962D01*
X122246573Y-73608962D01*
X122202061Y-73613535D01*
X122147795Y-73597321D01*
X122120887Y-73547483D01*
X122120500Y-73539922D01*
X122120500Y-67838500D01*
X122142174Y-67786174D01*
X122194500Y-67764500D01*
X137003890Y-67764500D01*
X137056216Y-67786174D01*
G37*
%TD.AperFunction*%
%TA.AperFunction,Conductor*%
G36*
X140393346Y-68367174D02*
G01*
X140415020Y-68419500D01*
X140393346Y-68471826D01*
X140304168Y-68561003D01*
X140245205Y-68676724D01*
X140233204Y-68752500D01*
X141366794Y-68752500D01*
X141354794Y-68676724D01*
X141295831Y-68561003D01*
X141206654Y-68471826D01*
X141184980Y-68419500D01*
X141206654Y-68367174D01*
X141258980Y-68345500D01*
X141561890Y-68345500D01*
X141614216Y-68367174D01*
X141787326Y-68540284D01*
X141809000Y-68592610D01*
X141809000Y-68806000D01*
X141787326Y-68858326D01*
X141735000Y-68880000D01*
X141732000Y-68880000D01*
X141732000Y-70397086D01*
X141724481Y-70429587D01*
X141689709Y-70500712D01*
X141685954Y-70526488D01*
X141656961Y-70575142D01*
X141602057Y-70589045D01*
X141591879Y-70586821D01*
X141464772Y-70549500D01*
X141388538Y-70549500D01*
X141336212Y-70527826D01*
X141314538Y-70475500D01*
X141315311Y-70464832D01*
X141320499Y-70429222D01*
X141320499Y-70429221D01*
X141320500Y-70429215D01*
X141320499Y-69965786D01*
X141310291Y-69895714D01*
X141257449Y-69787625D01*
X141172375Y-69702551D01*
X141172374Y-69702550D01*
X141172371Y-69702548D01*
X141154712Y-69693915D01*
X141117222Y-69651462D01*
X141120733Y-69594934D01*
X141153618Y-69561500D01*
X141203996Y-69535831D01*
X141295831Y-69443996D01*
X141354794Y-69328275D01*
X141366796Y-69252500D01*
X140233205Y-69252500D01*
X140245205Y-69328275D01*
X140304168Y-69443996D01*
X140396003Y-69535831D01*
X140446381Y-69561500D01*
X140483164Y-69604567D01*
X140478721Y-69661030D01*
X140445289Y-69693915D01*
X140427624Y-69702551D01*
X140342551Y-69787624D01*
X140289709Y-69895713D01*
X140279500Y-69965780D01*
X140279500Y-70429214D01*
X140289707Y-70499280D01*
X140289708Y-70499284D01*
X140289709Y-70499286D01*
X140342551Y-70607375D01*
X140427625Y-70692449D01*
X140534929Y-70744907D01*
X140566510Y-70774383D01*
X140568423Y-70777696D01*
X140568425Y-70777698D01*
X140825001Y-71034274D01*
X140846675Y-71086600D01*
X140825001Y-71138926D01*
X140772675Y-71160600D01*
X140122050Y-71160600D01*
X140122050Y-71157649D01*
X140076309Y-71145328D01*
X140053741Y-71116570D01*
X140041384Y-71088584D01*
X139961415Y-71008615D01*
X139857958Y-70962934D01*
X139840000Y-70960850D01*
X139840000Y-71303718D01*
X139839644Y-71310965D01*
X139839500Y-71312428D01*
X139839500Y-71587569D01*
X139839643Y-71589021D01*
X139840000Y-71596277D01*
X139840000Y-71803718D01*
X139839644Y-71810965D01*
X139839500Y-71812428D01*
X139839500Y-71812434D01*
X139839500Y-72087566D01*
X139841704Y-72098647D01*
X139848377Y-72132195D01*
X139848378Y-72132197D01*
X139852874Y-72138926D01*
X139866213Y-72158891D01*
X139877259Y-72214440D01*
X139866213Y-72241109D01*
X139848378Y-72267803D01*
X139848377Y-72267804D01*
X139839500Y-72312434D01*
X139839500Y-72565500D01*
X139817826Y-72617826D01*
X139765500Y-72639500D01*
X139512434Y-72639500D01*
X139503557Y-72641265D01*
X139467804Y-72648377D01*
X139467803Y-72648378D01*
X139441109Y-72666213D01*
X139385560Y-72677259D01*
X139358891Y-72666213D01*
X139340933Y-72654215D01*
X139332197Y-72648378D01*
X139332195Y-72648377D01*
X139298647Y-72641704D01*
X139287566Y-72639500D01*
X139034500Y-72639500D01*
X138982174Y-72617826D01*
X138960500Y-72565500D01*
X138960500Y-72377952D01*
X138982174Y-72325626D01*
X139061384Y-72246415D01*
X139107065Y-72142956D01*
X139107067Y-72142952D01*
X139109149Y-72125000D01*
X138160852Y-72125000D01*
X138151213Y-72135821D01*
X138100224Y-72160477D01*
X138095956Y-72160600D01*
X137482288Y-72160600D01*
X137429962Y-72138926D01*
X137379222Y-72088186D01*
X137357548Y-72035860D01*
X137358180Y-72026215D01*
X137373592Y-71909148D01*
X139325000Y-71909148D01*
X139342953Y-71907066D01*
X139342957Y-71907065D01*
X139377610Y-71891765D01*
X139434232Y-71890457D01*
X139437390Y-71891765D01*
X139472043Y-71907065D01*
X139472047Y-71907067D01*
X139490000Y-71909149D01*
X139490000Y-71610000D01*
X139325000Y-71610000D01*
X139325000Y-71909148D01*
X137373592Y-71909148D01*
X137376268Y-71888823D01*
X137361283Y-71775000D01*
X138160850Y-71775000D01*
X138975000Y-71775000D01*
X138975000Y-71625000D01*
X138160852Y-71625000D01*
X138162933Y-71642954D01*
X138162935Y-71642960D01*
X138174923Y-71670111D01*
X138176231Y-71726733D01*
X138174924Y-71729888D01*
X138162933Y-71757046D01*
X138160850Y-71775000D01*
X137361283Y-71775000D01*
X137355630Y-71732061D01*
X137295122Y-71585982D01*
X137231269Y-71502767D01*
X137198870Y-71460543D01*
X137198866Y-71460539D01*
X137190535Y-71454146D01*
X137162219Y-71405096D01*
X137161586Y-71395440D01*
X137161586Y-71275000D01*
X138160850Y-71275000D01*
X138460000Y-71275000D01*
X138460000Y-71025000D01*
X138810000Y-71025000D01*
X138810000Y-71275000D01*
X138975000Y-71275000D01*
X138975000Y-70960850D01*
X139325000Y-70960850D01*
X139325000Y-71260000D01*
X139490000Y-71260000D01*
X139490000Y-70960850D01*
X139472047Y-70962932D01*
X139472039Y-70962935D01*
X139437389Y-70978234D01*
X139380766Y-70979541D01*
X139377611Y-70978234D01*
X139342960Y-70962934D01*
X139325000Y-70960850D01*
X138975000Y-70960850D01*
X138957047Y-70962932D01*
X138957043Y-70962934D01*
X138853584Y-71008615D01*
X138848566Y-71012053D01*
X138811457Y-71023542D01*
X138810000Y-71025000D01*
X138460000Y-71025000D01*
X138459999Y-71024999D01*
X138417334Y-71025000D01*
X138392047Y-71027933D01*
X138392041Y-71027934D01*
X138288584Y-71073615D01*
X138208615Y-71153584D01*
X138162934Y-71257043D01*
X138162932Y-71257047D01*
X138160850Y-71275000D01*
X137161586Y-71275000D01*
X137161586Y-68922024D01*
X137183260Y-68869698D01*
X137685784Y-68367174D01*
X137738110Y-68345500D01*
X140341020Y-68345500D01*
X140393346Y-68367174D01*
G37*
%TD.AperFunction*%
%TD*%
%TA.AperFunction,Conductor*%
%TO.N,VDD*%
G36*
X129946400Y-73863200D02*
G01*
X132821635Y-73890180D01*
X132888483Y-73910493D01*
X132930951Y-73957878D01*
X132971950Y-74038342D01*
X132971952Y-74038344D01*
X132971954Y-74038347D01*
X133061652Y-74128045D01*
X133061654Y-74128046D01*
X133061658Y-74128050D01*
X133174696Y-74185646D01*
X133174697Y-74185646D01*
X133174699Y-74185647D01*
X133299997Y-74205492D01*
X133300000Y-74205492D01*
X133300003Y-74205492D01*
X133425300Y-74185647D01*
X133425301Y-74185647D01*
X133425302Y-74185646D01*
X133425304Y-74185646D01*
X133538342Y-74128050D01*
X133628050Y-74038342D01*
X133633516Y-74027613D01*
X133681490Y-73976819D01*
X133749311Y-73960024D01*
X133815445Y-73982561D01*
X133858897Y-74037276D01*
X133868000Y-74083910D01*
X133868000Y-80585082D01*
X133848315Y-80652121D01*
X133795511Y-80697876D01*
X133768192Y-80706699D01*
X133759482Y-80708431D01*
X133759475Y-80708434D01*
X133709696Y-80741695D01*
X133709695Y-80741696D01*
X133676434Y-80791475D01*
X133676431Y-80791481D01*
X133674817Y-80799599D01*
X133642431Y-80861509D01*
X133581715Y-80896083D01*
X133511946Y-80892342D01*
X133455274Y-80851475D01*
X133431583Y-80799599D01*
X133429968Y-80791481D01*
X133429967Y-80791479D01*
X133429967Y-80791478D01*
X133396704Y-80741696D01*
X133396703Y-80741695D01*
X133346924Y-80708434D01*
X133346917Y-80708431D01*
X133303022Y-80699700D01*
X133303020Y-80699700D01*
X132533380Y-80699700D01*
X132533378Y-80699700D01*
X132489482Y-80708431D01*
X132489475Y-80708434D01*
X132439696Y-80741695D01*
X132439695Y-80741696D01*
X132406434Y-80791475D01*
X132406431Y-80791482D01*
X132397700Y-80835377D01*
X132397700Y-82144299D01*
X132378015Y-82211338D01*
X132325211Y-82257093D01*
X132275248Y-82268289D01*
X122246048Y-82393528D01*
X122178768Y-82374682D01*
X122132358Y-82322454D01*
X122120500Y-82269538D01*
X122120500Y-73938455D01*
X122140185Y-73871416D01*
X122192989Y-73825661D01*
X122245276Y-73814458D01*
X129946400Y-73863200D01*
G37*
%TD.AperFunction*%
%TD*%
M02*
