%TF.GenerationSoftware,KiCad,Pcbnew,7.0.8*%
%TF.CreationDate,2024-06-12T17:23:09-04:00*%
%TF.ProjectId,BLERoomSensore,424c4552-6f6f-46d5-9365-6e736f72652e,rev?*%
%TF.SameCoordinates,Original*%
%TF.FileFunction,Copper,L1,Top*%
%TF.FilePolarity,Positive*%
%FSLAX46Y46*%
G04 Gerber Fmt 4.6, Leading zero omitted, Abs format (unit mm)*
G04 Created by KiCad (PCBNEW 7.0.8) date 2024-06-12 17:23:09*
%MOMM*%
%LPD*%
G01*
G04 APERTURE LIST*
G04 Aperture macros list*
%AMRoundRect*
0 Rectangle with rounded corners*
0 $1 Rounding radius*
0 $2 $3 $4 $5 $6 $7 $8 $9 X,Y pos of 4 corners*
0 Add a 4 corners polygon primitive as box body*
4,1,4,$2,$3,$4,$5,$6,$7,$8,$9,$2,$3,0*
0 Add four circle primitives for the rounded corners*
1,1,$1+$1,$2,$3*
1,1,$1+$1,$4,$5*
1,1,$1+$1,$6,$7*
1,1,$1+$1,$8,$9*
0 Add four rect primitives between the rounded corners*
20,1,$1+$1,$2,$3,$4,$5,0*
20,1,$1+$1,$4,$5,$6,$7,0*
20,1,$1+$1,$6,$7,$8,$9,0*
20,1,$1+$1,$8,$9,$2,$3,0*%
G04 Aperture macros list end*
%TA.AperFunction,SMDPad,CuDef*%
%ADD10R,0.508000X0.508000*%
%TD*%
%TA.AperFunction,SMDPad,CuDef*%
%ADD11RoundRect,0.237500X-0.250000X-0.237500X0.250000X-0.237500X0.250000X0.237500X-0.250000X0.237500X0*%
%TD*%
%TA.AperFunction,SMDPad,CuDef*%
%ADD12R,0.740000X2.790000*%
%TD*%
%TA.AperFunction,SMDPad,CuDef*%
%ADD13R,0.350000X0.500000*%
%TD*%
%TA.AperFunction,ViaPad*%
%ADD14C,0.600000*%
%TD*%
%TA.AperFunction,ViaPad*%
%ADD15C,0.800000*%
%TD*%
%TA.AperFunction,Conductor*%
%ADD16C,0.508000*%
%TD*%
%TA.AperFunction,Conductor*%
%ADD17C,0.177800*%
%TD*%
%TA.AperFunction,Conductor*%
%ADD18C,0.203200*%
%TD*%
%TA.AperFunction,Conductor*%
%ADD19C,0.254000*%
%TD*%
G04 APERTURE END LIST*
D10*
%TO.P,U3,1,GND*%
%TO.N,GND*%
X150686001Y-78302401D03*
%TO.P,U3,3,GND*%
X149586001Y-78302401D03*
%TO.P,U3,5,GND*%
X148486001Y-78302401D03*
%TO.P,U3,7,P0.26*%
%TO.N,BME_CS*%
X147386000Y-78302401D03*
%TO.P,U3,9,P0.28*%
%TO.N,MOSI*%
X146286000Y-78302401D03*
%TO.P,U3,11,P0.30*%
%TO.N,SCK*%
X145186000Y-78302401D03*
%TO.P,U3,13,P0.00*%
%TO.N,MISO*%
X144085999Y-78302401D03*
%TO.P,U3,15,P0.02*%
%TO.N,unconnected-(U3-P0.02-Pad15)*%
X142985999Y-78302401D03*
%TO.P,U3,16,GND*%
%TO.N,GND*%
X141885999Y-78302401D03*
%TO.P,U3,17,VCC*%
%TO.N,VDD*%
X141886000Y-79402399D03*
%TO.P,U3,19,P0.03*%
%TO.N,unconnected-(U3-P0.03-Pad19)*%
X141886000Y-80502399D03*
%TO.P,U3,21,P0.05*%
%TO.N,unconnected-(U3-P0.05-Pad21)*%
X141886000Y-81602400D03*
%TO.P,U3,23,P0.07*%
%TO.N,unconnected-(U3-P0.07-Pad23)*%
X141886000Y-82702400D03*
%TO.P,U3,25,P0.09*%
%TO.N,unconnected-(U3-P0.09-Pad25)*%
X141886000Y-83802400D03*
%TO.P,U3,27,P0.11*%
%TO.N,unconnected-(U3-P0.11-Pad27)*%
X141886000Y-84902401D03*
%TO.P,U3,29,GND*%
%TO.N,GND*%
X141886000Y-86002401D03*
%TO.P,U3,30,GND*%
X141885999Y-87102399D03*
%TO.P,U3,31,P0.13*%
%TO.N,unconnected-(U3-P0.13-Pad31)*%
X142985999Y-87102399D03*
%TO.P,U3,33,P0.15*%
%TO.N,unconnected-(U3-P0.15-Pad33)*%
X144085999Y-87102399D03*
%TO.P,U3,35,P0.17*%
%TO.N,unconnected-(U3-P0.17-Pad35)*%
X145186000Y-87102399D03*
%TO.P,U3,37,P0.19*%
%TO.N,unconnected-(U3-P0.19-Pad37)*%
X146286000Y-87102399D03*
%TO.P,U3,39,P0.21*%
%TO.N,RESET*%
X147386000Y-87102399D03*
%TO.P,U3,41,P0.23*%
%TO.N,unconnected-(U3-P0.23-Pad41)*%
X148486001Y-87102399D03*
%TO.P,U3,43,SWCLK*%
%TO.N,CLK*%
X149586001Y-87102399D03*
%TO.P,U3,45,GND*%
%TO.N,GND*%
X150686001Y-87102399D03*
%TO.P,U3,2,GND*%
X150136001Y-79202401D03*
%TO.P,U3,4,GND*%
X149036001Y-79202401D03*
%TO.P,U3,6,P0.25*%
%TO.N,unconnected-(U3-P0.25-Pad6)*%
X147936001Y-79202401D03*
%TO.P,U3,8,P0.27*%
%TO.N,unconnected-(U3-P0.27-Pad8)*%
X146836000Y-79202401D03*
%TO.P,U3,10,P0.29*%
%TO.N,unconnected-(U3-P0.29-Pad10)*%
X145736000Y-79202401D03*
%TO.P,U3,12,P0.31*%
%TO.N,unconnected-(U3-P0.31-Pad12)*%
X144636000Y-79202401D03*
%TO.P,U3,14,P0.01*%
%TO.N,unconnected-(U3-P0.01-Pad14)*%
X143535999Y-79202401D03*
%TO.P,U3,32,P0.14*%
%TO.N,unconnected-(U3-P0.14-Pad32)*%
X143535999Y-86202399D03*
%TO.P,U3,34,P0.16*%
%TO.N,unconnected-(U3-P0.16-Pad34)*%
X144636000Y-86202399D03*
%TO.P,U3,36,P0.18*%
%TO.N,unconnected-(U3-P0.18-Pad36)*%
X145736000Y-86202399D03*
%TO.P,U3,38,P0.20*%
%TO.N,unconnected-(U3-P0.20-Pad38)*%
X146836000Y-86202399D03*
%TO.P,U3,40,P0.22*%
%TO.N,unconnected-(U3-P0.22-Pad40)*%
X147936001Y-86202399D03*
%TO.P,U3,42,P0.24*%
%TO.N,unconnected-(U3-P0.24-Pad42)*%
X149036001Y-86202399D03*
%TO.P,U3,44,SWDIO*%
%TO.N,DIO*%
X150136001Y-86202399D03*
%TO.P,U3,18,GND*%
%TO.N,GND*%
X142786000Y-79952399D03*
%TO.P,U3,20,P0.04*%
%TO.N,unconnected-(U3-P0.04-Pad20)*%
X142786000Y-81052399D03*
%TO.P,U3,22,P0.06*%
%TO.N,unconnected-(U3-P0.06-Pad22)*%
X142786000Y-82152400D03*
%TO.P,U3,24,P0.08*%
%TO.N,unconnected-(U3-P0.08-Pad24)*%
X142786000Y-83252400D03*
%TO.P,U3,26,P0.10*%
%TO.N,unconnected-(U3-P0.10-Pad26)*%
X142786000Y-84352400D03*
%TO.P,U3,28,P0.12*%
%TO.N,unconnected-(U3-P0.12-Pad28)*%
X142786000Y-85452401D03*
%TO.P,U3,47,GND*%
%TO.N,GND*%
X150686001Y-81052400D03*
%TO.P,U3,46,GND*%
X150686001Y-84352400D03*
%TD*%
D11*
%TO.P,R1,1*%
%TO.N,VDD*%
X136145900Y-79375000D03*
%TO.P,R1,2*%
%TO.N,Net-(J1-Pad01)*%
X137970900Y-79375000D03*
%TD*%
D12*
%TO.P,J1,01,01*%
%TO.N,Net-(J1-Pad01)*%
X137998200Y-82245200D03*
%TO.P,J1,02,02*%
%TO.N,DIO*%
X137998200Y-86315200D03*
%TO.P,J1,03,03*%
%TO.N,GND*%
X136728200Y-82245200D03*
%TO.P,J1,04,04*%
%TO.N,CLK*%
X136728200Y-86315200D03*
%TO.P,J1,05,05*%
%TO.N,GND*%
X135458200Y-82245200D03*
%TO.P,J1,06,06*%
%TO.N,unconnected-(J1-Pad06)*%
X135458200Y-86315200D03*
%TO.P,J1,07,07*%
%TO.N,unconnected-(J1-Pad07)*%
X134188200Y-82245200D03*
%TO.P,J1,08,08*%
%TO.N,unconnected-(J1-Pad08)*%
X134188200Y-86315200D03*
%TO.P,J1,09,09*%
%TO.N,unconnected-(J1-Pad09)*%
X132918200Y-82245200D03*
%TO.P,J1,10,10*%
%TO.N,RESET*%
X132918200Y-86315200D03*
%TD*%
D13*
%TO.P,U2,1,GND*%
%TO.N,GND*%
X145755000Y-73288000D03*
%TO.P,U2,2,CSB*%
%TO.N,BME_CS*%
X145105000Y-73288000D03*
%TO.P,U2,3,SDI*%
%TO.N,MOSI*%
X144455000Y-73288000D03*
%TO.P,U2,4,SCK*%
%TO.N,SCK*%
X143805000Y-73288000D03*
%TO.P,U2,5,SDO*%
%TO.N,MISO*%
X143805000Y-71238000D03*
%TO.P,U2,6,VDDIO*%
%TO.N,VDD*%
X144455000Y-71238000D03*
%TO.P,U2,7,GND*%
%TO.N,GND*%
X145105000Y-71238000D03*
%TO.P,U2,8,VDD*%
%TO.N,VDD*%
X145755000Y-71238000D03*
%TD*%
D14*
%TO.N,DIO*%
X139674600Y-87376000D03*
%TO.N,CLK*%
X146304000Y-88544400D03*
X148615400Y-88544400D03*
%TO.N,DIO*%
X149453600Y-85115400D03*
D15*
%TO.N,GND*%
X130683000Y-69977000D03*
X130810000Y-83566000D03*
X125349000Y-70281800D03*
X149021800Y-72694800D03*
X139471400Y-76530200D03*
X148717000Y-82423000D03*
X127508000Y-73025000D03*
X148920200Y-69748400D03*
X131013200Y-85064600D03*
X147370800Y-83820000D03*
X139446000Y-83058000D03*
%TO.N,VDD*%
X122529600Y-77165200D03*
X127660400Y-81686400D03*
X130251200Y-81584800D03*
X122580400Y-78841600D03*
X122529600Y-75133200D03*
X128930400Y-81737200D03*
X123037600Y-81686400D03*
%TD*%
D16*
%TO.N,Net-(J1-Pad01)*%
X137970900Y-79375000D02*
X137970900Y-82217900D01*
X137970900Y-82217900D02*
X137998200Y-82245200D01*
%TO.N,VDD*%
X141886000Y-79402399D02*
X140590999Y-79402399D01*
X140590999Y-79402399D02*
X138455400Y-77266800D01*
X138455400Y-77266800D02*
X136677400Y-77266800D01*
D17*
%TO.N,DIO*%
X150136001Y-86202399D02*
X150136001Y-85797801D01*
X150136001Y-85797801D02*
X149453600Y-85115400D01*
X139674600Y-87376000D02*
X139059000Y-87376000D01*
X139059000Y-87376000D02*
X137998200Y-86315200D01*
%TO.N,RESET*%
X132918200Y-86315200D02*
X132918200Y-87710200D01*
X147010500Y-89133300D02*
X147386000Y-88757800D01*
X132918200Y-87710200D02*
X134341300Y-89133300D01*
X147386000Y-88757800D02*
X147386000Y-87102399D01*
X134341300Y-89133300D02*
X147010500Y-89133300D01*
%TO.N,CLK*%
X146304000Y-88544400D02*
X136831634Y-88544400D01*
X136728200Y-88440966D02*
X136728200Y-86315200D01*
X136831634Y-88544400D02*
X136728200Y-88440966D01*
X148615400Y-88544400D02*
X149586001Y-87573799D01*
X149586001Y-87573799D02*
X149586001Y-87102399D01*
D18*
%TO.N,MOSI*%
X146286000Y-77505380D02*
X146286000Y-78302401D01*
X144455000Y-75674380D02*
X146286000Y-77505380D01*
X144455000Y-73233000D02*
X144455000Y-75674380D01*
%TO.N,BME_CS*%
X147386000Y-78035170D02*
X147386000Y-78302401D01*
X145105000Y-75754170D02*
X147386000Y-78035170D01*
X145105000Y-73233000D02*
X145105000Y-75754170D01*
D19*
%TO.N,GND*%
X145755000Y-73233000D02*
X145755000Y-74508000D01*
X145669000Y-72309000D02*
X145415000Y-72309000D01*
X145105000Y-71999000D02*
X145105000Y-71293000D01*
X145755000Y-74508000D02*
X146761200Y-75514200D01*
X145415000Y-72309000D02*
X145105000Y-71999000D01*
X145755000Y-72395000D02*
X145669000Y-72309000D01*
X145755000Y-73233000D02*
X145755000Y-72395000D01*
D18*
%TO.N,SCK*%
X143805000Y-75594590D02*
X145186000Y-76975590D01*
X143805000Y-73233000D02*
X143805000Y-75594590D01*
X145186000Y-76975590D02*
X145186000Y-78302401D01*
%TO.N,VDD*%
X144221200Y-70459600D02*
X143866600Y-70459600D01*
X143866600Y-70459600D02*
X145465800Y-70459600D01*
X145465800Y-70459600D02*
X145755000Y-70748800D01*
X143866600Y-70459600D02*
X140004800Y-70459600D01*
X137033000Y-73431400D02*
X137033000Y-74498200D01*
X145755000Y-70748800D02*
X145755000Y-71293000D01*
X140004800Y-70459600D02*
X137033000Y-73431400D01*
X144455000Y-70693400D02*
X144221200Y-70459600D01*
X144455000Y-71293000D02*
X144455000Y-70693400D01*
%TO.N,MISO*%
X142621000Y-72477000D02*
X142621000Y-74980800D01*
X144085999Y-76445799D02*
X144085999Y-78302401D01*
X142621000Y-74980800D02*
X144085999Y-76445799D01*
X143805000Y-71293000D02*
X142621000Y-72477000D01*
%TD*%
%TA.AperFunction,Conductor*%
%TO.N,GND*%
G36*
X138264863Y-77795865D02*
G01*
X138270517Y-77801045D01*
X140186100Y-79716628D01*
X140197888Y-79731256D01*
X140202749Y-79738820D01*
X140243086Y-79773772D01*
X140245371Y-79775900D01*
X140257149Y-79787678D01*
X140270474Y-79797652D01*
X140272918Y-79799622D01*
X140313257Y-79834576D01*
X140318162Y-79836815D01*
X140321429Y-79838307D01*
X140337596Y-79847899D01*
X140344795Y-79853288D01*
X140394822Y-79871946D01*
X140397704Y-79873140D01*
X140446265Y-79895318D01*
X140455162Y-79896596D01*
X140473376Y-79901245D01*
X140481798Y-79904387D01*
X140535048Y-79908195D01*
X140538157Y-79908530D01*
X140554631Y-79910899D01*
X140571271Y-79910899D01*
X140574408Y-79911011D01*
X140627646Y-79914819D01*
X140627646Y-79914818D01*
X140627648Y-79914819D01*
X140636434Y-79912907D01*
X140655118Y-79910899D01*
X141390323Y-79910899D01*
X141446824Y-79931464D01*
X141476888Y-79983535D01*
X141466447Y-80042749D01*
X141452478Y-80060954D01*
X141448514Y-80064917D01*
X141392265Y-80149097D01*
X141377500Y-80223333D01*
X141377500Y-80781467D01*
X141390426Y-80846452D01*
X141392266Y-80855700D01*
X141448516Y-80939883D01*
X141507527Y-80979313D01*
X141543081Y-81027803D01*
X141539148Y-81087801D01*
X141507528Y-81125484D01*
X141448519Y-81164913D01*
X141448514Y-81164918D01*
X141392265Y-81249098D01*
X141377500Y-81323334D01*
X141377500Y-81881468D01*
X141390426Y-81946453D01*
X141392266Y-81955701D01*
X141448516Y-82039884D01*
X141507527Y-82079314D01*
X141543080Y-82127804D01*
X141539146Y-82187802D01*
X141507527Y-82225485D01*
X141448516Y-82264916D01*
X141448514Y-82264918D01*
X141392265Y-82349098D01*
X141377500Y-82423334D01*
X141377500Y-82981468D01*
X141390426Y-83046453D01*
X141392266Y-83055701D01*
X141448516Y-83139884D01*
X141507527Y-83179314D01*
X141543080Y-83227804D01*
X141539146Y-83287802D01*
X141507527Y-83325485D01*
X141448516Y-83364916D01*
X141448514Y-83364918D01*
X141392265Y-83449098D01*
X141377500Y-83523334D01*
X141377500Y-84081468D01*
X141387910Y-84133799D01*
X141392266Y-84155701D01*
X141448516Y-84239884D01*
X141507527Y-84279314D01*
X141543081Y-84327804D01*
X141539148Y-84387802D01*
X141507528Y-84425485D01*
X141448519Y-84464914D01*
X141448514Y-84464919D01*
X141392265Y-84549099D01*
X141377500Y-84623335D01*
X141377500Y-85181470D01*
X141389698Y-85242795D01*
X141380550Y-85302222D01*
X141356165Y-85330309D01*
X141274811Y-85391211D01*
X141274808Y-85391214D01*
X141188647Y-85506310D01*
X141138400Y-85641026D01*
X141132000Y-85700564D01*
X141132000Y-85752400D01*
X141132001Y-85752401D01*
X142211455Y-85752401D01*
X142267956Y-85772966D01*
X142286935Y-85798850D01*
X142287456Y-85798503D01*
X142292265Y-85805701D01*
X142292266Y-85805702D01*
X142348516Y-85889885D01*
X142376705Y-85908720D01*
X142432698Y-85946135D01*
X142443261Y-85948236D01*
X142506933Y-85960901D01*
X142939599Y-85960900D01*
X142996100Y-85981465D01*
X143026164Y-86033536D01*
X143027499Y-86048800D01*
X143027499Y-86481468D01*
X143028969Y-86488856D01*
X143019819Y-86548283D01*
X142974610Y-86587924D01*
X142942757Y-86593899D01*
X142706929Y-86593899D01*
X142706927Y-86593900D01*
X142689597Y-86597347D01*
X142630170Y-86588199D01*
X142590527Y-86542992D01*
X142589217Y-86482879D01*
X142590093Y-86480418D01*
X142633599Y-86363775D01*
X142639999Y-86304237D01*
X142640000Y-86304228D01*
X142640000Y-86252402D01*
X142639999Y-86252401D01*
X142136001Y-86252401D01*
X142136000Y-86252402D01*
X142136000Y-86759991D01*
X142135999Y-86759993D01*
X142135999Y-87856398D01*
X142136000Y-87856399D01*
X142187826Y-87856399D01*
X142187835Y-87856398D01*
X142247373Y-87849998D01*
X142382089Y-87799751D01*
X142497185Y-87713590D01*
X142497189Y-87713586D01*
X142558088Y-87632235D01*
X142608411Y-87599327D01*
X142645603Y-87598700D01*
X142706932Y-87610899D01*
X143265065Y-87610898D01*
X143265067Y-87610898D01*
X143285297Y-87606874D01*
X143339300Y-87596133D01*
X143423483Y-87539883D01*
X143462913Y-87480871D01*
X143511403Y-87445318D01*
X143571401Y-87449251D01*
X143609084Y-87480871D01*
X143648515Y-87539883D01*
X143665132Y-87550986D01*
X143732697Y-87596133D01*
X143739218Y-87597430D01*
X143806932Y-87610899D01*
X144365065Y-87610898D01*
X144365067Y-87610898D01*
X144385297Y-87606874D01*
X144439300Y-87596133D01*
X144523483Y-87539883D01*
X144562915Y-87480869D01*
X144611402Y-87445318D01*
X144671400Y-87449250D01*
X144709084Y-87480870D01*
X144748516Y-87539883D01*
X144765133Y-87550986D01*
X144832698Y-87596133D01*
X144839219Y-87597430D01*
X144906933Y-87610899D01*
X145465066Y-87610898D01*
X145465068Y-87610898D01*
X145485298Y-87606874D01*
X145539301Y-87596133D01*
X145623484Y-87539883D01*
X145662914Y-87480871D01*
X145711404Y-87445318D01*
X145771402Y-87449251D01*
X145809085Y-87480871D01*
X145848516Y-87539883D01*
X145865133Y-87550986D01*
X145932698Y-87596133D01*
X145939219Y-87597430D01*
X146006933Y-87610899D01*
X146565066Y-87610898D01*
X146565068Y-87610898D01*
X146585298Y-87606874D01*
X146639301Y-87596133D01*
X146723484Y-87539883D01*
X146762914Y-87480871D01*
X146811404Y-87445318D01*
X146871402Y-87449251D01*
X146909085Y-87480871D01*
X146948516Y-87539883D01*
X147003536Y-87576646D01*
X147039088Y-87625134D01*
X147042600Y-87649731D01*
X147042600Y-88579149D01*
X147022035Y-88635650D01*
X147016851Y-88641307D01*
X147008408Y-88649749D01*
X146953913Y-88675157D01*
X146895835Y-88659591D01*
X146861351Y-88610336D01*
X146859109Y-88576117D01*
X146863285Y-88544400D01*
X146844228Y-88399646D01*
X146788355Y-88264758D01*
X146723652Y-88180435D01*
X146699477Y-88148929D01*
X146699475Y-88148927D01*
X146699474Y-88148926D01*
X146641558Y-88104485D01*
X146583645Y-88060046D01*
X146583643Y-88060045D01*
X146448754Y-88004172D01*
X146304000Y-87985115D01*
X146159245Y-88004172D01*
X146024358Y-88060044D01*
X145908529Y-88148922D01*
X145908526Y-88148925D01*
X145894957Y-88166610D01*
X145844246Y-88198916D01*
X145825221Y-88201000D01*
X137159500Y-88201000D01*
X137102999Y-88180435D01*
X137072935Y-88128364D01*
X137071600Y-88113100D01*
X137071600Y-88047114D01*
X137092165Y-87990613D01*
X137142353Y-87960903D01*
X137176218Y-87954167D01*
X137197501Y-87949934D01*
X137281684Y-87893684D01*
X137290115Y-87881066D01*
X137338603Y-87845514D01*
X137398602Y-87849446D01*
X137436284Y-87881066D01*
X137444716Y-87893684D01*
X137472905Y-87912519D01*
X137528898Y-87949934D01*
X137539461Y-87952035D01*
X137603133Y-87964700D01*
X138393266Y-87964699D01*
X138393268Y-87964699D01*
X138412351Y-87960903D01*
X138467501Y-87949934D01*
X138551684Y-87893684D01*
X138607934Y-87809501D01*
X138622700Y-87735267D01*
X138622699Y-87637549D01*
X138643263Y-87581050D01*
X138695334Y-87550986D01*
X138754548Y-87561426D01*
X138772754Y-87575395D01*
X138804232Y-87606874D01*
X138806823Y-87609702D01*
X138834861Y-87643117D01*
X138872650Y-87664934D01*
X138875885Y-87666995D01*
X138911634Y-87692027D01*
X138915276Y-87693002D01*
X138936474Y-87701783D01*
X138939739Y-87703668D01*
X138982709Y-87711244D01*
X138986455Y-87712075D01*
X139004266Y-87716846D01*
X139028609Y-87723370D01*
X139065796Y-87720116D01*
X139072082Y-87719567D01*
X139075914Y-87719400D01*
X139195821Y-87719400D01*
X139252322Y-87739965D01*
X139265554Y-87753787D01*
X139279126Y-87771474D01*
X139279129Y-87771476D01*
X139381459Y-87849998D01*
X139394957Y-87860355D01*
X139529846Y-87916228D01*
X139674600Y-87935285D01*
X139819354Y-87916228D01*
X139954243Y-87860355D01*
X140070074Y-87771474D01*
X140158955Y-87655643D01*
X140214828Y-87520754D01*
X140230168Y-87404235D01*
X141131999Y-87404235D01*
X141138399Y-87463773D01*
X141188646Y-87598489D01*
X141274807Y-87713585D01*
X141274812Y-87713590D01*
X141389908Y-87799751D01*
X141524624Y-87849998D01*
X141584162Y-87856398D01*
X141584172Y-87856399D01*
X141635998Y-87856399D01*
X141635999Y-87856398D01*
X141635999Y-87352400D01*
X141635998Y-87352399D01*
X141132000Y-87352399D01*
X141131999Y-87352400D01*
X141131999Y-87404235D01*
X140230168Y-87404235D01*
X140233885Y-87376000D01*
X140214828Y-87231246D01*
X140158955Y-87096358D01*
X140110032Y-87032600D01*
X140070077Y-86980529D01*
X140070075Y-86980527D01*
X140070074Y-86980526D01*
X140012158Y-86936085D01*
X139954245Y-86891646D01*
X139954243Y-86891645D01*
X139859493Y-86852398D01*
X141131999Y-86852398D01*
X141132000Y-86852399D01*
X141635998Y-86852399D01*
X141635999Y-86852398D01*
X141635999Y-86344809D01*
X141636000Y-86344806D01*
X141636000Y-86252402D01*
X141635999Y-86252401D01*
X141132001Y-86252401D01*
X141132000Y-86252402D01*
X141132000Y-86304237D01*
X141138400Y-86363775D01*
X141188647Y-86498491D01*
X141189569Y-86499722D01*
X141189878Y-86500746D01*
X141191660Y-86504009D01*
X141190977Y-86504381D01*
X141206967Y-86557277D01*
X141191218Y-86600554D01*
X141191658Y-86600795D01*
X141190077Y-86603689D01*
X141189576Y-86605067D01*
X141188648Y-86606306D01*
X141188645Y-86606311D01*
X141138399Y-86741024D01*
X141131999Y-86800562D01*
X141131999Y-86852398D01*
X139859493Y-86852398D01*
X139819354Y-86835772D01*
X139674600Y-86816715D01*
X139529845Y-86835772D01*
X139394958Y-86891644D01*
X139279120Y-86980529D01*
X139276296Y-86983354D01*
X139221801Y-87008761D01*
X139163723Y-86993195D01*
X139151991Y-86983350D01*
X138648444Y-86479803D01*
X138623033Y-86425309D01*
X138622699Y-86417648D01*
X138622699Y-84895131D01*
X138610889Y-84835758D01*
X138607934Y-84820899D01*
X138551684Y-84736716D01*
X138526558Y-84719927D01*
X138467501Y-84680465D01*
X138414392Y-84669902D01*
X138393267Y-84665700D01*
X138393265Y-84665700D01*
X137603131Y-84665700D01*
X137528899Y-84680466D01*
X137444717Y-84736715D01*
X137444712Y-84736720D01*
X137436282Y-84749336D01*
X137387791Y-84784887D01*
X137327793Y-84780951D01*
X137290114Y-84749333D01*
X137281684Y-84736716D01*
X137256558Y-84719927D01*
X137197501Y-84680465D01*
X137144392Y-84669902D01*
X137123267Y-84665700D01*
X137123265Y-84665700D01*
X136333131Y-84665700D01*
X136258899Y-84680466D01*
X136174717Y-84736715D01*
X136174712Y-84736720D01*
X136166282Y-84749336D01*
X136117791Y-84784887D01*
X136057793Y-84780951D01*
X136020114Y-84749333D01*
X136011684Y-84736716D01*
X135986558Y-84719927D01*
X135927501Y-84680465D01*
X135874392Y-84669902D01*
X135853267Y-84665700D01*
X135853265Y-84665700D01*
X135063131Y-84665700D01*
X134988899Y-84680466D01*
X134904717Y-84736715D01*
X134904712Y-84736720D01*
X134896282Y-84749336D01*
X134847791Y-84784887D01*
X134787793Y-84780951D01*
X134750114Y-84749333D01*
X134741684Y-84736716D01*
X134716558Y-84719927D01*
X134657501Y-84680465D01*
X134604392Y-84669902D01*
X134583267Y-84665700D01*
X134583265Y-84665700D01*
X133793131Y-84665700D01*
X133718899Y-84680466D01*
X133634717Y-84736715D01*
X133634712Y-84736720D01*
X133626282Y-84749336D01*
X133577791Y-84784887D01*
X133517793Y-84780951D01*
X133480114Y-84749333D01*
X133471684Y-84736716D01*
X133446558Y-84719927D01*
X133387501Y-84680465D01*
X133334392Y-84669902D01*
X133313267Y-84665700D01*
X133313265Y-84665700D01*
X132523131Y-84665700D01*
X132448899Y-84680466D01*
X132364717Y-84736715D01*
X132364714Y-84736718D01*
X132308465Y-84820898D01*
X132300509Y-84860900D01*
X132293701Y-84895131D01*
X132293700Y-84895134D01*
X132293700Y-87735268D01*
X132306166Y-87797937D01*
X132308466Y-87809501D01*
X132364716Y-87893684D01*
X132448899Y-87949934D01*
X132523133Y-87964700D01*
X132650647Y-87964699D01*
X132707149Y-87985263D01*
X132712803Y-87990444D01*
X134086532Y-89364174D01*
X134089123Y-89367002D01*
X134117162Y-89400417D01*
X134154952Y-89422235D01*
X134158189Y-89424297D01*
X134193932Y-89449325D01*
X134193934Y-89449326D01*
X134197568Y-89450299D01*
X134218775Y-89459083D01*
X134222039Y-89460968D01*
X134265023Y-89468546D01*
X134268760Y-89469376D01*
X134278485Y-89471981D01*
X134310909Y-89480670D01*
X134354385Y-89476866D01*
X134358200Y-89476700D01*
X146993600Y-89476700D01*
X146997414Y-89476866D01*
X147033154Y-89479993D01*
X147040889Y-89480670D01*
X147040889Y-89480669D01*
X147040891Y-89480670D01*
X147083049Y-89469372D01*
X147086771Y-89468547D01*
X147129761Y-89460968D01*
X147133020Y-89459085D01*
X147154227Y-89450302D01*
X147154242Y-89450298D01*
X147157866Y-89449327D01*
X147193627Y-89424285D01*
X147196836Y-89422240D01*
X147234638Y-89400417D01*
X147262683Y-89366993D01*
X147265269Y-89364171D01*
X147616884Y-89012555D01*
X147619693Y-89009982D01*
X147653117Y-88981938D01*
X147674933Y-88944147D01*
X147676994Y-88940915D01*
X147686706Y-88927044D01*
X147702026Y-88905166D01*
X147703001Y-88901526D01*
X147711786Y-88880321D01*
X147713667Y-88877063D01*
X147713667Y-88877062D01*
X147713668Y-88877061D01*
X147721250Y-88834057D01*
X147722069Y-88830360D01*
X147733370Y-88788191D01*
X147729566Y-88744714D01*
X147729400Y-88740900D01*
X147729400Y-87649731D01*
X147749965Y-87593230D01*
X147768460Y-87576648D01*
X147823484Y-87539883D01*
X147862916Y-87480869D01*
X147911403Y-87445318D01*
X147971401Y-87449250D01*
X148009085Y-87480870D01*
X148048517Y-87539883D01*
X148065134Y-87550986D01*
X148132699Y-87596133D01*
X148139220Y-87597430D01*
X148206934Y-87610899D01*
X148765067Y-87610898D01*
X148765069Y-87610898D01*
X148826396Y-87598700D01*
X148839302Y-87596133D01*
X148839302Y-87596132D01*
X148847793Y-87594444D01*
X148848107Y-87596024D01*
X148898625Y-87593814D01*
X148946330Y-87630414D01*
X148959348Y-87689115D01*
X148934354Y-87739803D01*
X148711126Y-87963031D01*
X148656632Y-87988442D01*
X148637499Y-87988024D01*
X148615401Y-87985115D01*
X148615400Y-87985115D01*
X148470645Y-88004172D01*
X148335758Y-88060044D01*
X148219927Y-88148924D01*
X148219924Y-88148927D01*
X148131044Y-88264758D01*
X148075172Y-88399645D01*
X148056115Y-88544399D01*
X148056115Y-88544400D01*
X148075172Y-88689154D01*
X148131045Y-88824043D01*
X148131046Y-88824045D01*
X148193293Y-88905166D01*
X148219926Y-88939874D01*
X148335757Y-89028755D01*
X148470646Y-89084628D01*
X148615400Y-89103685D01*
X148760154Y-89084628D01*
X148895043Y-89028755D01*
X149010874Y-88939874D01*
X149099755Y-88824043D01*
X149155628Y-88689154D01*
X149174685Y-88544400D01*
X149171775Y-88522299D01*
X149184788Y-88463599D01*
X149196763Y-88448676D01*
X149816885Y-87828554D01*
X149819694Y-87825981D01*
X149853118Y-87797937D01*
X149874934Y-87760146D01*
X149876995Y-87756914D01*
X149885201Y-87745193D01*
X149902027Y-87721165D01*
X149902230Y-87720404D01*
X149902682Y-87719759D01*
X149905278Y-87714193D01*
X149906258Y-87714650D01*
X149936711Y-87671149D01*
X149994787Y-87655580D01*
X150049284Y-87680983D01*
X150057504Y-87690468D01*
X150074811Y-87713587D01*
X150074814Y-87713590D01*
X150189910Y-87799751D01*
X150324626Y-87849998D01*
X150384164Y-87856398D01*
X150384174Y-87856399D01*
X150436000Y-87856399D01*
X150436001Y-87856398D01*
X150436001Y-86940299D01*
X150456566Y-86883798D01*
X150508637Y-86853734D01*
X150523901Y-86852399D01*
X150642803Y-86852399D01*
X150699304Y-86872964D01*
X150729368Y-86925035D01*
X150730702Y-86940493D01*
X150726036Y-89028753D01*
X150724421Y-89751596D01*
X150703730Y-89808051D01*
X150651591Y-89837998D01*
X150636521Y-89839300D01*
X138692650Y-89839300D01*
X122134269Y-89814530D01*
X122077798Y-89793881D01*
X122047813Y-89741764D01*
X122046501Y-89727142D01*
X122016974Y-84553938D01*
X123873900Y-84553938D01*
X123914827Y-84799209D01*
X123914830Y-84799218D01*
X123995569Y-85034403D01*
X123995570Y-85034406D01*
X123995572Y-85034410D01*
X124113926Y-85253109D01*
X124113928Y-85253112D01*
X124266663Y-85449345D01*
X124449618Y-85617767D01*
X124449620Y-85617768D01*
X124536739Y-85674685D01*
X124657793Y-85753773D01*
X124759767Y-85798503D01*
X124885514Y-85853661D01*
X124885522Y-85853664D01*
X125126573Y-85914707D01*
X125126579Y-85914708D01*
X125312331Y-85930100D01*
X125312333Y-85930100D01*
X125436469Y-85930100D01*
X125560303Y-85919838D01*
X125622221Y-85914708D01*
X125622222Y-85914707D01*
X125622226Y-85914707D01*
X125863277Y-85853664D01*
X125863276Y-85853664D01*
X125863281Y-85853663D01*
X126091007Y-85753773D01*
X126299179Y-85617768D01*
X126299181Y-85617767D01*
X126299182Y-85617765D01*
X126299185Y-85617764D01*
X126482138Y-85449344D01*
X126634874Y-85253109D01*
X126753228Y-85034410D01*
X126833971Y-84799214D01*
X126835528Y-84789884D01*
X126874900Y-84553938D01*
X126874900Y-84305261D01*
X126833972Y-84059990D01*
X126833969Y-84059981D01*
X126810296Y-83991025D01*
X126753228Y-83824790D01*
X126634874Y-83606091D01*
X126634570Y-83605701D01*
X126576790Y-83531465D01*
X126482138Y-83409856D01*
X126482136Y-83409854D01*
X126299181Y-83241432D01*
X126299179Y-83241431D01*
X126091013Y-83105431D01*
X126091007Y-83105427D01*
X126090996Y-83105422D01*
X125863285Y-83005538D01*
X125863277Y-83005535D01*
X125622226Y-82944492D01*
X125622220Y-82944491D01*
X125436469Y-82929100D01*
X125436467Y-82929100D01*
X125312333Y-82929100D01*
X125312331Y-82929100D01*
X125126579Y-82944491D01*
X125126573Y-82944492D01*
X124885522Y-83005535D01*
X124885514Y-83005538D01*
X124657803Y-83105422D01*
X124657796Y-83105425D01*
X124657793Y-83105427D01*
X124657790Y-83105428D01*
X124657786Y-83105431D01*
X124449620Y-83241431D01*
X124449618Y-83241432D01*
X124266663Y-83409854D01*
X124113928Y-83606087D01*
X123995569Y-83824796D01*
X123914830Y-84059981D01*
X123914827Y-84059990D01*
X123873900Y-84305261D01*
X123873900Y-84553938D01*
X122016974Y-84553938D01*
X122006655Y-82746060D01*
X122026896Y-82689447D01*
X122078795Y-82659087D01*
X122094822Y-82657664D01*
X132206087Y-82690281D01*
X132262518Y-82711027D01*
X132292413Y-82763196D01*
X132293700Y-82778180D01*
X132293700Y-83665268D01*
X132304708Y-83720609D01*
X132308466Y-83739501D01*
X132364716Y-83823684D01*
X132392905Y-83842519D01*
X132448898Y-83879934D01*
X132459461Y-83882035D01*
X132523133Y-83894700D01*
X133313266Y-83894699D01*
X133313268Y-83894699D01*
X133331761Y-83891020D01*
X133387501Y-83879934D01*
X133471684Y-83823684D01*
X133480115Y-83811066D01*
X133528603Y-83775514D01*
X133588602Y-83779446D01*
X133626284Y-83811066D01*
X133634716Y-83823684D01*
X133662905Y-83842519D01*
X133718898Y-83879934D01*
X133729461Y-83882035D01*
X133793133Y-83894700D01*
X134583266Y-83894699D01*
X134590630Y-83893234D01*
X134650056Y-83902381D01*
X134678144Y-83926768D01*
X134731012Y-83997390D01*
X134846109Y-84083552D01*
X134980825Y-84133799D01*
X135040363Y-84140199D01*
X135040373Y-84140200D01*
X135208199Y-84140200D01*
X135208200Y-84140199D01*
X135708200Y-84140199D01*
X135708201Y-84140200D01*
X135876027Y-84140200D01*
X135876036Y-84140199D01*
X135935574Y-84133798D01*
X136062482Y-84086465D01*
X136122607Y-84085988D01*
X136123918Y-84086465D01*
X136250825Y-84133798D01*
X136310363Y-84140199D01*
X136310373Y-84140200D01*
X136478199Y-84140200D01*
X136478200Y-84140199D01*
X136478200Y-82495201D01*
X136478199Y-82495200D01*
X135708201Y-82495200D01*
X135708200Y-82495201D01*
X135708200Y-84140199D01*
X135208200Y-84140199D01*
X135208200Y-82083100D01*
X135228765Y-82026599D01*
X135280836Y-81996535D01*
X135296100Y-81995200D01*
X136890300Y-81995200D01*
X136946801Y-82015765D01*
X136976865Y-82067836D01*
X136978200Y-82083100D01*
X136978200Y-84140199D01*
X136978201Y-84140200D01*
X137146027Y-84140200D01*
X137146036Y-84140199D01*
X137205574Y-84133799D01*
X137340290Y-84083552D01*
X137455386Y-83997391D01*
X137508253Y-83926770D01*
X137558576Y-83893862D01*
X137595768Y-83893235D01*
X137603133Y-83894700D01*
X138393266Y-83894699D01*
X138393268Y-83894699D01*
X138411761Y-83891020D01*
X138467501Y-83879934D01*
X138551684Y-83823684D01*
X138607934Y-83739501D01*
X138622700Y-83665267D01*
X138622699Y-80825134D01*
X138622699Y-80825131D01*
X138617180Y-80797390D01*
X138607934Y-80750899D01*
X138551684Y-80666716D01*
X138551683Y-80666715D01*
X138518463Y-80644517D01*
X138482911Y-80596027D01*
X138479400Y-80571432D01*
X138479400Y-80077572D01*
X138499965Y-80021071D01*
X138514624Y-80007204D01*
X138572374Y-79963974D01*
X138657158Y-79850715D01*
X138706600Y-79718157D01*
X138712900Y-79659557D01*
X138712899Y-79090444D01*
X138706600Y-79031843D01*
X138704061Y-79025037D01*
X138666128Y-78923335D01*
X138657158Y-78899285D01*
X138572374Y-78786026D01*
X138459115Y-78701242D01*
X138326557Y-78651800D01*
X138326554Y-78651799D01*
X138326546Y-78651798D01*
X138267965Y-78645500D01*
X138267957Y-78645500D01*
X138015400Y-78645500D01*
X137958899Y-78624935D01*
X137928835Y-78572864D01*
X137927500Y-78557600D01*
X137927500Y-77863200D01*
X137948065Y-77806699D01*
X138000136Y-77776635D01*
X138015400Y-77775300D01*
X138208362Y-77775300D01*
X138264863Y-77795865D01*
G37*
%TD.AperFunction*%
%TA.AperFunction,Conductor*%
G36*
X142706932Y-78810901D02*
G01*
X142942757Y-78810900D01*
X142999258Y-78831464D01*
X143029322Y-78883536D01*
X143028969Y-78915944D01*
X143027499Y-78923335D01*
X143027499Y-79481467D01*
X143029202Y-79490025D01*
X143033157Y-79509911D01*
X143034311Y-79515709D01*
X143036000Y-79532858D01*
X143036000Y-79702398D01*
X143036001Y-79702399D01*
X143205532Y-79702399D01*
X143222680Y-79704087D01*
X143256932Y-79710901D01*
X143815065Y-79710900D01*
X143815067Y-79710900D01*
X143833560Y-79707221D01*
X143889300Y-79696135D01*
X143973483Y-79639885D01*
X144012915Y-79580871D01*
X144061402Y-79545320D01*
X144121400Y-79549252D01*
X144159084Y-79580872D01*
X144198516Y-79639885D01*
X144226705Y-79658720D01*
X144282698Y-79696135D01*
X144293261Y-79698236D01*
X144356933Y-79710901D01*
X144915066Y-79710900D01*
X144915068Y-79710900D01*
X144933561Y-79707221D01*
X144989301Y-79696135D01*
X145073484Y-79639885D01*
X145112914Y-79580873D01*
X145161404Y-79545320D01*
X145221402Y-79549253D01*
X145259085Y-79580873D01*
X145298516Y-79639885D01*
X145326705Y-79658720D01*
X145382698Y-79696135D01*
X145393261Y-79698236D01*
X145456933Y-79710901D01*
X146015066Y-79710900D01*
X146015068Y-79710900D01*
X146033561Y-79707221D01*
X146089301Y-79696135D01*
X146173484Y-79639885D01*
X146212914Y-79580873D01*
X146261404Y-79545320D01*
X146321402Y-79549253D01*
X146359085Y-79580873D01*
X146398516Y-79639885D01*
X146426705Y-79658720D01*
X146482698Y-79696135D01*
X146493261Y-79698236D01*
X146556933Y-79710901D01*
X147115066Y-79710900D01*
X147115068Y-79710900D01*
X147133561Y-79707221D01*
X147189301Y-79696135D01*
X147273484Y-79639885D01*
X147312916Y-79580871D01*
X147361403Y-79545320D01*
X147421401Y-79549252D01*
X147459085Y-79580872D01*
X147498517Y-79639885D01*
X147526706Y-79658720D01*
X147582699Y-79696135D01*
X147593262Y-79698236D01*
X147656934Y-79710901D01*
X148215067Y-79710900D01*
X148215069Y-79710900D01*
X148249316Y-79704088D01*
X148276394Y-79698702D01*
X148335821Y-79707849D01*
X148363909Y-79732236D01*
X148424809Y-79813587D01*
X148424814Y-79813592D01*
X148539910Y-79899753D01*
X148674626Y-79950000D01*
X148734164Y-79956400D01*
X148734174Y-79956401D01*
X148786000Y-79956401D01*
X148786001Y-79956400D01*
X149286001Y-79956400D01*
X149286002Y-79956401D01*
X149337828Y-79956401D01*
X149337837Y-79956400D01*
X149397375Y-79950000D01*
X149532090Y-79899753D01*
X149533320Y-79898833D01*
X149534345Y-79898522D01*
X149537609Y-79896741D01*
X149537981Y-79897423D01*
X149590875Y-79881432D01*
X149634151Y-79897183D01*
X149634393Y-79896741D01*
X149637309Y-79898333D01*
X149638682Y-79898833D01*
X149639911Y-79899753D01*
X149774626Y-79950000D01*
X149834164Y-79956400D01*
X149834174Y-79956401D01*
X149886000Y-79956401D01*
X149886001Y-79956400D01*
X149886001Y-79452402D01*
X149886000Y-79452401D01*
X149286002Y-79452401D01*
X149286001Y-79452402D01*
X149286001Y-79956400D01*
X148786001Y-79956400D01*
X148786001Y-79040301D01*
X148806566Y-78983800D01*
X148858637Y-78953736D01*
X148873901Y-78952401D01*
X150298101Y-78952401D01*
X150354602Y-78972966D01*
X150384666Y-79025037D01*
X150386001Y-79040301D01*
X150386001Y-79956400D01*
X150386002Y-79956401D01*
X150437828Y-79956401D01*
X150437837Y-79956400D01*
X150497375Y-79950000D01*
X150627630Y-79901417D01*
X150687755Y-79900940D01*
X150734120Y-79939222D01*
X150746248Y-79983971D01*
X150733442Y-85714736D01*
X150712751Y-85771191D01*
X150660612Y-85801138D01*
X150601422Y-85790565D01*
X150580095Y-85770547D01*
X150579606Y-85771037D01*
X150573487Y-85764918D01*
X150573485Y-85764915D01*
X150492927Y-85711087D01*
X150465640Y-85681952D01*
X150461785Y-85675275D01*
X150453004Y-85654080D01*
X150452028Y-85650435D01*
X150426996Y-85614686D01*
X150424935Y-85611451D01*
X150403118Y-85573663D01*
X150369700Y-85545622D01*
X150366872Y-85543031D01*
X150034968Y-85211127D01*
X150009557Y-85156633D01*
X150009974Y-85137503D01*
X150012885Y-85115400D01*
X150011182Y-85102469D01*
X150024194Y-85043770D01*
X150071895Y-85007165D01*
X150131965Y-85009786D01*
X150151007Y-85020629D01*
X150189910Y-85049752D01*
X150324626Y-85099999D01*
X150384164Y-85106399D01*
X150384174Y-85106400D01*
X150436000Y-85106400D01*
X150436001Y-85106399D01*
X150436001Y-84602401D01*
X150436000Y-84602400D01*
X149932002Y-84602400D01*
X149932001Y-84602401D01*
X149932001Y-84605314D01*
X149911436Y-84661815D01*
X149859365Y-84691879D01*
X149800151Y-84681438D01*
X149790590Y-84675049D01*
X149733245Y-84631046D01*
X149733243Y-84631045D01*
X149598354Y-84575172D01*
X149453600Y-84556115D01*
X149308845Y-84575172D01*
X149173958Y-84631044D01*
X149058127Y-84719924D01*
X149058124Y-84719927D01*
X148969244Y-84835758D01*
X148913372Y-84970645D01*
X148894315Y-85115399D01*
X148894315Y-85115400D01*
X148913372Y-85260154D01*
X148969245Y-85395043D01*
X148969246Y-85395045D01*
X149047920Y-85497574D01*
X149058126Y-85510874D01*
X149091214Y-85536264D01*
X149123520Y-85586974D01*
X149115672Y-85646587D01*
X149071342Y-85687208D01*
X149037704Y-85693899D01*
X148756932Y-85693899D01*
X148682700Y-85708665D01*
X148598518Y-85764914D01*
X148598514Y-85764918D01*
X148559085Y-85823926D01*
X148510595Y-85859479D01*
X148450597Y-85855545D01*
X148412915Y-85823926D01*
X148373485Y-85764915D01*
X148354757Y-85752401D01*
X148289302Y-85708664D01*
X148236193Y-85698101D01*
X148215068Y-85693899D01*
X148215066Y-85693899D01*
X147656932Y-85693899D01*
X147582700Y-85708665D01*
X147498518Y-85764914D01*
X147498514Y-85764918D01*
X147459085Y-85823927D01*
X147410596Y-85859480D01*
X147350597Y-85855546D01*
X147312914Y-85823926D01*
X147273484Y-85764915D01*
X147254756Y-85752401D01*
X147189301Y-85708664D01*
X147136192Y-85698101D01*
X147115067Y-85693899D01*
X147115065Y-85693899D01*
X146556931Y-85693899D01*
X146482699Y-85708665D01*
X146398517Y-85764914D01*
X146398513Y-85764918D01*
X146359084Y-85823926D01*
X146310594Y-85859479D01*
X146250596Y-85855545D01*
X146212914Y-85823926D01*
X146173484Y-85764915D01*
X146154756Y-85752401D01*
X146089301Y-85708664D01*
X146036192Y-85698101D01*
X146015067Y-85693899D01*
X146015065Y-85693899D01*
X145456931Y-85693899D01*
X145382699Y-85708665D01*
X145298517Y-85764914D01*
X145298513Y-85764918D01*
X145259084Y-85823926D01*
X145210594Y-85859479D01*
X145150596Y-85855545D01*
X145112914Y-85823926D01*
X145073484Y-85764915D01*
X145054756Y-85752401D01*
X144989301Y-85708664D01*
X144936192Y-85698101D01*
X144915067Y-85693899D01*
X144915065Y-85693899D01*
X144356931Y-85693899D01*
X144282699Y-85708665D01*
X144198517Y-85764914D01*
X144198513Y-85764918D01*
X144159084Y-85823927D01*
X144110595Y-85859480D01*
X144050596Y-85855546D01*
X144012913Y-85823926D01*
X143973483Y-85764915D01*
X143954755Y-85752401D01*
X143889300Y-85708664D01*
X143836191Y-85698101D01*
X143815066Y-85693899D01*
X143815064Y-85693899D01*
X143382399Y-85693899D01*
X143325898Y-85673334D01*
X143295834Y-85621263D01*
X143294499Y-85605999D01*
X143294499Y-85173332D01*
X143287371Y-85137496D01*
X143279734Y-85099100D01*
X143223484Y-85014917D01*
X143164471Y-84975485D01*
X143128918Y-84926996D01*
X143132851Y-84866998D01*
X143164469Y-84829316D01*
X143223484Y-84789884D01*
X143279734Y-84705701D01*
X143294500Y-84631467D01*
X143294499Y-84102399D01*
X149932001Y-84102399D01*
X149932002Y-84102400D01*
X150436000Y-84102400D01*
X150436001Y-84102399D01*
X150436001Y-83598401D01*
X150436000Y-83598400D01*
X150384164Y-83598400D01*
X150324626Y-83604800D01*
X150189910Y-83655047D01*
X150074814Y-83741208D01*
X150074809Y-83741213D01*
X149988648Y-83856309D01*
X149938401Y-83991025D01*
X149932001Y-84050563D01*
X149932001Y-84102399D01*
X143294499Y-84102399D01*
X143294499Y-84073334D01*
X143294499Y-84073331D01*
X143288980Y-84045590D01*
X143279734Y-83999099D01*
X143223484Y-83914916D01*
X143223480Y-83914913D01*
X143164472Y-83875484D01*
X143128919Y-83826995D01*
X143132853Y-83766996D01*
X143164472Y-83729314D01*
X143223484Y-83689884D01*
X143279734Y-83605701D01*
X143294500Y-83531467D01*
X143294499Y-82973334D01*
X143294499Y-82973331D01*
X143285701Y-82929100D01*
X143279734Y-82899099D01*
X143223484Y-82814916D01*
X143223480Y-82814913D01*
X143164472Y-82775484D01*
X143128919Y-82726995D01*
X143132853Y-82666996D01*
X143164472Y-82629314D01*
X143223484Y-82589884D01*
X143279734Y-82505701D01*
X143294500Y-82431467D01*
X143294499Y-81873334D01*
X143294499Y-81873331D01*
X143288980Y-81845590D01*
X143279734Y-81799099D01*
X143223484Y-81714916D01*
X143164471Y-81675484D01*
X143128918Y-81626995D01*
X143132851Y-81566997D01*
X143164469Y-81529315D01*
X143223484Y-81489883D01*
X143279734Y-81405700D01*
X143289971Y-81354236D01*
X149932001Y-81354236D01*
X149938401Y-81413774D01*
X149988648Y-81548490D01*
X150074809Y-81663586D01*
X150074814Y-81663591D01*
X150189910Y-81749752D01*
X150324626Y-81799999D01*
X150384164Y-81806399D01*
X150384174Y-81806400D01*
X150436000Y-81806400D01*
X150436001Y-81806399D01*
X150436001Y-81302401D01*
X150436000Y-81302400D01*
X149932002Y-81302400D01*
X149932001Y-81302401D01*
X149932001Y-81354236D01*
X143289971Y-81354236D01*
X143294500Y-81331466D01*
X143294499Y-80802399D01*
X149932001Y-80802399D01*
X149932002Y-80802400D01*
X150436000Y-80802400D01*
X150436001Y-80802399D01*
X150436001Y-80298401D01*
X150436000Y-80298400D01*
X150384164Y-80298400D01*
X150324626Y-80304800D01*
X150189910Y-80355047D01*
X150074814Y-80441208D01*
X150074809Y-80441213D01*
X149988648Y-80556309D01*
X149938401Y-80691025D01*
X149932001Y-80750563D01*
X149932001Y-80802399D01*
X143294499Y-80802399D01*
X143294499Y-80773333D01*
X143294499Y-80773330D01*
X143282301Y-80712005D01*
X143291448Y-80652578D01*
X143315835Y-80624490D01*
X143397186Y-80563590D01*
X143397191Y-80563585D01*
X143483352Y-80448489D01*
X143533599Y-80313773D01*
X143539999Y-80254235D01*
X143540000Y-80254226D01*
X143540000Y-80202400D01*
X143539999Y-80202399D01*
X142623900Y-80202399D01*
X142567399Y-80181834D01*
X142537335Y-80129763D01*
X142536000Y-80114499D01*
X142536000Y-79198400D01*
X142535999Y-79198399D01*
X142481818Y-79198399D01*
X142481818Y-79197006D01*
X142428549Y-79180626D01*
X142395883Y-79130146D01*
X142395458Y-79127545D01*
X142395342Y-79127569D01*
X142382301Y-79062005D01*
X142391448Y-79002578D01*
X142415836Y-78974489D01*
X142497186Y-78913591D01*
X142497189Y-78913588D01*
X142558088Y-78832237D01*
X142608411Y-78799329D01*
X142645603Y-78798702D01*
X142706932Y-78810901D01*
G37*
%TD.AperFunction*%
%TA.AperFunction,Conductor*%
G36*
X141700601Y-70836265D02*
G01*
X141730665Y-70888336D01*
X141732000Y-70903600D01*
X141732000Y-74976000D01*
X142183922Y-74976000D01*
X142240423Y-74996565D01*
X142270487Y-75048636D01*
X142271147Y-75053026D01*
X142274985Y-75083813D01*
X142274986Y-75083816D01*
X142277063Y-75090792D01*
X142276481Y-75090965D01*
X142276600Y-75091336D01*
X142277173Y-75091140D01*
X142279535Y-75098022D01*
X142304322Y-75143823D01*
X142327182Y-75190584D01*
X142331411Y-75196507D01*
X142330916Y-75196860D01*
X142331146Y-75197169D01*
X142331626Y-75196797D01*
X142336101Y-75202547D01*
X142374413Y-75237814D01*
X143704154Y-76567555D01*
X143729565Y-76622049D01*
X143729899Y-76629710D01*
X143729899Y-77763554D01*
X143709334Y-77820055D01*
X143690834Y-77836640D01*
X143648517Y-77864915D01*
X143648512Y-77864920D01*
X143609083Y-77923928D01*
X143560593Y-77959481D01*
X143500595Y-77955547D01*
X143462913Y-77923928D01*
X143423483Y-77864917D01*
X143420913Y-77863200D01*
X143339300Y-77808666D01*
X143280399Y-77796951D01*
X143265066Y-77793901D01*
X143265064Y-77793901D01*
X142706929Y-77793901D01*
X142645604Y-77806099D01*
X142586176Y-77796951D01*
X142558090Y-77772565D01*
X142497190Y-77691214D01*
X142497185Y-77691209D01*
X142382089Y-77605048D01*
X142247373Y-77554801D01*
X142187835Y-77548401D01*
X142136000Y-77548401D01*
X142135999Y-77548402D01*
X142135999Y-78464501D01*
X142115434Y-78521002D01*
X142063363Y-78551066D01*
X142048099Y-78552401D01*
X141132000Y-78552401D01*
X141131999Y-78552402D01*
X141131999Y-78604237D01*
X141138399Y-78663775D01*
X141179990Y-78775281D01*
X141180467Y-78835406D01*
X141142185Y-78881771D01*
X141097632Y-78893899D01*
X140838037Y-78893899D01*
X140781536Y-78873334D01*
X140775882Y-78868154D01*
X139960128Y-78052400D01*
X141131999Y-78052400D01*
X141132000Y-78052401D01*
X141635998Y-78052401D01*
X141635999Y-78052400D01*
X141635999Y-77548402D01*
X141635998Y-77548401D01*
X141584162Y-77548401D01*
X141524624Y-77554801D01*
X141389908Y-77605048D01*
X141274812Y-77691209D01*
X141274807Y-77691214D01*
X141188646Y-77806310D01*
X141138399Y-77941026D01*
X141131999Y-78000564D01*
X141131999Y-78052400D01*
X139960128Y-78052400D01*
X138860299Y-76952571D01*
X138848507Y-76937937D01*
X138843651Y-76930381D01*
X138843649Y-76930378D01*
X138835452Y-76923275D01*
X138803313Y-76895427D01*
X138801025Y-76893296D01*
X138789246Y-76881518D01*
X138775919Y-76871542D01*
X138773486Y-76869581D01*
X138733143Y-76834624D01*
X138724964Y-76830889D01*
X138708803Y-76821300D01*
X138701604Y-76815910D01*
X138674259Y-76805711D01*
X138651567Y-76797247D01*
X138648696Y-76796057D01*
X138600134Y-76773881D01*
X138600131Y-76773880D01*
X138591227Y-76772599D01*
X138573037Y-76767956D01*
X138564608Y-76764813D01*
X138564604Y-76764812D01*
X138564601Y-76764811D01*
X138534210Y-76762637D01*
X138511354Y-76761002D01*
X138508237Y-76760667D01*
X138491771Y-76758300D01*
X138491768Y-76758300D01*
X138475131Y-76758300D01*
X138471997Y-76758188D01*
X138466147Y-76757769D01*
X138418753Y-76754379D01*
X138413504Y-76755521D01*
X138409964Y-76756291D01*
X138391281Y-76758300D01*
X138015400Y-76758300D01*
X137958899Y-76737735D01*
X137928835Y-76685664D01*
X137927500Y-76670400D01*
X137927500Y-74037185D01*
X137926608Y-74028759D01*
X137921750Y-73982860D01*
X137910881Y-73932092D01*
X137903885Y-73906089D01*
X137903883Y-73906084D01*
X137854362Y-73817777D01*
X137854361Y-73817775D01*
X137808954Y-73764671D01*
X137775879Y-73732333D01*
X137686471Y-73684812D01*
X137686468Y-73684811D01*
X137686466Y-73684810D01*
X137650639Y-73674034D01*
X137619564Y-73664687D01*
X137619560Y-73664686D01*
X137619559Y-73664686D01*
X137546525Y-73653695D01*
X137526067Y-73653560D01*
X137469703Y-73632622D01*
X137439984Y-73580353D01*
X137450817Y-73521210D01*
X137464489Y-73503511D01*
X140126556Y-70841445D01*
X140181050Y-70816034D01*
X140188711Y-70815700D01*
X141644100Y-70815700D01*
X141700601Y-70836265D01*
G37*
%TD.AperFunction*%
%TA.AperFunction,Conductor*%
G36*
X150685941Y-67607030D02*
G01*
X150742411Y-67627679D01*
X150772396Y-67679796D01*
X150773709Y-67695126D01*
X150757363Y-75010308D01*
X150750615Y-78030271D01*
X150749644Y-78464697D01*
X150728953Y-78521152D01*
X150676814Y-78551099D01*
X150661744Y-78552401D01*
X148323901Y-78552401D01*
X148267400Y-78531836D01*
X148237336Y-78479765D01*
X148236001Y-78464501D01*
X148236001Y-78052400D01*
X148736001Y-78052400D01*
X148736002Y-78052401D01*
X149336000Y-78052401D01*
X149336001Y-78052400D01*
X149836001Y-78052400D01*
X149836002Y-78052401D01*
X150436000Y-78052401D01*
X150436001Y-78052400D01*
X150436001Y-77548402D01*
X150436000Y-77548401D01*
X150384164Y-77548401D01*
X150324626Y-77554801D01*
X150189913Y-77605047D01*
X150189909Y-77605049D01*
X150188676Y-77605973D01*
X150187652Y-77606282D01*
X150184397Y-77608060D01*
X150184024Y-77607378D01*
X150131121Y-77623369D01*
X150087846Y-77607618D01*
X150087605Y-77608060D01*
X150084697Y-77606472D01*
X150083326Y-77605973D01*
X150082092Y-77605049D01*
X150082088Y-77605047D01*
X149947375Y-77554801D01*
X149887837Y-77548401D01*
X149836002Y-77548401D01*
X149836001Y-77548402D01*
X149836001Y-78052400D01*
X149336001Y-78052400D01*
X149336001Y-77548402D01*
X149336000Y-77548401D01*
X149284164Y-77548401D01*
X149224626Y-77554801D01*
X149089913Y-77605047D01*
X149089909Y-77605049D01*
X149088676Y-77605973D01*
X149087652Y-77606282D01*
X149084397Y-77608060D01*
X149084024Y-77607378D01*
X149031121Y-77623369D01*
X148987846Y-77607618D01*
X148987605Y-77608060D01*
X148984697Y-77606472D01*
X148983326Y-77605973D01*
X148982092Y-77605049D01*
X148982088Y-77605047D01*
X148847375Y-77554801D01*
X148787837Y-77548401D01*
X148736002Y-77548401D01*
X148736001Y-77548402D01*
X148736001Y-78052400D01*
X148236001Y-78052400D01*
X148236001Y-77548402D01*
X148236000Y-77548401D01*
X148184164Y-77548401D01*
X148124626Y-77554801D01*
X147989910Y-77605048D01*
X147874814Y-77691209D01*
X147874809Y-77691214D01*
X147813910Y-77772565D01*
X147763587Y-77805472D01*
X147726396Y-77806099D01*
X147670331Y-77794948D01*
X147625323Y-77770892D01*
X145486845Y-75632414D01*
X145461434Y-75577920D01*
X145461100Y-75570259D01*
X145461100Y-75063900D01*
X145481665Y-75007399D01*
X145533736Y-74977335D01*
X145549000Y-74976000D01*
X147827999Y-74976000D01*
X147828000Y-74976000D01*
X147828000Y-68880000D01*
X141732000Y-68880000D01*
X141732000Y-68880001D01*
X141732000Y-70015600D01*
X141711435Y-70072101D01*
X141659364Y-70102165D01*
X141644100Y-70103500D01*
X140050849Y-70103500D01*
X140032812Y-70101629D01*
X140019719Y-70098884D01*
X140019718Y-70098884D01*
X139985399Y-70103162D01*
X139979957Y-70103500D01*
X139975291Y-70103500D01*
X139968010Y-70104715D01*
X139953446Y-70107145D01*
X139932782Y-70109721D01*
X139901784Y-70113585D01*
X139894809Y-70115662D01*
X139894636Y-70115083D01*
X139894261Y-70115203D01*
X139894458Y-70115774D01*
X139887572Y-70118137D01*
X139841776Y-70142921D01*
X139795016Y-70165782D01*
X139789087Y-70170015D01*
X139788738Y-70169526D01*
X139788432Y-70169754D01*
X139788801Y-70170228D01*
X139783056Y-70174699D01*
X139747784Y-70213014D01*
X136813759Y-73147038D01*
X136799687Y-73158466D01*
X136788486Y-73165785D01*
X136767242Y-73193077D01*
X136763642Y-73197155D01*
X136760337Y-73200460D01*
X136760337Y-73200461D01*
X136760334Y-73200464D01*
X136760334Y-73200465D01*
X136747464Y-73218489D01*
X136736805Y-73232183D01*
X136715489Y-73259570D01*
X136712024Y-73265974D01*
X136711494Y-73265687D01*
X136711317Y-73266032D01*
X136711857Y-73266296D01*
X136708659Y-73272837D01*
X136693800Y-73322747D01*
X136676900Y-73371978D01*
X136675701Y-73379163D01*
X136675100Y-73379062D01*
X136675045Y-73379443D01*
X136675649Y-73379519D01*
X136674748Y-73386745D01*
X136676900Y-73438767D01*
X136676900Y-73559492D01*
X136656335Y-73615993D01*
X136604264Y-73646057D01*
X136588422Y-73647390D01*
X129948075Y-73603705D01*
X122046922Y-73553697D01*
X122046921Y-73553697D01*
X122046907Y-73553697D01*
X122045776Y-73553751D01*
X122045575Y-73553688D01*
X122044533Y-73553682D01*
X122044535Y-73553365D01*
X121988359Y-73535902D01*
X121955849Y-73485322D01*
X121953689Y-73466460D01*
X121920507Y-67652900D01*
X121940749Y-67596284D01*
X121992648Y-67565924D01*
X122008406Y-67564500D01*
X122254250Y-67564500D01*
X150685941Y-67607030D01*
G37*
%TD.AperFunction*%
%TD*%
%TA.AperFunction,Conductor*%
%TO.N,VDD*%
G36*
X129946400Y-73863200D02*
G01*
X137544817Y-73913189D01*
X137611724Y-73933314D01*
X137657131Y-73986418D01*
X137668000Y-74037186D01*
X137668000Y-78603988D01*
X137648315Y-78671027D01*
X137595511Y-78716782D01*
X137584955Y-78721029D01*
X137513924Y-78745884D01*
X137513923Y-78745884D01*
X137407689Y-78824288D01*
X137407688Y-78824289D01*
X137329284Y-78930523D01*
X137326839Y-78935150D01*
X137278107Y-78985220D01*
X137210041Y-79000994D01*
X137144252Y-78977466D01*
X137101627Y-78922104D01*
X137099506Y-78916205D01*
X137068854Y-78823701D01*
X137068848Y-78823688D01*
X136978347Y-78676965D01*
X136978344Y-78676961D01*
X136856438Y-78555055D01*
X136856434Y-78555052D01*
X136709711Y-78464551D01*
X136709700Y-78464546D01*
X136546052Y-78410319D01*
X136445054Y-78400000D01*
X136395900Y-78400000D01*
X136395900Y-80349999D01*
X136445040Y-80349999D01*
X136445054Y-80349998D01*
X136546052Y-80339680D01*
X136709700Y-80285453D01*
X136709711Y-80285448D01*
X136856434Y-80194947D01*
X136856438Y-80194944D01*
X136978344Y-80073038D01*
X136978347Y-80073034D01*
X137068848Y-79926311D01*
X137068854Y-79926298D01*
X137099506Y-79833794D01*
X137139277Y-79776349D01*
X137203793Y-79749525D01*
X137272569Y-79761839D01*
X137323769Y-79809382D01*
X137326841Y-79814852D01*
X137329282Y-79819470D01*
X137329284Y-79819475D01*
X137407689Y-79925711D01*
X137466035Y-79968772D01*
X137508284Y-80024416D01*
X137516400Y-80068540D01*
X137516400Y-80621534D01*
X137496715Y-80688573D01*
X137487012Y-80700612D01*
X137466301Y-80731609D01*
X137412688Y-80776413D01*
X137343363Y-80785119D01*
X137280336Y-80754963D01*
X137260098Y-80731607D01*
X137242752Y-80705647D01*
X137176430Y-80661332D01*
X137176429Y-80661331D01*
X137117952Y-80649700D01*
X137117948Y-80649700D01*
X136338452Y-80649700D01*
X136338447Y-80649700D01*
X136279970Y-80661331D01*
X136279969Y-80661332D01*
X136213647Y-80705647D01*
X136196302Y-80731607D01*
X136142689Y-80776412D01*
X136073364Y-80785119D01*
X136010337Y-80754964D01*
X135990098Y-80731607D01*
X135972752Y-80705647D01*
X135906430Y-80661332D01*
X135906429Y-80661331D01*
X135847952Y-80649700D01*
X135847948Y-80649700D01*
X135068452Y-80649700D01*
X135068447Y-80649700D01*
X135009970Y-80661331D01*
X135009969Y-80661332D01*
X134943647Y-80705647D01*
X134926302Y-80731607D01*
X134872689Y-80776412D01*
X134803364Y-80785119D01*
X134740337Y-80754964D01*
X134720098Y-80731607D01*
X134702752Y-80705647D01*
X134636430Y-80661332D01*
X134636429Y-80661331D01*
X134577952Y-80649700D01*
X134577948Y-80649700D01*
X133798452Y-80649700D01*
X133798447Y-80649700D01*
X133739970Y-80661331D01*
X133739969Y-80661332D01*
X133673647Y-80705647D01*
X133656302Y-80731607D01*
X133602689Y-80776412D01*
X133533364Y-80785119D01*
X133470337Y-80754964D01*
X133450098Y-80731607D01*
X133432752Y-80705647D01*
X133366430Y-80661332D01*
X133366429Y-80661331D01*
X133307952Y-80649700D01*
X133307948Y-80649700D01*
X132528452Y-80649700D01*
X132528447Y-80649700D01*
X132469970Y-80661331D01*
X132469969Y-80661332D01*
X132403647Y-80705647D01*
X132359332Y-80771969D01*
X132359331Y-80771970D01*
X132347700Y-80830447D01*
X132347700Y-82306836D01*
X132328015Y-82373875D01*
X132275211Y-82419630D01*
X132223300Y-82430835D01*
X122044100Y-82397999D01*
X121977124Y-82378099D01*
X121931540Y-82325147D01*
X121920500Y-82274000D01*
X121920500Y-79625000D01*
X135158401Y-79625000D01*
X135158401Y-79661654D01*
X135168719Y-79762652D01*
X135222946Y-79926300D01*
X135222951Y-79926311D01*
X135313452Y-80073034D01*
X135313455Y-80073038D01*
X135435361Y-80194944D01*
X135435365Y-80194947D01*
X135582088Y-80285448D01*
X135582099Y-80285453D01*
X135745747Y-80339680D01*
X135846751Y-80349999D01*
X135895899Y-80349998D01*
X135895900Y-80349998D01*
X135895900Y-79625000D01*
X135158401Y-79625000D01*
X121920500Y-79625000D01*
X121920500Y-79125000D01*
X135158400Y-79125000D01*
X135895900Y-79125000D01*
X135895900Y-78400000D01*
X135895899Y-78399999D01*
X135846761Y-78400000D01*
X135846743Y-78400001D01*
X135745747Y-78410319D01*
X135582099Y-78464546D01*
X135582088Y-78464551D01*
X135435365Y-78555052D01*
X135435361Y-78555055D01*
X135313455Y-78676961D01*
X135313452Y-78676965D01*
X135222951Y-78823688D01*
X135222946Y-78823699D01*
X135168719Y-78987347D01*
X135158400Y-79088345D01*
X135158400Y-79125000D01*
X121920500Y-79125000D01*
X121920500Y-73937190D01*
X121940185Y-73870151D01*
X121992989Y-73824396D01*
X122045280Y-73813192D01*
X129946400Y-73863200D01*
G37*
%TD.AperFunction*%
%TD*%
M02*
