M48
; DRILL file {KiCad 7.0.8} date 2024 June 12, Wednesday 17:23:06
; FORMAT={-:-/ absolute / inch / decimal}
; #@! TF.CreationDate,2024-06-12T17:23:06-04:00
; #@! TF.GenerationSoftware,Kicad,Pcbnew,7.0.8
; #@! TF.FileFunction,Plated,1,2,PTH
FMAT,2
INCH
; #@! TA.AperFunction,Plated,PTH,ViaDrill
T1C0.0118
; #@! TA.AperFunction,Plated,PTH,ViaDrill
T2C0.0157
%
G90
G05
T1
X5.499Y-3.44
X5.76Y-3.486
X5.851Y-3.486
X5.884Y-3.351
T2
X4.824Y-2.958
X4.824Y-3.038
X4.826Y-3.104
X4.844Y-3.216
X4.935Y-2.767
X5.02Y-2.875
X5.026Y-3.216
X5.076Y-3.218
X5.128Y-3.212
X5.145Y-2.755
X5.15Y-3.29
X5.158Y-3.349
X5.49Y-3.27
X5.491Y-3.013
X5.802Y-3.3
X5.855Y-3.245
X5.863Y-2.746
X5.867Y-2.862
T0
M30
