M48
; DRILL file {KiCad 8.0.8} date 2025-02-11T09:57:55-0500
; FORMAT={-:-/ absolute / inch / decimal}
; #@! TF.CreationDate,2025-02-11T09:57:55-05:00
; #@! TF.GenerationSoftware,Kicad,Pcbnew,8.0.8
; #@! TF.FileFunction,Plated,1,2,PTH
FMAT,2
INCH
; #@! TA.AperFunction,Plated,PTH,ViaDrill
T1C0.0094
; #@! TA.AperFunction,Plated,PTH,ViaDrill
T2C0.0098
; #@! TA.AperFunction,Plated,PTH,ViaDrill
T3C0.0118
; #@! TA.AperFunction,Plated,PTH,ViaDrill
T4C0.0157
; #@! TA.AperFunction,Plated,PTH,ComponentDrill
T5C0.0197
%
G90
G05
T1
X5.3737Y-2.9964
X5.6063Y-2.9921
T2
X4.8346Y-2.748
X4.9449Y-2.6811
X5.248Y-2.9055
X5.2598Y-2.6929
X5.2874Y-3.0197
X5.3189Y-3.1339
X5.3465Y-2.9291
X5.3583Y-2.7323
X5.3583Y-3.0315
X5.4449Y-3.0315
X5.4764Y-2.7165
X5.5039Y-3.374
X5.5157Y-3.0394
X5.5669Y-2.7953
X5.6339Y-2.748
X5.7196Y-2.9775
X5.7283Y-3.2677
X5.7874Y-3.1732
X5.8307Y-3.4843
X5.8583Y-3.2835
X5.8622Y-3.185
X5.863Y-2.746
X5.8701Y-2.878
X5.8937Y-3.4961
T3
X5.4055Y-3.5044
X5.499Y-3.44
X5.8701Y-3.5173
X5.8858Y-3.3307
T4
X4.824Y-2.958
X4.824Y-3.038
X4.826Y-3.104
X4.844Y-3.216
X5.0039Y-3.2087
X5.1378Y-3.2008
X5.15Y-3.29
X5.158Y-3.349
X5.2476Y-3.0472
X5.252Y-3.0
X5.3847Y-2.8303
T5
X5.6142Y-3.4882
X5.6535Y-3.4882
X5.6929Y-3.4882
X5.7323Y-3.4882
M30
