%TF.GenerationSoftware,KiCad,Pcbnew,8.0.8*%
%TF.CreationDate,2025-02-11T09:57:58-05:00*%
%TF.ProjectId,BLERoomSensore,424c4552-6f6f-46d5-9365-6e736f72652e,rev?*%
%TF.SameCoordinates,Original*%
%TF.FileFunction,Paste,Top*%
%TF.FilePolarity,Positive*%
%FSLAX46Y46*%
G04 Gerber Fmt 4.6, Leading zero omitted, Abs format (unit mm)*
G04 Created by KiCad (PCBNEW 8.0.8) date 2025-02-11 09:57:58*
%MOMM*%
%LPD*%
G01*
G04 APERTURE LIST*
G04 Aperture macros list*
%AMRoundRect*
0 Rectangle with rounded corners*
0 $1 Rounding radius*
0 $2 $3 $4 $5 $6 $7 $8 $9 X,Y pos of 4 corners*
0 Add a 4 corners polygon primitive as box body*
4,1,4,$2,$3,$4,$5,$6,$7,$8,$9,$2,$3,0*
0 Add four circle primitives for the rounded corners*
1,1,$1+$1,$2,$3*
1,1,$1+$1,$4,$5*
1,1,$1+$1,$6,$7*
1,1,$1+$1,$8,$9*
0 Add four rect primitives between the rounded corners*
20,1,$1+$1,$2,$3,$4,$5,0*
20,1,$1+$1,$4,$5,$6,$7,0*
20,1,$1+$1,$6,$7,$8,$9,0*
20,1,$1+$1,$8,$9,$2,$3,0*%
G04 Aperture macros list end*
%ADD10R,1.600200X1.422400*%
%ADD11R,0.508000X0.508000*%
%ADD12RoundRect,0.160000X0.160000X-0.197500X0.160000X0.197500X-0.160000X0.197500X-0.160000X-0.197500X0*%
%ADD13RoundRect,0.160000X-0.160000X0.197500X-0.160000X-0.197500X0.160000X-0.197500X0.160000X0.197500X0*%
%ADD14R,0.350000X0.500000*%
%ADD15RoundRect,0.160000X-0.197500X-0.160000X0.197500X-0.160000X0.197500X0.160000X-0.197500X0.160000X0*%
%ADD16R,0.740000X2.790000*%
%ADD17RoundRect,0.052500X0.172500X0.122500X-0.172500X0.122500X-0.172500X-0.122500X0.172500X-0.122500X0*%
%ADD18RoundRect,0.052500X0.122500X0.172500X-0.122500X0.172500X-0.122500X-0.172500X0.122500X-0.172500X0*%
%ADD19RoundRect,0.087500X-0.412500X-0.087500X0.412500X-0.087500X0.412500X0.087500X-0.412500X0.087500X0*%
%ADD20RoundRect,0.222500X-0.222500X-0.402500X0.222500X-0.402500X0.222500X0.402500X-0.222500X0.402500X0*%
G04 APERTURE END LIST*
D10*
%TO.C,XTAL1*%
X126400000Y-70107800D03*
X126400000Y-72292200D03*
%TD*%
D11*
%TO.C,U3*%
X150686001Y-77700000D03*
X149586001Y-77700000D03*
X148486001Y-77700000D03*
X147386000Y-77700000D03*
X146286000Y-77700000D03*
X145186000Y-77700000D03*
X144085999Y-77700000D03*
X142985999Y-77700000D03*
X141885999Y-77700000D03*
X141886000Y-78799998D03*
X141886000Y-79899998D03*
X141886000Y-80999999D03*
X141886000Y-82099999D03*
X141886000Y-83199999D03*
X141886000Y-84300000D03*
X141886000Y-85400000D03*
X141885999Y-86499998D03*
X142985999Y-86499998D03*
X144085999Y-86499998D03*
X145186000Y-86499998D03*
X146286000Y-86499998D03*
X147386000Y-86499998D03*
X148486001Y-86499998D03*
X149586001Y-86499998D03*
X150686001Y-86499998D03*
X150136001Y-78600000D03*
X149036001Y-78600000D03*
X147936001Y-78600000D03*
X146836000Y-78600000D03*
X145736000Y-78600000D03*
X144636000Y-78600000D03*
X143535999Y-78600000D03*
X143535999Y-85599998D03*
X144636000Y-85599998D03*
X145736000Y-85599998D03*
X146836000Y-85599998D03*
X147936001Y-85599998D03*
X149036001Y-85599998D03*
X150136001Y-85599998D03*
X142786000Y-79349998D03*
X142786000Y-80449998D03*
X142786000Y-81549999D03*
X142786000Y-82649999D03*
X142786000Y-83749999D03*
X142786000Y-84850000D03*
X150686001Y-80449999D03*
X150686001Y-83749999D03*
%TD*%
D12*
%TO.C,R5*%
X135100000Y-76097500D03*
X135100000Y-74902500D03*
%TD*%
%TO.C,R3*%
X135700000Y-71397500D03*
X135700000Y-70202500D03*
%TD*%
D13*
%TO.C,R4*%
X140800000Y-69002500D03*
X140800000Y-70197500D03*
%TD*%
D14*
%TO.C,U2*%
X145755000Y-73288000D03*
X145105000Y-73288000D03*
X144455000Y-73288000D03*
X143805000Y-73288000D03*
X143805000Y-71238000D03*
X144455000Y-71238000D03*
X145105000Y-71238000D03*
X145755000Y-71238000D03*
%TD*%
D15*
%TO.C,R1*%
X136460900Y-79375000D03*
X137655900Y-79375000D03*
%TD*%
D16*
%TO.C,J1*%
X137998200Y-82245200D03*
X137998200Y-86315200D03*
X136728200Y-82245200D03*
X136728200Y-86315200D03*
X135458200Y-82245200D03*
X135458200Y-86315200D03*
X134188200Y-82245200D03*
X134188200Y-86315200D03*
X132918200Y-82245200D03*
X132918200Y-86315200D03*
%TD*%
D17*
%TO.C,U4*%
X140165000Y-72950000D03*
X140165000Y-72450000D03*
X140165000Y-71950000D03*
X140165000Y-71450000D03*
D18*
X139665000Y-71435000D03*
X139150000Y-71435000D03*
D17*
X138635000Y-71450000D03*
X138635000Y-71950000D03*
X138635000Y-72450000D03*
X138635000Y-72950000D03*
D18*
X139150000Y-72965000D03*
X139650000Y-72965000D03*
%TD*%
D19*
%TO.C,U5*%
X133225000Y-69925000D03*
X133225000Y-70725000D03*
X133225000Y-71525000D03*
X133225000Y-72325000D03*
X129475000Y-72325000D03*
X129475000Y-71525000D03*
X129475000Y-70725000D03*
X129475000Y-69925000D03*
D20*
X131900000Y-71900000D03*
X131900000Y-70350000D03*
X130800000Y-71900000D03*
X130800000Y-70350000D03*
%TD*%
D13*
%TO.C,R2*%
X142200000Y-70802500D03*
X142200000Y-71997500D03*
%TD*%
M02*
