%TF.GenerationSoftware,KiCad,Pcbnew,8.0.8*%
%TF.CreationDate,2025-02-11T09:57:58-05:00*%
%TF.ProjectId,BLERoomSensore,424c4552-6f6f-46d5-9365-6e736f72652e,rev?*%
%TF.SameCoordinates,Original*%
%TF.FileFunction,Copper,L2,Bot*%
%TF.FilePolarity,Positive*%
%FSLAX46Y46*%
G04 Gerber Fmt 4.6, Leading zero omitted, Abs format (unit mm)*
G04 Created by KiCad (PCBNEW 8.0.8) date 2025-02-11 09:57:58*
%MOMM*%
%LPD*%
G01*
G04 APERTURE LIST*
G04 Aperture macros list*
%AMFreePoly0*
4,1,371,8.400861,5.454800,8.996964,5.374632,9.586381,5.254828,10.166480,5.095922,10.734670,4.898625,11.288413,4.663818,11.825236,4.392549,12.342741,4.086030,12.838618,3.745630,13.310651,3.372870,13.756732,2.969413,14.174869,2.537063,14.563194,2.077749,14.919974,1.593524,15.243614,1.086550,15.532670,0.559091,15.785849,0.013503,16.002022,-0.547776,16.180223,-1.122241,16.319655,-1.707326,
16.419697,-2.300417,16.479902,-2.898866,16.500000,-3.500000,16.479902,-4.101134,16.419697,-4.699583,16.319655,-5.292674,16.180223,-5.877759,16.002022,-6.452224,15.785849,-7.013503,15.532670,-7.559091,15.243614,-8.086550,14.919974,-8.593524,14.563194,-9.077749,14.174869,-9.537063,13.756732,-9.969413,13.310651,-10.372870,12.838618,-10.745630,12.342741,-11.086030,11.825236,-11.392549,11.288413,-11.663818,
10.734670,-11.898625,10.166480,-12.095922,9.586381,-12.254828,8.996964,-12.374632,8.400861,-12.454800,7.800735,-12.494974,7.199265,-12.494974,6.599139,-12.454800,6.003036,-12.374632,5.413619,-12.254828,4.833520,-12.095922,4.265330,-11.898625,3.711587,-11.663818,3.174764,-11.392549,2.657259,-11.086030,2.161382,-10.745630,1.689349,-10.372870,1.243268,-9.969413,0.825131,-9.537063,0.436806,-9.077749,
0.080026,-8.593524,-0.243614,-8.086550,-0.532670,-7.559091,-0.785849,-7.013503,-1.002022,-6.452224,-1.180223,-5.877759,-1.319655,-5.292674,-1.419697,-4.699583,-1.479902,-4.101134,-1.500000,-3.500000,-0.005007,-3.500000,0.015014,-4.047830,0.074971,-4.592738,0.174544,-5.131815,0.313201,-5.662186,0.490203,-6.181020,0.704605,-6.685550,0.955263,-7.173084,1.240841,-7.641021,1.559813,-8.086863,
1.910480,-8.508232,2.290968,-8.902881,2.699249,-9.268702,3.133145,-9.603745,3.590339,-9.906222,4.068393,-10.174519,4.564756,-10.407205,5.076780,-10.603037,5.601733,-10.760972,6.136814,-10.880166,6.679168,-10.959984,7.225902,-11.000000,7.250000,-11.000000,7.250000,-8.993633,6.801402,-8.955452,6.341264,-8.876554,5.889475,-8.758917,5.449289,-8.603390,5.023879,-8.411092,4.616310,-8.183410,
4.229518,-7.921984,3.866289,-7.628698,3.529241,-7.305664,3.220803,-6.955210,2.943197,-6.579861,2.698422,-6.182322,2.488243,-5.765457,2.314174,-5.332269,2.177469,-4.885879,2.079112,-4.429505,2.019814,-3.966433,2.000000,-3.500000,3.495176,-3.500000,3.514460,-3.892541,3.572128,-4.281302,3.667622,-4.662539,3.800025,-5.032580,3.968061,-5.387861,4.170111,-5.724961,4.404229,-6.040633,
4.668162,-6.331838,4.959367,-6.595771,5.275039,-6.829889,5.612139,-7.031939,5.967420,-7.199975,6.337461,-7.332378,6.718698,-7.427872,7.107459,-7.485540,7.250000,-7.492542,7.250000,-5.482119,7.215370,-5.479643,6.936535,-5.418986,6.669170,-5.319264,6.418718,-5.182507,6.190279,-5.011499,5.988501,-4.809721,5.817493,-4.581282,5.680736,-4.330830,5.581014,-4.063465,5.520357,-3.784630,
5.500000,-3.500000,5.520357,-3.215370,5.581014,-2.936535,5.680736,-2.669170,5.817493,-2.418718,5.988501,-2.190279,6.190279,-1.988501,6.418718,-1.817493,6.669170,-1.680736,6.936535,-1.581014,7.215370,-1.520357,7.500000,-1.500000,7.784630,-1.520357,8.063465,-1.581014,8.330830,-1.680736,8.581282,-1.817493,8.809721,-1.988501,9.011499,-2.190279,9.182507,-2.418718,9.319264,-2.669170,
9.418986,-2.936535,9.479643,-3.215370,9.500000,-3.500000,9.479643,-3.784630,9.418986,-4.063465,9.319264,-4.330830,9.182507,-4.581282,9.011499,-4.809721,8.809721,-5.011499,8.581282,-5.182507,8.330830,-5.319264,8.063465,-5.418986,7.784630,-5.479643,7.750000,-5.482119,7.750000,-7.492542,7.892541,-7.485540,8.281302,-7.427872,8.662539,-7.332378,9.032580,-7.199975,9.387861,-7.031939,
9.724961,-6.829889,10.040633,-6.595771,10.331838,-6.331838,10.595771,-6.040633,10.829889,-5.724961,11.031939,-5.387861,11.199975,-5.032580,11.332378,-4.662539,11.427872,-4.281302,11.485540,-3.892541,11.504824,-3.500000,11.485540,-3.107459,11.427872,-2.718698,11.332378,-2.337461,11.199975,-1.967420,11.031939,-1.612139,10.829889,-1.275039,10.595771,-0.959367,10.331838,-0.668162,10.040633,-0.404229,
9.724961,-0.170111,9.387861,0.031939,9.032580,0.199975,8.662539,0.332378,8.281302,0.427872,7.892541,0.485540,7.500000,0.504824,7.107459,0.485540,6.718698,0.427872,6.337461,0.332378,5.967420,0.199975,5.612139,0.031939,5.275039,-0.170111,4.959367,-0.404229,4.668162,-0.668162,4.404229,-0.959367,4.170111,-1.275039,3.968061,-1.612139,3.800025,-1.967420,3.667622,-2.337461,
3.572128,-2.718698,3.514460,-3.107459,3.495176,-3.500000,2.000000,-3.500000,2.019814,-3.033567,2.079112,-2.570495,2.177469,-2.114121,2.314174,-1.667731,2.488243,-1.234543,2.698422,-0.817678,2.943197,-0.420139,3.220803,-0.044790,3.529241,0.305664,3.866289,0.628698,4.229518,0.921984,4.616310,1.183410,5.023879,1.411092,5.449289,1.603390,5.889475,1.758917,6.341264,1.876554,
6.801402,1.955452,7.266573,1.995044,7.733427,1.995044,8.198598,1.955452,8.658736,1.876554,9.110525,1.758917,9.550711,1.603390,9.976121,1.411092,10.383690,1.183410,10.770482,0.921984,11.133711,0.628698,11.470759,0.305664,11.779197,-0.044790,12.056803,-0.420139,12.301578,-0.817678,12.511757,-1.234543,12.685826,-1.667731,12.822531,-2.114121,12.920888,-2.570495,12.980186,-3.033567,
13.000000,-3.500000,12.980186,-3.966433,12.920888,-4.429505,12.822531,-4.885879,12.685826,-5.332269,12.511757,-5.765457,12.301578,-6.182322,12.056803,-6.579861,11.779197,-6.955210,11.470759,-7.305664,11.133711,-7.628698,10.770482,-7.921984,10.383690,-8.183410,9.976121,-8.411092,9.550711,-8.603390,9.110525,-8.758917,8.658736,-8.876554,8.198598,-8.955452,7.750000,-8.993633,7.750000,-11.000000,
7.774098,-11.000000,8.320832,-10.959984,8.863186,-10.880166,9.398267,-10.760972,9.923220,-10.603037,10.435244,-10.407205,10.931607,-10.174519,11.409661,-9.906222,11.866855,-9.603745,12.300751,-9.268702,12.709032,-8.902881,13.089520,-8.508232,13.440187,-8.086863,13.759159,-7.641021,14.044737,-7.173084,14.295395,-6.685550,14.509797,-6.181020,14.686799,-5.662186,14.825456,-5.131815,14.925029,-4.592738,
14.984986,-4.047830,15.005007,-3.500000,14.984986,-2.952170,14.925029,-2.407262,14.825456,-1.868185,14.686799,-1.337814,14.509797,-0.818980,14.295395,-0.314450,14.044737,0.173084,13.759159,0.641021,13.440187,1.086863,13.089520,1.508232,12.709032,1.902881,12.300751,2.268702,11.866855,2.603745,11.409661,2.906222,10.931607,3.174519,10.435244,3.407205,9.923220,3.603037,9.398267,3.760972,
8.863186,3.880166,8.320832,3.959984,7.774098,4.000000,7.225902,4.000000,6.679168,3.959984,6.136814,3.880166,5.601733,3.760972,5.076780,3.603037,4.564756,3.407205,4.068393,3.174519,3.590339,2.906222,3.133145,2.603745,2.699249,2.268702,2.290968,1.902881,1.910480,1.508232,1.559813,1.086863,1.240841,0.641021,0.955263,0.173084,0.704605,-0.314450,0.490203,-0.818980,
0.313201,-1.337814,0.174544,-1.868185,0.074971,-2.407262,0.015014,-2.952170,-0.005007,-3.500000,-1.500000,-3.500000,-1.479902,-2.898866,-1.419697,-2.300417,-1.319655,-1.707326,-1.180223,-1.122241,-1.002022,-0.547776,-0.785849,0.013503,-0.532670,0.559091,-0.243614,1.086550,0.080026,1.593524,0.436806,2.077749,0.825131,2.537063,1.243268,2.969413,1.689349,3.372870,2.161382,3.745630,
2.657259,4.086030,3.174764,4.392549,3.711587,4.663818,4.265330,4.898625,4.833520,5.095922,5.413619,5.254828,6.003036,5.374632,6.599139,5.454800,7.199265,5.494974,7.800735,5.494974,8.400861,5.454800,8.400861,5.454800,$1*%
G04 Aperture macros list end*
%TA.AperFunction,Conductor*%
%ADD10C,0.200000*%
%TD*%
%TA.AperFunction,Conductor*%
%ADD11C,0.381000*%
%TD*%
%TA.AperFunction,SMDPad,CuDef*%
%ADD12R,5.700000X6.100000*%
%TD*%
%TA.AperFunction,SMDPad,CuDef*%
%ADD13FreePoly0,0.000000*%
%TD*%
%TA.AperFunction,ComponentPad*%
%ADD14R,0.850000X0.850000*%
%TD*%
%TA.AperFunction,ComponentPad*%
%ADD15O,0.850000X0.850000*%
%TD*%
%TA.AperFunction,ViaPad*%
%ADD16C,0.500000*%
%TD*%
%TA.AperFunction,ViaPad*%
%ADD17C,0.800000*%
%TD*%
%TA.AperFunction,ViaPad*%
%ADD18C,0.600000*%
%TD*%
%TA.AperFunction,Conductor*%
%ADD19C,0.177800*%
%TD*%
G04 APERTURE END LIST*
D10*
%TO.N,SDA*%
X133301327Y-73760469D02*
G75*
G02*
X140600000Y-70400000I6098673J-3639531D01*
G01*
%TO.N,SCL*%
X136491552Y-76107356D02*
G75*
G02*
X141700000Y-75200000I2908448J-1292644D01*
G01*
D11*
%TO.N,VDD*%
X133316417Y-77400000D02*
G75*
G02*
X136800000Y-71900002I6083583J0D01*
G01*
%TD*%
D12*
%TO.P,BT1,NC*%
%TO.N,N/C*%
X152300000Y-77400000D03*
D13*
%TO.P,BT1,2,-*%
%TO.N,GND*%
X131900000Y-73900000D03*
D12*
%TO.P,BT1,1,+*%
%TO.N,VDD*%
X126500000Y-77400000D03*
%TD*%
D14*
%TO.P,EXP1,1,Pin_1*%
%TO.N,GND*%
X142600000Y-88600000D03*
D15*
%TO.P,EXP1,2,Pin_2*%
%TO.N,Net-(EXP1-Pin_2)*%
X143600000Y-88600000D03*
%TO.P,EXP1,3,Pin_3*%
%TO.N,Net-(EXP1-Pin_3)*%
X144600000Y-88600000D03*
%TO.P,EXP1,4,Pin_4*%
%TO.N,Net-(EXP1-Pin_4)*%
X145600000Y-88600000D03*
%TD*%
D16*
%TO.N,GND*%
X148100000Y-88500000D03*
X148800000Y-83400000D03*
X148900000Y-80900000D03*
X134300000Y-76700000D03*
X135100000Y-79600000D03*
X147000000Y-80600000D03*
X135800000Y-74400000D03*
X139100000Y-69000000D03*
D17*
X130810000Y-83566000D03*
D16*
X133600000Y-68400000D03*
X140100000Y-77200000D03*
X136100000Y-69400000D03*
X136100000Y-77000000D03*
X139800000Y-85700000D03*
X149700000Y-88800000D03*
X138300000Y-77000000D03*
X143100000Y-69800000D03*
X148920200Y-69748400D03*
X125600000Y-68100000D03*
X145500000Y-83000000D03*
D17*
X131013200Y-85064600D03*
D16*
X149100000Y-73100000D03*
X122800000Y-69800000D03*
D17*
%TO.N,VDD*%
X122529600Y-77165200D03*
X127100000Y-81500000D03*
X130500000Y-81300000D03*
X136770586Y-71888823D03*
X122580400Y-78841600D03*
X122529600Y-75133200D03*
X133290040Y-77399949D03*
X123037600Y-81686400D03*
X133400000Y-76200000D03*
D18*
%TO.N,DIO*%
X139674600Y-87376000D03*
X149500000Y-84600000D03*
%TO.N,CLK*%
X149100000Y-89339800D03*
X137300000Y-89012000D03*
D16*
%TO.N,SDA*%
X141400000Y-71000000D03*
X133300000Y-73800000D03*
X145276693Y-75628039D03*
%TO.N,SCL*%
X136491552Y-76107356D03*
X142400000Y-76000000D03*
%TD*%
D19*
%TO.N,DIO*%
X149500000Y-84600000D02*
X149500000Y-85069000D01*
X149500000Y-85069000D02*
X147193000Y-87376000D01*
X147193000Y-87376000D02*
X139674600Y-87376000D01*
%TO.N,CLK*%
X137300000Y-89012000D02*
X137838900Y-89550900D01*
X137838900Y-89550900D02*
X148888900Y-89550900D01*
X148888900Y-89550900D02*
X149100000Y-89339800D01*
%TO.N,SDA*%
X141400000Y-71000000D02*
X142711669Y-71000000D01*
X145276693Y-73231738D02*
X145276693Y-75628039D01*
X143073327Y-71198195D02*
X143479368Y-71457402D01*
X142711669Y-71000000D02*
X143073327Y-71198195D01*
X144235039Y-72054149D02*
X144581299Y-72389026D01*
X141400000Y-71000000D02*
X141000000Y-70600000D01*
X145202971Y-73124344D02*
X145276693Y-73231738D01*
X144581299Y-72389026D02*
X144904428Y-72746294D01*
X140800000Y-70600000D02*
X140600000Y-70400000D01*
X143479368Y-71457402D02*
X143867178Y-71743143D01*
X144904428Y-72746294D02*
X145202971Y-73124344D01*
X143867178Y-71743143D02*
X144235039Y-72054149D01*
X141000000Y-70600000D02*
X140800000Y-70600000D01*
%TO.N,SCL*%
X142400000Y-75900000D02*
X141700000Y-75200000D01*
X142400000Y-76000000D02*
X142400000Y-75900000D01*
%TD*%
%TA.AperFunction,Conductor*%
%TO.N,GND*%
G36*
X150751715Y-67786174D02*
G01*
X150773389Y-67838500D01*
X150773389Y-67838665D01*
X150759451Y-74075665D01*
X150737660Y-74127943D01*
X150685451Y-74149500D01*
X149430252Y-74149500D01*
X149401010Y-74155316D01*
X149371767Y-74161133D01*
X149305449Y-74205447D01*
X149305447Y-74205449D01*
X149261133Y-74271767D01*
X149253637Y-74309452D01*
X149249500Y-74330252D01*
X149249500Y-80469748D01*
X149257255Y-80508736D01*
X149261133Y-80528232D01*
X149290608Y-80572343D01*
X149305448Y-80594552D01*
X149338054Y-80616339D01*
X149371767Y-80638866D01*
X149371768Y-80638866D01*
X149371769Y-80638867D01*
X149430252Y-80650500D01*
X150670593Y-80650500D01*
X150722919Y-80672174D01*
X150744593Y-80724500D01*
X150744593Y-80724665D01*
X150724837Y-89565465D01*
X150703046Y-89617743D01*
X150650837Y-89639300D01*
X149628592Y-89639300D01*
X149576266Y-89617626D01*
X149554592Y-89565300D01*
X149561279Y-89534559D01*
X149573350Y-89508127D01*
X149585165Y-89482257D01*
X149605647Y-89339800D01*
X149585165Y-89197343D01*
X149525377Y-89066427D01*
X149431128Y-88957657D01*
X149374182Y-88921060D01*
X149310054Y-88879847D01*
X149310050Y-88879846D01*
X149171964Y-88839300D01*
X149171961Y-88839300D01*
X149028039Y-88839300D01*
X149028036Y-88839300D01*
X148889949Y-88879846D01*
X148889945Y-88879847D01*
X148768875Y-88957655D01*
X148768868Y-88957660D01*
X148674623Y-89066426D01*
X148614834Y-89197345D01*
X148614736Y-89198029D01*
X148614532Y-89198372D01*
X148613342Y-89202425D01*
X148612308Y-89202121D01*
X148585837Y-89246739D01*
X148541489Y-89261500D01*
X145985809Y-89261500D01*
X145933483Y-89239826D01*
X145911809Y-89187500D01*
X145933483Y-89135174D01*
X145951421Y-89121976D01*
X145957929Y-89118560D01*
X145957930Y-89118559D01*
X145957934Y-89118557D01*
X146071632Y-89017830D01*
X146157921Y-88892819D01*
X146211785Y-88750791D01*
X146230094Y-88600000D01*
X146227462Y-88578326D01*
X146211785Y-88449209D01*
X146157921Y-88307181D01*
X146071632Y-88182170D01*
X146035745Y-88150377D01*
X145957934Y-88081443D01*
X145957932Y-88081442D01*
X145957930Y-88081440D01*
X145823437Y-88010853D01*
X145823434Y-88010852D01*
X145675949Y-87974500D01*
X145524051Y-87974500D01*
X145441858Y-87994759D01*
X145376562Y-88010853D01*
X145242069Y-88081440D01*
X145149071Y-88163829D01*
X145095532Y-88182304D01*
X145050929Y-88163829D01*
X145035745Y-88150377D01*
X144957934Y-88081443D01*
X144957932Y-88081442D01*
X144957930Y-88081440D01*
X144823437Y-88010853D01*
X144823434Y-88010852D01*
X144675949Y-87974500D01*
X144524051Y-87974500D01*
X144441858Y-87994759D01*
X144376562Y-88010853D01*
X144242069Y-88081440D01*
X144149071Y-88163829D01*
X144095532Y-88182304D01*
X144050929Y-88163829D01*
X144035745Y-88150377D01*
X143957934Y-88081443D01*
X143957932Y-88081442D01*
X143957930Y-88081440D01*
X143823437Y-88010853D01*
X143823434Y-88010852D01*
X143675949Y-87974500D01*
X143524051Y-87974500D01*
X143376566Y-88010852D01*
X143376563Y-88010853D01*
X143376561Y-88010854D01*
X143316620Y-88042313D01*
X143260215Y-88047438D01*
X143220703Y-88017902D01*
X143205239Y-87994759D01*
X143122545Y-87939505D01*
X143049622Y-87925000D01*
X142850000Y-87925000D01*
X142850000Y-88526000D01*
X142844973Y-88538135D01*
X142811940Y-88458386D01*
X142741614Y-88388060D01*
X142649728Y-88350000D01*
X142550272Y-88350000D01*
X142458386Y-88388060D01*
X142388060Y-88458386D01*
X142350000Y-88550272D01*
X142350000Y-88649728D01*
X142388060Y-88741614D01*
X142458386Y-88811940D01*
X142538135Y-88844973D01*
X142526000Y-88850000D01*
X141925000Y-88850000D01*
X141925000Y-89049622D01*
X141939505Y-89122546D01*
X141955436Y-89146389D01*
X141966485Y-89201938D01*
X141935018Y-89249029D01*
X141893907Y-89261500D01*
X137989426Y-89261500D01*
X137937100Y-89239826D01*
X137819724Y-89122450D01*
X137798050Y-89070124D01*
X137798801Y-89059606D01*
X137805647Y-89012000D01*
X137785165Y-88869543D01*
X137725377Y-88738627D01*
X137631128Y-88629857D01*
X137550944Y-88578326D01*
X137510054Y-88552047D01*
X137510050Y-88552046D01*
X137371964Y-88511500D01*
X137371961Y-88511500D01*
X137228039Y-88511500D01*
X137228036Y-88511500D01*
X137089949Y-88552046D01*
X137089945Y-88552047D01*
X136968875Y-88629855D01*
X136968868Y-88629860D01*
X136874623Y-88738626D01*
X136814834Y-88869545D01*
X136794353Y-89012000D01*
X136814834Y-89154454D01*
X136814834Y-89154455D01*
X136814835Y-89154457D01*
X136874623Y-89285373D01*
X136968868Y-89394139D01*
X136968869Y-89394140D01*
X136968872Y-89394143D01*
X137089947Y-89471953D01*
X137125040Y-89482257D01*
X137166046Y-89494298D01*
X137210146Y-89529836D01*
X137216200Y-89586148D01*
X137180662Y-89630248D01*
X137145198Y-89639300D01*
X122194500Y-89639300D01*
X122142174Y-89617626D01*
X122120500Y-89565300D01*
X122120500Y-88150377D01*
X141925000Y-88150377D01*
X141925000Y-88350000D01*
X142350000Y-88350000D01*
X142350000Y-87925000D01*
X142150378Y-87925000D01*
X142077454Y-87939505D01*
X141994760Y-87994759D01*
X141994759Y-87994760D01*
X141939505Y-88077454D01*
X141925000Y-88150377D01*
X122120500Y-88150377D01*
X122120500Y-87376000D01*
X139168953Y-87376000D01*
X139189434Y-87518454D01*
X139249223Y-87649373D01*
X139343468Y-87758139D01*
X139343469Y-87758140D01*
X139343472Y-87758143D01*
X139464547Y-87835953D01*
X139571003Y-87867211D01*
X139602635Y-87876499D01*
X139602637Y-87876500D01*
X139602639Y-87876500D01*
X139746563Y-87876500D01*
X139746564Y-87876499D01*
X139884653Y-87835953D01*
X140005728Y-87758143D01*
X140005730Y-87758140D01*
X140005732Y-87758139D01*
X140063961Y-87690940D01*
X140114607Y-87665589D01*
X140119886Y-87665400D01*
X147231102Y-87665400D01*
X147231102Y-87665399D01*
X147304704Y-87645678D01*
X147370696Y-87607577D01*
X149731578Y-85246696D01*
X149769678Y-85180704D01*
X149789400Y-85107099D01*
X149789400Y-85049366D01*
X149811074Y-84997040D01*
X149823397Y-84987111D01*
X149831128Y-84982143D01*
X149844075Y-84967202D01*
X149858082Y-84951035D01*
X149925377Y-84873373D01*
X149985165Y-84742457D01*
X150005647Y-84600000D01*
X149985165Y-84457543D01*
X149925377Y-84326627D01*
X149831128Y-84217857D01*
X149774182Y-84181260D01*
X149710054Y-84140047D01*
X149710050Y-84140046D01*
X149571964Y-84099500D01*
X149571961Y-84099500D01*
X149428039Y-84099500D01*
X149428036Y-84099500D01*
X149289949Y-84140046D01*
X149289945Y-84140047D01*
X149168875Y-84217855D01*
X149168868Y-84217860D01*
X149074623Y-84326626D01*
X149014834Y-84457545D01*
X148994353Y-84600000D01*
X149014834Y-84742454D01*
X149014834Y-84742455D01*
X149014835Y-84742457D01*
X149074623Y-84873373D01*
X149127798Y-84934741D01*
X149145684Y-84988479D01*
X149124199Y-85035526D01*
X147094801Y-87064926D01*
X147042475Y-87086600D01*
X140119886Y-87086600D01*
X140067560Y-87064926D01*
X140063961Y-87061060D01*
X140005732Y-86993860D01*
X140005728Y-86993857D01*
X139884654Y-86916047D01*
X139884650Y-86916046D01*
X139746564Y-86875500D01*
X139746561Y-86875500D01*
X139602639Y-86875500D01*
X139602636Y-86875500D01*
X139464549Y-86916046D01*
X139464545Y-86916047D01*
X139343475Y-86993855D01*
X139343468Y-86993860D01*
X139249223Y-87102626D01*
X139189434Y-87233545D01*
X139168953Y-87376000D01*
X122120500Y-87376000D01*
X122120500Y-84319376D01*
X123973900Y-84319376D01*
X123973900Y-84539823D01*
X124008384Y-84757548D01*
X124008387Y-84757561D01*
X124076503Y-84967202D01*
X124076504Y-84967205D01*
X124076505Y-84967206D01*
X124147783Y-85107096D01*
X124176586Y-85163623D01*
X124176586Y-85163624D01*
X124203379Y-85200501D01*
X124306158Y-85341965D01*
X124462035Y-85497842D01*
X124640378Y-85627415D01*
X124836794Y-85727495D01*
X124836797Y-85727496D01*
X124836796Y-85727496D01*
X125046438Y-85795612D01*
X125046444Y-85795613D01*
X125046449Y-85795615D01*
X125155313Y-85812857D01*
X125264176Y-85830100D01*
X125264178Y-85830100D01*
X125484624Y-85830100D01*
X125571713Y-85816306D01*
X125702351Y-85795615D01*
X125702358Y-85795612D01*
X125702361Y-85795612D01*
X125797533Y-85764688D01*
X125912006Y-85727495D01*
X126108422Y-85627415D01*
X126286765Y-85497842D01*
X126442642Y-85341965D01*
X126572215Y-85163622D01*
X126672295Y-84967206D01*
X126740415Y-84757551D01*
X126774900Y-84539822D01*
X126774900Y-84319378D01*
X126740415Y-84101649D01*
X126740413Y-84101644D01*
X126740412Y-84101638D01*
X126672296Y-83891997D01*
X126672295Y-83891996D01*
X126672295Y-83891994D01*
X126572215Y-83695578D01*
X126442642Y-83517235D01*
X126286765Y-83361358D01*
X126182841Y-83285853D01*
X126108424Y-83231786D01*
X125912002Y-83131703D01*
X125912003Y-83131703D01*
X125702361Y-83063587D01*
X125702348Y-83063584D01*
X125484624Y-83029100D01*
X125484622Y-83029100D01*
X125264178Y-83029100D01*
X125264176Y-83029100D01*
X125046451Y-83063584D01*
X125046438Y-83063587D01*
X124836797Y-83131703D01*
X124640376Y-83231786D01*
X124640375Y-83231786D01*
X124462039Y-83361355D01*
X124462035Y-83361358D01*
X124306158Y-83517235D01*
X124306155Y-83517238D01*
X124306155Y-83517239D01*
X124176586Y-83695575D01*
X124176586Y-83695576D01*
X124076503Y-83891997D01*
X124008387Y-84101638D01*
X124008384Y-84101651D01*
X123973900Y-84319376D01*
X122120500Y-84319376D01*
X122120500Y-82666552D01*
X122142174Y-82614226D01*
X122194500Y-82592552D01*
X122204114Y-82593179D01*
X122217460Y-82594928D01*
X122248603Y-82599011D01*
X122248606Y-82599011D01*
X122248614Y-82599012D01*
X131430398Y-82484354D01*
X131430407Y-82484353D01*
X131430408Y-82484353D01*
X131454912Y-82481504D01*
X131472461Y-82479465D01*
X131522083Y-82468425D01*
X131522092Y-82468422D01*
X131522109Y-82468419D01*
X131527479Y-82467101D01*
X131530716Y-82466308D01*
X131562716Y-82449379D01*
X131619102Y-82444070D01*
X131659692Y-82474973D01*
X131760945Y-82633583D01*
X131770590Y-82647637D01*
X132127548Y-83132103D01*
X132138149Y-83145527D01*
X132526662Y-83605062D01*
X132538102Y-83617711D01*
X132956455Y-84050286D01*
X132968740Y-84062165D01*
X133415043Y-84465822D01*
X133428065Y-84476832D01*
X133900375Y-84849812D01*
X133914069Y-84859902D01*
X134410236Y-85200501D01*
X134424594Y-85209666D01*
X134942404Y-85516368D01*
X134957343Y-85524553D01*
X135494466Y-85795974D01*
X135509910Y-85803141D01*
X136063965Y-86038080D01*
X136079870Y-86044207D01*
X136648409Y-86241625D01*
X136664645Y-86246661D01*
X137245087Y-86405661D01*
X137261663Y-86409610D01*
X137851392Y-86529477D01*
X137868217Y-86532316D01*
X138464666Y-86612531D01*
X138481579Y-86614233D01*
X139082064Y-86654430D01*
X139099107Y-86655000D01*
X139150000Y-86655000D01*
X139650000Y-86655000D01*
X139700893Y-86655000D01*
X139717935Y-86654430D01*
X140318420Y-86614233D01*
X140335333Y-86612531D01*
X140931782Y-86532316D01*
X140948607Y-86529477D01*
X141538336Y-86409610D01*
X141554912Y-86405661D01*
X142135354Y-86246661D01*
X142151590Y-86241625D01*
X142720129Y-86044207D01*
X142736034Y-86038080D01*
X143290089Y-85803141D01*
X143305533Y-85795974D01*
X143842656Y-85524553D01*
X143857595Y-85516368D01*
X144375405Y-85209666D01*
X144389763Y-85200501D01*
X144885930Y-84859902D01*
X144899624Y-84849812D01*
X145371934Y-84476832D01*
X145384956Y-84465822D01*
X145831259Y-84062165D01*
X145843544Y-84050286D01*
X146261897Y-83617711D01*
X146273337Y-83605062D01*
X146661850Y-83145527D01*
X146672451Y-83132103D01*
X147029409Y-82647637D01*
X147039054Y-82633583D01*
X147362867Y-82126340D01*
X147371576Y-82111637D01*
X147660779Y-81583909D01*
X147668459Y-81568709D01*
X147921791Y-81022795D01*
X147928443Y-81007108D01*
X148144731Y-80445530D01*
X148150319Y-80429435D01*
X148328622Y-79854640D01*
X148333130Y-79838186D01*
X148472638Y-79252784D01*
X148476031Y-79236093D01*
X148576127Y-78642680D01*
X148578403Y-78625758D01*
X148638637Y-78027017D01*
X148639777Y-78009988D01*
X148651813Y-77650000D01*
X146635693Y-77650000D01*
X146625600Y-77926147D01*
X146625205Y-77931538D01*
X146567919Y-78452168D01*
X146567132Y-78457515D01*
X146471994Y-78972580D01*
X146470819Y-78977856D01*
X146338337Y-79484608D01*
X146336780Y-79489784D01*
X146167661Y-79985514D01*
X146165730Y-79990563D01*
X145960871Y-80472635D01*
X145958576Y-80477529D01*
X145719090Y-80943336D01*
X145716445Y-80948050D01*
X145443578Y-81395157D01*
X145440595Y-81399665D01*
X145135833Y-81825644D01*
X145132530Y-81829922D01*
X144797475Y-82232533D01*
X144793868Y-82236558D01*
X144430330Y-82613625D01*
X144426439Y-82617377D01*
X144036332Y-82966914D01*
X144032177Y-82970372D01*
X143617603Y-83290495D01*
X143613207Y-83293640D01*
X143176384Y-83582640D01*
X143171770Y-83585456D01*
X142714988Y-83841814D01*
X142710181Y-83844285D01*
X142235938Y-84066601D01*
X142230963Y-84068715D01*
X141741732Y-84255830D01*
X141736616Y-84257575D01*
X141235059Y-84408472D01*
X141229830Y-84409840D01*
X140718563Y-84523729D01*
X140713247Y-84524710D01*
X140195061Y-84600971D01*
X140189689Y-84601563D01*
X139984402Y-84616588D01*
X139930633Y-84598791D01*
X139905197Y-84548187D01*
X139905000Y-84542785D01*
X139905000Y-83200793D01*
X139926674Y-83148467D01*
X139972725Y-83127060D01*
X140120836Y-83114454D01*
X140142320Y-83111703D01*
X140602888Y-83032731D01*
X140624039Y-83028173D01*
X141076216Y-82910436D01*
X141096937Y-82904091D01*
X141537501Y-82748429D01*
X141557600Y-82740352D01*
X141983404Y-82547876D01*
X142002710Y-82538143D01*
X142410642Y-82310259D01*
X142429084Y-82298903D01*
X142816227Y-82037240D01*
X142833627Y-82024371D01*
X143197182Y-81730821D01*
X143213424Y-81716526D01*
X143550782Y-81393193D01*
X143565764Y-81377562D01*
X143874481Y-81026791D01*
X143888071Y-81009962D01*
X144165935Y-80634262D01*
X144178051Y-80616339D01*
X144423045Y-80218443D01*
X144433602Y-80199545D01*
X144643979Y-79782284D01*
X144652884Y-79762587D01*
X144827113Y-79329005D01*
X144834329Y-79308580D01*
X144971152Y-78861802D01*
X144976608Y-78840850D01*
X145075050Y-78384078D01*
X145078710Y-78362729D01*
X145138064Y-77899224D01*
X145139898Y-77877676D01*
X145149571Y-77650000D01*
X143132410Y-77650000D01*
X143126838Y-77763417D01*
X143126126Y-77770644D01*
X143073272Y-78126956D01*
X143071855Y-78134079D01*
X142984330Y-78483498D01*
X142982222Y-78490447D01*
X142860867Y-78829612D01*
X142858088Y-78836321D01*
X142704080Y-79161943D01*
X142700657Y-79168348D01*
X142515462Y-79477326D01*
X142511427Y-79483364D01*
X142296848Y-79772690D01*
X142292241Y-79778303D01*
X142050338Y-80045203D01*
X142045203Y-80050338D01*
X141778303Y-80292241D01*
X141772690Y-80296848D01*
X141483364Y-80511427D01*
X141477326Y-80515462D01*
X141168348Y-80700657D01*
X141161943Y-80704080D01*
X140836321Y-80858088D01*
X140829612Y-80860867D01*
X140490447Y-80982222D01*
X140483498Y-80984330D01*
X140134079Y-81071855D01*
X140126956Y-81073272D01*
X139989858Y-81093609D01*
X139934918Y-81079847D01*
X139905801Y-81031268D01*
X139905000Y-81020410D01*
X139905000Y-79657515D01*
X139926674Y-79605189D01*
X139963271Y-79585206D01*
X140019110Y-79573059D01*
X140054017Y-79562810D01*
X140322051Y-79462839D01*
X140355161Y-79447718D01*
X140355163Y-79447717D01*
X140606237Y-79310621D01*
X140636863Y-79290940D01*
X140865886Y-79119494D01*
X140865895Y-79119487D01*
X140893366Y-79095683D01*
X140893381Y-79095669D01*
X141095669Y-78893381D01*
X141095683Y-78893366D01*
X141119487Y-78865895D01*
X141119494Y-78865886D01*
X141290940Y-78636863D01*
X141310621Y-78606237D01*
X141447717Y-78355163D01*
X141447718Y-78355161D01*
X141462839Y-78322051D01*
X141562810Y-78054017D01*
X141573058Y-78019112D01*
X141633871Y-77739564D01*
X141639050Y-77703543D01*
X141642880Y-77650000D01*
X139650000Y-77650000D01*
X139650000Y-86655000D01*
X139150000Y-86655000D01*
X139150000Y-77150000D01*
X139650000Y-77150000D01*
X141642880Y-77150000D01*
X141642880Y-77149999D01*
X141639050Y-77096456D01*
X141633871Y-77060435D01*
X141573058Y-76780887D01*
X141562810Y-76745982D01*
X141462839Y-76477948D01*
X141447718Y-76444838D01*
X141447717Y-76444836D01*
X141310621Y-76193762D01*
X141290940Y-76163136D01*
X141119494Y-75934113D01*
X141119487Y-75934104D01*
X141095683Y-75906633D01*
X141095669Y-75906618D01*
X140893381Y-75704330D01*
X140893366Y-75704316D01*
X140865895Y-75680512D01*
X140865886Y-75680505D01*
X140636863Y-75509059D01*
X140606237Y-75489378D01*
X140355163Y-75352282D01*
X140355161Y-75352281D01*
X140322051Y-75337160D01*
X140054017Y-75237189D01*
X140019112Y-75226941D01*
X139739564Y-75166128D01*
X139703543Y-75160949D01*
X139650000Y-75157119D01*
X139650000Y-77150000D01*
X139150000Y-77150000D01*
X139150000Y-75157120D01*
X139149999Y-75157119D01*
X139096456Y-75160949D01*
X139060435Y-75166128D01*
X138780887Y-75226941D01*
X138745982Y-75237189D01*
X138477948Y-75337160D01*
X138444838Y-75352281D01*
X138444836Y-75352282D01*
X138193762Y-75489378D01*
X138163136Y-75509059D01*
X137934113Y-75680505D01*
X137934104Y-75680512D01*
X137906633Y-75704316D01*
X137906618Y-75704330D01*
X137704330Y-75906618D01*
X137704316Y-75906633D01*
X137680512Y-75934104D01*
X137680505Y-75934113D01*
X137509059Y-76163136D01*
X137489378Y-76193762D01*
X137352282Y-76444836D01*
X137352281Y-76444838D01*
X137337160Y-76477948D01*
X137237189Y-76745982D01*
X137226941Y-76780887D01*
X137166128Y-77060435D01*
X137160949Y-77096456D01*
X137140541Y-77381796D01*
X137140541Y-77418203D01*
X137160949Y-77703543D01*
X137166128Y-77739564D01*
X137226941Y-78019112D01*
X137237189Y-78054017D01*
X137337160Y-78322051D01*
X137352281Y-78355161D01*
X137352282Y-78355163D01*
X137489378Y-78606237D01*
X137509059Y-78636863D01*
X137680505Y-78865886D01*
X137680512Y-78865895D01*
X137704316Y-78893366D01*
X137704330Y-78893381D01*
X137906618Y-79095669D01*
X137906633Y-79095683D01*
X137934104Y-79119487D01*
X137934113Y-79119494D01*
X138163136Y-79290940D01*
X138193762Y-79310621D01*
X138444836Y-79447717D01*
X138444838Y-79447718D01*
X138477948Y-79462839D01*
X138745982Y-79562810D01*
X138780889Y-79573059D01*
X138836729Y-79585206D01*
X138883252Y-79617507D01*
X138895000Y-79657515D01*
X138895000Y-81020410D01*
X138873326Y-81072736D01*
X138821000Y-81094410D01*
X138810142Y-81093609D01*
X138673042Y-81073272D01*
X138665919Y-81071855D01*
X138316500Y-80984330D01*
X138309551Y-80982222D01*
X137970386Y-80860867D01*
X137963677Y-80858088D01*
X137638055Y-80704080D01*
X137631650Y-80700657D01*
X137322672Y-80515462D01*
X137316634Y-80511427D01*
X137027308Y-80296848D01*
X137021695Y-80292241D01*
X136754795Y-80050338D01*
X136749660Y-80045203D01*
X136507757Y-79778303D01*
X136503150Y-79772690D01*
X136288571Y-79483364D01*
X136284536Y-79477326D01*
X136099341Y-79168348D01*
X136095918Y-79161943D01*
X135941910Y-78836321D01*
X135939131Y-78829612D01*
X135817776Y-78490447D01*
X135815668Y-78483498D01*
X135728143Y-78134079D01*
X135726726Y-78126956D01*
X135673872Y-77770644D01*
X135673160Y-77763417D01*
X135655485Y-77403630D01*
X135655485Y-77396368D01*
X135673160Y-77036581D01*
X135673872Y-77029354D01*
X135726726Y-76673042D01*
X135728143Y-76665919D01*
X135815668Y-76316500D01*
X135817776Y-76309551D01*
X135894007Y-76096500D01*
X135932042Y-76054535D01*
X135988611Y-76051756D01*
X136030576Y-76089791D01*
X136036928Y-76110899D01*
X136054854Y-76235579D01*
X136054854Y-76235580D01*
X136054855Y-76235582D01*
X136108670Y-76353419D01*
X136193503Y-76451323D01*
X136302483Y-76521360D01*
X136426780Y-76557856D01*
X136556324Y-76557856D01*
X136680621Y-76521360D01*
X136789601Y-76451323D01*
X136874434Y-76353419D01*
X136928249Y-76235582D01*
X136946685Y-76107356D01*
X136931250Y-76000000D01*
X136928249Y-75979128D01*
X136926759Y-75974055D01*
X136929208Y-75973335D01*
X136927493Y-75925299D01*
X136934990Y-75910513D01*
X137079109Y-75691295D01*
X137083877Y-75684837D01*
X137278575Y-75449162D01*
X137284006Y-75443274D01*
X137503156Y-75230164D01*
X137509225Y-75224874D01*
X137750236Y-75036847D01*
X137756810Y-75032271D01*
X138016826Y-74871554D01*
X138023889Y-74867703D01*
X138299821Y-74736203D01*
X138307267Y-74733141D01*
X138595853Y-74632410D01*
X138603574Y-74630178D01*
X138901421Y-74561403D01*
X138909329Y-74560026D01*
X139212870Y-74524032D01*
X139220901Y-74523521D01*
X139526564Y-74520731D01*
X139534583Y-74521095D01*
X139834869Y-74551154D01*
X139838729Y-74551541D01*
X139846689Y-74552778D01*
X140145727Y-74616099D01*
X140153483Y-74618189D01*
X140443871Y-74713638D01*
X140451362Y-74716561D01*
X140729645Y-74843000D01*
X140736785Y-74846725D01*
X140995707Y-75000306D01*
X140999678Y-75002661D01*
X141006371Y-75007141D01*
X141250747Y-75190716D01*
X141256914Y-75195897D01*
X141481390Y-75406349D01*
X141484253Y-75409183D01*
X141515744Y-75442106D01*
X141543140Y-75456840D01*
X141560412Y-75469685D01*
X141937009Y-75846282D01*
X141958683Y-75898608D01*
X141957930Y-75909138D01*
X141944867Y-75999999D01*
X141963302Y-76128223D01*
X141963302Y-76128224D01*
X141963303Y-76128226D01*
X142017118Y-76246063D01*
X142101951Y-76343967D01*
X142210931Y-76414004D01*
X142335228Y-76450500D01*
X142464772Y-76450500D01*
X142589069Y-76414004D01*
X142698049Y-76343967D01*
X142782882Y-76246063D01*
X142806273Y-76194843D01*
X142847725Y-76156252D01*
X142904326Y-76158273D01*
X142942919Y-76199726D01*
X142943259Y-76200656D01*
X142982222Y-76309551D01*
X142984330Y-76316500D01*
X143071855Y-76665919D01*
X143073272Y-76673042D01*
X143126126Y-77029354D01*
X143126838Y-77036581D01*
X143132409Y-77150000D01*
X145149571Y-77150000D01*
X145149570Y-77149999D01*
X145139898Y-76922323D01*
X145138064Y-76900775D01*
X145078710Y-76437270D01*
X145075050Y-76415921D01*
X145014398Y-76134497D01*
X145024561Y-76078780D01*
X145071147Y-76046568D01*
X145107585Y-76047904D01*
X145211921Y-76078539D01*
X145341465Y-76078539D01*
X145465762Y-76042043D01*
X145574742Y-75972006D01*
X145659575Y-75874102D01*
X145713390Y-75756265D01*
X145731826Y-75628039D01*
X145713390Y-75499813D01*
X145659575Y-75381976D01*
X145584166Y-75294948D01*
X145566093Y-75246490D01*
X145566093Y-75050000D01*
X145587767Y-74997674D01*
X145640093Y-74976000D01*
X146169820Y-74976000D01*
X146222146Y-74997674D01*
X146239857Y-75026107D01*
X146336780Y-75310214D01*
X146338337Y-75315390D01*
X146470819Y-75822142D01*
X146471994Y-75827418D01*
X146567132Y-76342483D01*
X146567919Y-76347830D01*
X146625205Y-76868460D01*
X146625600Y-76873851D01*
X146635693Y-77150000D01*
X148651813Y-77150000D01*
X148651813Y-77149999D01*
X148639777Y-76790011D01*
X148638637Y-76772982D01*
X148578403Y-76174241D01*
X148576127Y-76157319D01*
X148476031Y-75563906D01*
X148472638Y-75547215D01*
X148333130Y-74961813D01*
X148328622Y-74945359D01*
X148150319Y-74370564D01*
X148144731Y-74354469D01*
X147928443Y-73792891D01*
X147921791Y-73777204D01*
X147834875Y-73589904D01*
X147828000Y-73558755D01*
X147828000Y-68880000D01*
X143029544Y-68880000D01*
X143000655Y-68874128D01*
X142736034Y-68761919D01*
X142720129Y-68755792D01*
X142151590Y-68558374D01*
X142135354Y-68553338D01*
X141554912Y-68394338D01*
X141538336Y-68390389D01*
X140948607Y-68270522D01*
X140931782Y-68267683D01*
X140335333Y-68187468D01*
X140318420Y-68185766D01*
X139717935Y-68145569D01*
X139700893Y-68145000D01*
X139650000Y-68145000D01*
X139650000Y-69925393D01*
X139628326Y-69977719D01*
X139576000Y-69999393D01*
X139573906Y-69999363D01*
X139347669Y-69992958D01*
X139347660Y-69992958D01*
X139227138Y-69998075D01*
X139173940Y-69978640D01*
X139150067Y-69927280D01*
X139150000Y-69924142D01*
X139150000Y-68145000D01*
X139099107Y-68145000D01*
X139082064Y-68145569D01*
X138481579Y-68185766D01*
X138464666Y-68187468D01*
X137868217Y-68267683D01*
X137851392Y-68270522D01*
X137261663Y-68390389D01*
X137245087Y-68394338D01*
X136664645Y-68553338D01*
X136648409Y-68558374D01*
X136079870Y-68755792D01*
X136063965Y-68761919D01*
X135509910Y-68996858D01*
X135494466Y-69004025D01*
X134957343Y-69275446D01*
X134942404Y-69283631D01*
X134424594Y-69590333D01*
X134410236Y-69599498D01*
X133914069Y-69940097D01*
X133900375Y-69950187D01*
X133428065Y-70323167D01*
X133415043Y-70334177D01*
X132968740Y-70737834D01*
X132956455Y-70749713D01*
X132538102Y-71182288D01*
X132526662Y-71194937D01*
X132138149Y-71654472D01*
X132127548Y-71667896D01*
X131770590Y-72152362D01*
X131760945Y-72166416D01*
X131437132Y-72673659D01*
X131428423Y-72688362D01*
X131139220Y-73216090D01*
X131131540Y-73231290D01*
X130940990Y-73641912D01*
X130899303Y-73680253D01*
X130852353Y-73681567D01*
X130828415Y-73674294D01*
X130828404Y-73674291D01*
X130797188Y-73669504D01*
X130770590Y-73665425D01*
X130715772Y-73664910D01*
X129948370Y-73657709D01*
X129948328Y-73657709D01*
X129947852Y-73657705D01*
X129947722Y-73657704D01*
X129876498Y-73657253D01*
X129859546Y-73657146D01*
X129859545Y-73657146D01*
X129859541Y-73657146D01*
X129859535Y-73657147D01*
X129808049Y-73663366D01*
X129747844Y-73678530D01*
X129730165Y-73683838D01*
X129652729Y-73732496D01*
X129652728Y-73732496D01*
X129652728Y-73732497D01*
X129603322Y-73781903D01*
X129603315Y-73781911D01*
X129603309Y-73781916D01*
X129586670Y-73800727D01*
X129586665Y-73800734D01*
X129547827Y-73883532D01*
X129532976Y-73951808D01*
X129529146Y-73976644D01*
X129529145Y-73976649D01*
X129541236Y-74067293D01*
X129541239Y-74067304D01*
X129545289Y-74078163D01*
X129543266Y-74134764D01*
X129501812Y-74173356D01*
X129445211Y-74171333D01*
X129434841Y-74165549D01*
X129428233Y-74161133D01*
X129398989Y-74155316D01*
X129369748Y-74149500D01*
X123630252Y-74149500D01*
X123571769Y-74161133D01*
X123571768Y-74161133D01*
X123564621Y-74162555D01*
X123564142Y-74160149D01*
X123517498Y-74160140D01*
X123477458Y-74120083D01*
X123477469Y-74063448D01*
X123486431Y-74042007D01*
X123492382Y-74025908D01*
X123500413Y-73934805D01*
X123490907Y-73865585D01*
X123485971Y-73840939D01*
X123443473Y-73759956D01*
X123443471Y-73759954D01*
X123443471Y-73759953D01*
X123419982Y-73732497D01*
X123398053Y-73706863D01*
X123380578Y-73688800D01*
X123355027Y-73674294D01*
X123301048Y-73643648D01*
X123301040Y-73643645D01*
X123246802Y-73627345D01*
X123234135Y-73623538D01*
X123234133Y-73623537D01*
X123234132Y-73623537D01*
X123202362Y-73618763D01*
X123176289Y-73614846D01*
X122246577Y-73608962D01*
X122246576Y-73608962D01*
X122246573Y-73608962D01*
X122202061Y-73613535D01*
X122147795Y-73597321D01*
X122120887Y-73547483D01*
X122120500Y-73539922D01*
X122120500Y-67838500D01*
X122142174Y-67786174D01*
X122194500Y-67764500D01*
X150699389Y-67764500D01*
X150751715Y-67786174D01*
G37*
%TD.AperFunction*%
%TA.AperFunction,Conductor*%
G36*
X139595085Y-70601277D02*
G01*
X140069920Y-70631553D01*
X140075128Y-70632070D01*
X140452411Y-70683088D01*
X140494821Y-70704095D01*
X140622304Y-70831578D01*
X140688296Y-70869678D01*
X140761897Y-70889399D01*
X140761898Y-70889400D01*
X140761900Y-70889400D01*
X140761901Y-70889400D01*
X140838100Y-70889400D01*
X140849475Y-70889400D01*
X140901801Y-70911074D01*
X140924439Y-70933712D01*
X140946113Y-70986038D01*
X140945361Y-70996563D01*
X140944867Y-71000000D01*
X140963302Y-71128223D01*
X140963302Y-71128224D01*
X140963303Y-71128226D01*
X141017118Y-71246063D01*
X141101951Y-71343967D01*
X141210931Y-71414004D01*
X141335228Y-71450500D01*
X141464772Y-71450500D01*
X141589069Y-71414004D01*
X141617992Y-71395415D01*
X141673729Y-71385359D01*
X141720252Y-71417660D01*
X141732000Y-71457668D01*
X141732000Y-72023821D01*
X141710326Y-72076147D01*
X141658000Y-72097821D01*
X141627520Y-72091252D01*
X141557609Y-72059650D01*
X141537501Y-72051570D01*
X141096937Y-71895908D01*
X141076216Y-71889563D01*
X140624039Y-71771826D01*
X140602888Y-71767268D01*
X140142320Y-71688296D01*
X140120837Y-71685545D01*
X139655270Y-71645919D01*
X139650000Y-71645695D01*
X139650000Y-73667588D01*
X139649999Y-73667588D01*
X139763417Y-73673160D01*
X139770644Y-73673872D01*
X140126956Y-73726726D01*
X140134079Y-73728143D01*
X140483498Y-73815668D01*
X140490447Y-73817776D01*
X140829612Y-73939131D01*
X140836321Y-73941910D01*
X141161943Y-74095918D01*
X141168348Y-74099341D01*
X141477326Y-74284536D01*
X141483364Y-74288570D01*
X141702082Y-74450781D01*
X141731199Y-74499361D01*
X141732000Y-74510219D01*
X141732000Y-74650623D01*
X141710326Y-74702949D01*
X141658000Y-74724623D01*
X141610077Y-74707009D01*
X141518776Y-74629410D01*
X141518770Y-74629406D01*
X141405853Y-74551943D01*
X141222179Y-74425938D01*
X141222172Y-74425934D01*
X140906201Y-74254092D01*
X140906195Y-74254089D01*
X140574214Y-74115704D01*
X140229739Y-74012241D01*
X140229735Y-74012240D01*
X139876440Y-73944803D01*
X139876433Y-73944802D01*
X139518079Y-73914109D01*
X139518061Y-73914108D01*
X139158470Y-73920482D01*
X139158447Y-73920484D01*
X138801400Y-73963860D01*
X138801395Y-73963861D01*
X138450712Y-74043777D01*
X138450703Y-74043780D01*
X138110126Y-74159382D01*
X138110107Y-74159389D01*
X137783244Y-74309452D01*
X137783243Y-74309453D01*
X137473559Y-74492388D01*
X137473555Y-74492391D01*
X137184363Y-74706242D01*
X137184360Y-74706244D01*
X136918727Y-74948742D01*
X136679474Y-75217313D01*
X136469163Y-75509082D01*
X136390458Y-75646096D01*
X136347141Y-75680238D01*
X136302485Y-75693351D01*
X136302480Y-75693353D01*
X136193502Y-75763389D01*
X136193338Y-75763532D01*
X136193219Y-75763571D01*
X136189050Y-75766251D01*
X136188365Y-75765186D01*
X136139596Y-75781411D01*
X136088953Y-75756053D01*
X136071074Y-75702311D01*
X136077990Y-75675961D01*
X136095918Y-75638055D01*
X136099341Y-75631650D01*
X136284536Y-75322672D01*
X136288571Y-75316634D01*
X136503150Y-75027308D01*
X136507757Y-75021695D01*
X136749660Y-74754795D01*
X136754795Y-74749660D01*
X137021695Y-74507757D01*
X137027308Y-74503150D01*
X137316634Y-74288571D01*
X137322672Y-74284536D01*
X137631650Y-74099341D01*
X137638055Y-74095918D01*
X137963677Y-73941910D01*
X137970386Y-73939131D01*
X138309551Y-73817776D01*
X138316500Y-73815668D01*
X138665919Y-73728143D01*
X138673042Y-73726726D01*
X139029354Y-73673872D01*
X139036581Y-73673160D01*
X139150000Y-73667588D01*
X139150000Y-71645695D01*
X139149999Y-71645695D01*
X139144729Y-71645919D01*
X138679162Y-71685545D01*
X138657679Y-71688296D01*
X138197111Y-71767268D01*
X138175960Y-71771826D01*
X137723783Y-71889563D01*
X137703061Y-71895908D01*
X137473115Y-71977153D01*
X137416558Y-71974149D01*
X137378690Y-71932032D01*
X137375096Y-71897722D01*
X137376268Y-71888823D01*
X137355630Y-71732061D01*
X137295122Y-71585982D01*
X137232623Y-71504531D01*
X137198870Y-71460543D01*
X137198865Y-71460538D01*
X137073427Y-71364287D01*
X136927347Y-71303778D01*
X136791223Y-71285857D01*
X136770586Y-71283141D01*
X136770585Y-71283141D01*
X136770003Y-71283141D01*
X136769731Y-71283028D01*
X136765777Y-71282508D01*
X136765916Y-71281448D01*
X136717677Y-71261467D01*
X136696003Y-71209141D01*
X136717677Y-71156815D01*
X136739053Y-71141924D01*
X136742627Y-71140278D01*
X136773307Y-71126152D01*
X136778093Y-71124150D01*
X137223285Y-70956197D01*
X137228230Y-70954529D01*
X137684163Y-70818466D01*
X137689218Y-70817151D01*
X138153635Y-70713651D01*
X138158747Y-70712700D01*
X138629328Y-70642282D01*
X138634498Y-70641694D01*
X139108878Y-70604712D01*
X139114077Y-70604491D01*
X139589881Y-70601130D01*
X139595085Y-70601277D01*
G37*
%TD.AperFunction*%
%TD*%
%TA.AperFunction,Conductor*%
%TO.N,VDD*%
G36*
X123174988Y-73820342D02*
G01*
X123241898Y-73840451D01*
X123287318Y-73893544D01*
X123296824Y-73962764D01*
X123273467Y-74018651D01*
X123206647Y-74107911D01*
X123206645Y-74107913D01*
X123156403Y-74242620D01*
X123156401Y-74242627D01*
X123150000Y-74302155D01*
X123150000Y-77150000D01*
X129850000Y-77150000D01*
X129850000Y-74302172D01*
X129849999Y-74302155D01*
X129843598Y-74242627D01*
X129843596Y-74242620D01*
X129793354Y-74107913D01*
X129793352Y-74107911D01*
X129758198Y-74060950D01*
X129733781Y-73995486D01*
X129748632Y-73927213D01*
X129798038Y-73877807D01*
X129858245Y-73862642D01*
X129946400Y-73863200D01*
X130768662Y-73870916D01*
X130835510Y-73891228D01*
X130880768Y-73944459D01*
X130890062Y-74013708D01*
X130883210Y-74039476D01*
X130748108Y-74390261D01*
X130744715Y-74400036D01*
X130566406Y-74974852D01*
X130563664Y-74984860D01*
X130424154Y-75570267D01*
X130422081Y-75580462D01*
X130366473Y-75910128D01*
X130321984Y-76173883D01*
X130321982Y-76173898D01*
X130320598Y-76184187D01*
X130260360Y-76782960D01*
X130259667Y-76793326D01*
X130239556Y-77394851D01*
X130239431Y-77402346D01*
X130239402Y-77402843D01*
X130239536Y-77404554D01*
X130259667Y-78006673D01*
X130260360Y-78017039D01*
X130316717Y-78577232D01*
X130320599Y-78615818D01*
X130321984Y-78626117D01*
X130355198Y-78823022D01*
X130420842Y-79212192D01*
X130422082Y-79219540D01*
X130424152Y-79229724D01*
X130563663Y-79815135D01*
X130566409Y-79825158D01*
X130668649Y-80154748D01*
X130744715Y-80399963D01*
X130748114Y-80409754D01*
X130956834Y-80951681D01*
X130964411Y-80971355D01*
X130968468Y-80980922D01*
X131003520Y-81056458D01*
X131221783Y-81526803D01*
X131221789Y-81526814D01*
X131226476Y-81536089D01*
X131406031Y-81863735D01*
X131515692Y-82063842D01*
X131520983Y-82072776D01*
X131520989Y-82072785D01*
X131530802Y-82088157D01*
X131550283Y-82155255D01*
X131530396Y-82222235D01*
X131477454Y-82267830D01*
X131427832Y-82278870D01*
X122246048Y-82393528D01*
X122178768Y-82374682D01*
X122132358Y-82322454D01*
X122120500Y-82269538D01*
X122120500Y-80497844D01*
X123150000Y-80497844D01*
X123156401Y-80557372D01*
X123156403Y-80557379D01*
X123206645Y-80692086D01*
X123206649Y-80692093D01*
X123292809Y-80807187D01*
X123292812Y-80807190D01*
X123407906Y-80893350D01*
X123407913Y-80893354D01*
X123542620Y-80943596D01*
X123542627Y-80943598D01*
X123602155Y-80949999D01*
X123602172Y-80950000D01*
X126250000Y-80950000D01*
X126750000Y-80950000D01*
X129397828Y-80950000D01*
X129397844Y-80949999D01*
X129457372Y-80943598D01*
X129457379Y-80943596D01*
X129592086Y-80893354D01*
X129592093Y-80893350D01*
X129707187Y-80807190D01*
X129707190Y-80807187D01*
X129793350Y-80692093D01*
X129793354Y-80692086D01*
X129843596Y-80557379D01*
X129843598Y-80557372D01*
X129849999Y-80497844D01*
X129850000Y-80497827D01*
X129850000Y-77650000D01*
X126750000Y-77650000D01*
X126750000Y-80950000D01*
X126250000Y-80950000D01*
X126250000Y-77650000D01*
X123150000Y-77650000D01*
X123150000Y-80497844D01*
X122120500Y-80497844D01*
X122120500Y-73938455D01*
X122140185Y-73871416D01*
X122192989Y-73825661D01*
X122245276Y-73814458D01*
X123174988Y-73820342D01*
G37*
%TD.AperFunction*%
%TA.AperFunction,Conductor*%
G36*
X133815445Y-73982561D02*
G01*
X133858897Y-74037276D01*
X133868000Y-74083910D01*
X133868000Y-76211237D01*
X133865217Y-76237361D01*
X133822213Y-76436898D01*
X133819984Y-76449897D01*
X133760629Y-76913410D01*
X133759511Y-76926550D01*
X133739680Y-77393393D01*
X133739486Y-77402525D01*
X133739527Y-77403023D01*
X133759511Y-77873448D01*
X133760629Y-77886589D01*
X133819984Y-78350102D01*
X133822213Y-78363100D01*
X133865217Y-78562637D01*
X133868000Y-78588761D01*
X133868000Y-81883584D01*
X133848315Y-81950623D01*
X133795511Y-81996378D01*
X133726353Y-82006322D01*
X133662797Y-81977297D01*
X133648688Y-81962904D01*
X133589837Y-81892188D01*
X133584301Y-81885018D01*
X133277426Y-81456085D01*
X133272429Y-81448532D01*
X132997677Y-80998335D01*
X132993259Y-80990464D01*
X132752092Y-80521390D01*
X132748259Y-80513213D01*
X132541986Y-80027812D01*
X132538750Y-80019352D01*
X132438495Y-79725479D01*
X132368461Y-79520192D01*
X132365860Y-79511546D01*
X132232449Y-79001243D01*
X132230489Y-78992445D01*
X132134690Y-78473796D01*
X132133376Y-78464869D01*
X132075690Y-77940597D01*
X132075030Y-77931574D01*
X132055768Y-77404514D01*
X132055768Y-77395485D01*
X132075030Y-76868411D01*
X132075691Y-76859391D01*
X132133376Y-76335125D01*
X132134689Y-76326206D01*
X132230490Y-75807547D01*
X132232447Y-75798761D01*
X132365862Y-75288445D01*
X132368458Y-75279813D01*
X132538751Y-74780641D01*
X132541986Y-74772186D01*
X132748262Y-74286777D01*
X132752088Y-74278614D01*
X132830591Y-74125923D01*
X132878750Y-74075306D01*
X132946632Y-74058758D01*
X133012684Y-74081537D01*
X133028550Y-74094943D01*
X133061652Y-74128045D01*
X133061654Y-74128046D01*
X133061658Y-74128050D01*
X133174696Y-74185646D01*
X133174697Y-74185646D01*
X133174699Y-74185647D01*
X133299997Y-74205492D01*
X133300000Y-74205492D01*
X133300003Y-74205492D01*
X133425300Y-74185647D01*
X133425301Y-74185647D01*
X133425302Y-74185646D01*
X133425304Y-74185646D01*
X133538342Y-74128050D01*
X133628050Y-74038342D01*
X133633516Y-74027613D01*
X133681490Y-73976819D01*
X133749311Y-73960024D01*
X133815445Y-73982561D01*
G37*
%TD.AperFunction*%
%TD*%
M02*
